<?xml version="1.0" encoding="UTF-8" standalone="no"?>
<!DOCTYPE svg PUBLIC "-//W3C//DTD SVG 1.1//EN"
 "http://www.w3.org/Graphics/SVG/1.1/DTD/svg11.dtd">
<!-- Generated by graphviz version 2.43.0 (0)
 -->
<!-- Title: inc/BNO085.hpp Pages: 1 -->
<svg width="933pt" height="93pt"
 viewBox="0.00 0.00 933.00 93.00" xmlns="http://www.w3.org/2000/svg" xmlns:xlink="http://www.w3.org/1999/xlink">
<g id="graph0" class="graph" transform="scale(1 1) rotate(0) translate(4 89)">
<title>inc/BNO085.hpp</title>
<!-- Node1 -->
<g id="Node000001" class="node">
<title>Node1</title>
<g id="a_Node000001"><a xlink:title="High level C++ interface for the BNO08x IMU family.">
<polygon fill="#999999" stroke="#666666" points="552.5,-85 457.5,-85 457.5,-66 552.5,-66 552.5,-85"/>
<text text-anchor="middle" x="505" y="-73" font-family="Helvetica,sans-Serif" font-size="10.00">inc/BNO085.hpp</text>
</a>
</g>
</g>
<!-- Node2 -->
<g id="Node000002" class="node">
<title>Node2</title>
<g id="a_Node000002"><a xlink:href="BasicPollingExample_8cpp.html" target="_top" xlink:title="Basic polling mode example with orientation and linear acceleration.">
<polygon fill="white" stroke="#666666" points="142,-30 0,-30 0,0 142,0 142,-30"/>
<text text-anchor="start" x="8" y="-18" font-family="Helvetica,sans-Serif" font-size="10.00">examples/esp32/main</text>
<text text-anchor="middle" x="71" y="-7" font-family="Helvetica,sans-Serif" font-size="10.00">/BasicPollingExample.cpp</text>
</a>
</g>
</g>
<!-- Node1&#45;&gt;Node2 -->
<g id="edge1_Node000001_Node000002" class="edge">
<title>Node1&#45;&gt;Node2</title>
<g id="a_edge1_Node000001_Node000002"><a xlink:title=" ">
<path fill="none" stroke="#63b8ff" d="M447.41,-68.12C377.26,-60.16 255.21,-45.66 151,-30 148.07,-29.56 145.09,-29.1 142.07,-28.62"/>
<polygon fill="#63b8ff" stroke="#63b8ff" points="447.05,-71.61 457.38,-69.25 447.83,-64.65 447.05,-71.61"/>
</a>
</g>
</g>
<!-- Node3 -->
<g id="Node000003" class="node">
<title>Node3</title>
<g id="a_Node000003"><a xlink:href="DriverIntegrationTest_8cpp.html" target="_top" xlink:title="Comprehensive Integration Test Suite for BNO08x Driver.">
<polygon fill="white" stroke="#666666" points="303.5,-30 160.5,-30 160.5,0 303.5,0 303.5,-30"/>
<text text-anchor="start" x="168.5" y="-18" font-family="Helvetica,sans-Serif" font-size="10.00">examples/esp32/main</text>
<text text-anchor="middle" x="232" y="-7" font-family="Helvetica,sans-Serif" font-size="10.00">/DriverIntegrationTest.cpp</text>
</a>
</g>
</g>
<!-- Node1&#45;&gt;Node3 -->
<g id="edge2_Node000001_Node000003" class="edge">
<title>Node1&#45;&gt;Node3</title>
<g id="a_edge2_Node000001_Node000003"><a xlink:title=" ">
<path fill="none" stroke="#63b8ff" d="M455.35,-63.86C411.06,-54.37 345.89,-40.41 297.37,-30.01"/>
<polygon fill="#63b8ff" stroke="#63b8ff" points="454.79,-67.32 465.3,-65.99 456.26,-60.48 454.79,-67.32"/>
</a>
</g>
</g>
<!-- Node4 -->
<g id="Node000004" class="node">
<title>Node4</title>
<g id="a_Node000004"><a xlink:href="EventDrivenCallbackExample_8cpp.html" target="_top" xlink:title="Event&#45;driven callback example with step counter and tap detector.">
<polygon fill="white" stroke="#666666" points="506.5,-30 321.5,-30 321.5,0 506.5,0 506.5,-30"/>
<text text-anchor="start" x="329.5" y="-18" font-family="Helvetica,sans-Serif" font-size="10.00">examples/esp32/main</text>
<text text-anchor="middle" x="414" y="-7" font-family="Helvetica,sans-Serif" font-size="10.00">/EventDrivenCallbackExample.cpp</text>
</a>
</g>
</g>
<!-- Node1&#45;&gt;Node4 -->
<g id="edge3_Node000001_Node000004" class="edge">
<title>Node1&#45;&gt;Node4</title>
<g id="a_edge3_Node000001_Node000004"><a xlink:title=" ">
<path fill="none" stroke="#63b8ff" d="M482.9,-60.29C468.65,-51.13 450.18,-39.26 435.96,-30.11"/>
<polygon fill="#63b8ff" stroke="#63b8ff" points="481.27,-63.4 491.57,-65.87 485.05,-57.52 481.27,-63.4"/>
</a>
</g>
</g>
<!-- Node5 -->
<g id="Node000005" class="node">
<title>Node5</title>
<g id="a_Node000005"><a xlink:href="FullFeaturesExample_8cpp.html" target="_top" xlink:title="Comprehensive example demonstrating all BNO08x features.">
<polygon fill="white" stroke="#666666" points="667,-30 525,-30 525,0 667,0 667,-30"/>
<text text-anchor="start" x="533" y="-18" font-family="Helvetica,sans-Serif" font-size="10.00">examples/esp32/main</text>
<text text-anchor="middle" x="596" y="-7" font-family="Helvetica,sans-Serif" font-size="10.00">/FullFeaturesExample.cpp</text>
</a>
</g>
</g>
<!-- Node1&#45;&gt;Node5 -->
<g id="edge4_Node000001_Node000005" class="edge">
<title>Node1&#45;&gt;Node5</title>
<g id="a_edge4_Node000001_Node000005"><a xlink:title=" ">
<path fill="none" stroke="#63b8ff" d="M527.1,-60.29C541.35,-51.13 559.82,-39.26 574.04,-30.11"/>
<polygon fill="#63b8ff" stroke="#63b8ff" points="524.95,-57.52 518.43,-65.87 528.73,-63.4 524.95,-57.52"/>
</a>
</g>
</g>
<!-- Node6 -->
<g id="Node000006" class="node">
<title>Node6</title>
<g id="a_Node000006"><a xlink:href="RvcModeExample_8cpp.html" target="_top" xlink:title="RVC (Reduced Vector Computation) mode example.">
<polygon fill="white" stroke="#666666" points="813,-30 685,-30 685,0 813,0 813,-30"/>
<text text-anchor="start" x="693" y="-18" font-family="Helvetica,sans-Serif" font-size="10.00">examples/esp32/main</text>
<text text-anchor="middle" x="749" y="-7" font-family="Helvetica,sans-Serif" font-size="10.00">/RvcModeExample.cpp</text>
</a>
</g>
</g>
<!-- Node1&#45;&gt;Node6 -->
<g id="edge5_Node000001_Node000006" class="edge">
<title>Node1&#45;&gt;Node6</title>
<g id="a_edge5_Node000001_Node000006"><a xlink:title=" ">
<path fill="none" stroke="#63b8ff" d="M550.36,-63.62C589.86,-54.16 647.36,-40.37 690.34,-30.06"/>
<polygon fill="#63b8ff" stroke="#63b8ff" points="549.39,-60.26 540.48,-65.99 551.02,-67.07 549.39,-60.26"/>
</a>
</g>
</g>
<!-- Node7 -->
<g id="Node000007" class="node">
<title>Node7</title>
<g id="a_Node000007"><a xlink:href="BNO085_8cpp.html" target="_top" xlink:title="Implementation of the BNO085 C++ driver.">
<polygon fill="white" stroke="#666666" points="925,-24.5 831,-24.5 831,-5.5 925,-5.5 925,-24.5"/>
<text text-anchor="middle" x="878" y="-12.5" font-family="Helvetica,sans-Serif" font-size="10.00">src/BNO085.cpp</text>
</a>
</g>
</g>
<!-- Node1&#45;&gt;Node7 -->
<g id="edge6_Node000001_Node000007" class="edge">
<title>Node1&#45;&gt;Node7</title>
<g id="a_edge6_Node000001_Node000007"><a xlink:title=" ">
<path fill="none" stroke="#63b8ff" d="M562.77,-68.25C626.55,-60.91 732.09,-47.5 822,-30 829.97,-28.45 838.5,-26.48 846.44,-24.51"/>
<polygon fill="#63b8ff" stroke="#63b8ff" points="562.06,-64.8 552.52,-69.41 562.85,-71.76 562.06,-64.8"/>
</a>
</g>
</g>
</g>
</svg>
