<?xml version="1.0" encoding="UTF-8" standalone="no"?>
<!DOCTYPE svg PUBLIC "-//W3C//DTD SVG 1.1//EN"
 "http://www.w3.org/Graphics/SVG/1.1/DTD/svg11.dtd">
<!-- Generated by graphviz version 2.43.0 (0)
 -->
<!-- Title: inc/bno08x_comm_interface.hpp Pages: 1 -->
<svg width="1024pt" height="170pt"
 viewBox="0.00 0.00 1023.50 170.00" xmlns="http://www.w3.org/2000/svg" xmlns:xlink="http://www.w3.org/1999/xlink">
<g id="graph0" class="graph" transform="scale(1 1) rotate(0) translate(4 166)">
<title>inc/bno08x_comm_interface.hpp</title>
<!-- Node1 -->
<g id="Node000001" class="node">
<title>Node1</title>
<g id="a_Node000001"><a xlink:title="CRTP&#45;based communication interface for communicating with the BNO085.">
<polygon fill="#999999" stroke="#666666" points="631.5,-162 455.5,-162 455.5,-143 631.5,-143 631.5,-162"/>
<text text-anchor="middle" x="543.5" y="-150" font-family="Helvetica,sans-Serif" font-size="10.00">inc/bno08x_comm_interface.hpp</text>
</a>
</g>
</g>
<!-- Node2 -->
<g id="Node000002" class="node">
<title>Node2</title>
<g id="a_Node000002"><a xlink:href="esp32__bno08x__bus_8hpp.html" target="_top" xlink:title="ESP32 I2C communication interface implementation for BNO08x driver.">
<polygon fill="white" stroke="#666666" points="545.5,-107 411.5,-107 411.5,-77 545.5,-77 545.5,-107"/>
<text text-anchor="start" x="419.5" y="-95" font-family="Helvetica,sans-Serif" font-size="10.00">examples/esp32/main</text>
<text text-anchor="middle" x="478.5" y="-84" font-family="Helvetica,sans-Serif" font-size="10.00">/esp32_bno08x_bus.hpp</text>
</a>
</g>
</g>
<!-- Node1&#45;&gt;Node2 -->
<g id="edge1_Node000001_Node000002" class="edge">
<title>Node1&#45;&gt;Node2</title>
<g id="a_edge1_Node000001_Node000002"><a xlink:title=" ">
<path fill="none" stroke="#63b8ff" d="M526.24,-135.97C516.28,-127.01 503.86,-115.82 494.18,-107.11"/>
<polygon fill="#63b8ff" stroke="#63b8ff" points="524.13,-138.78 533.91,-142.87 528.82,-133.58 524.13,-138.78"/>
</a>
</g>
</g>
<!-- Node9 -->
<g id="Node000009" class="node">
<title>Node9</title>
<g id="a_Node000009"><a xlink:href="bno08x_8hpp.html" target="_top" xlink:title="High level C++ interface for the BNO08x IMU family.">
<polygon fill="white" stroke="#666666" points="655,-101.5 564,-101.5 564,-82.5 655,-82.5 655,-101.5"/>
<text text-anchor="middle" x="609.5" y="-89.5" font-family="Helvetica,sans-Serif" font-size="10.00">inc/bno08x.hpp</text>
</a>
</g>
</g>
<!-- Node1&#45;&gt;Node9 -->
<g id="edge8_Node000001_Node000009" class="edge">
<title>Node1&#45;&gt;Node9</title>
<g id="a_edge8_Node000001_Node000009"><a xlink:title=" ">
<path fill="none" stroke="#63b8ff" d="M560.74,-136.22C573.16,-125.21 589.47,-110.75 599.72,-101.67"/>
<polygon fill="#63b8ff" stroke="#63b8ff" points="558.4,-133.62 553.24,-142.87 563.04,-138.85 558.4,-133.62"/>
</a>
</g>
</g>
<!-- Node3 -->
<g id="Node000003" class="node">
<title>Node3</title>
<g id="a_Node000003"><a xlink:href="basic__polling__example_8cpp.html" target="_top" xlink:title="Basic polling mode example with orientation and linear acceleration.">
<polygon fill="white" stroke="#666666" points="620.5,-35.5 468.5,-35.5 468.5,-5.5 620.5,-5.5 620.5,-35.5"/>
<text text-anchor="start" x="476.5" y="-23.5" font-family="Helvetica,sans-Serif" font-size="10.00">examples/esp32/main</text>
<text text-anchor="middle" x="544.5" y="-12.5" font-family="Helvetica,sans-Serif" font-size="10.00">/basic_polling_example.cpp</text>
</a>
</g>
</g>
<!-- Node2&#45;&gt;Node3 -->
<g id="edge2_Node000002_Node000003" class="edge">
<title>Node2&#45;&gt;Node3</title>
<g id="a_edge2_Node000002_Node000003"><a xlink:title=" ">
<path fill="none" stroke="#63b8ff" d="M498.75,-69.67C509.29,-58.58 521.86,-45.34 531.16,-35.54"/>
<polygon fill="#63b8ff" stroke="#63b8ff" points="496.2,-67.27 491.86,-76.94 501.28,-72.09 496.2,-67.27"/>
</a>
</g>
</g>
<!-- Node4 -->
<g id="Node000004" class="node">
<title>Node4</title>
<g id="a_Node000004"><a xlink:href="dfu__example_8cpp.html" target="_top" xlink:title="Device Firmware Update (DFU) example for BNO08x.">
<polygon fill="white" stroke="#666666" points="764,-35.5 639,-35.5 639,-5.5 764,-5.5 764,-35.5"/>
<text text-anchor="start" x="647" y="-23.5" font-family="Helvetica,sans-Serif" font-size="10.00">examples/esp32/main</text>
<text text-anchor="middle" x="701.5" y="-12.5" font-family="Helvetica,sans-Serif" font-size="10.00">/dfu_example.cpp</text>
</a>
</g>
</g>
<!-- Node2&#45;&gt;Node4 -->
<g id="edge3_Node000002_Node000004" class="edge">
<title>Node2&#45;&gt;Node4</title>
<g id="a_edge3_Node000002_Node000004"><a xlink:title=" ">
<path fill="none" stroke="#63b8ff" d="M533.47,-73.87C571.3,-62.08 620.94,-46.61 656.44,-35.54"/>
<polygon fill="#63b8ff" stroke="#63b8ff" points="532.13,-70.62 523.63,-76.94 534.22,-77.3 532.13,-70.62"/>
</a>
</g>
</g>
<!-- Node5 -->
<g id="Node000005" class="node">
<title>Node5</title>
<g id="a_Node000005"><a xlink:href="driver__integration__test_8cpp.html" target="_top" xlink:title="Comprehensive Integration Test Suite for BNO08x Driver.">
<polygon fill="white" stroke="#666666" points="907,-41 782,-41 782,0 907,0 907,-41"/>
<text text-anchor="start" x="790" y="-29" font-family="Helvetica,sans-Serif" font-size="10.00">examples/esp32/main</text>
<text text-anchor="start" x="790" y="-18" font-family="Helvetica,sans-Serif" font-size="10.00">/driver_integration</text>
<text text-anchor="middle" x="844.5" y="-7" font-family="Helvetica,sans-Serif" font-size="10.00">_test.cpp</text>
</a>
</g>
</g>
<!-- Node2&#45;&gt;Node5 -->
<g id="edge4_Node000002_Node000005" class="edge">
<title>Node2&#45;&gt;Node5</title>
<g id="a_edge4_Node000002_Node000005"><a xlink:title=" ">
<path fill="none" stroke="#63b8ff" d="M555.63,-76.84C653.39,-60.17 680.25,-61.41 773.5,-41 776.25,-40.4 779.05,-39.76 781.87,-39.09"/>
<polygon fill="#63b8ff" stroke="#63b8ff" points="554.88,-73.41 545.62,-78.56 556.07,-80.31 554.88,-73.41"/>
</a>
</g>
</g>
<!-- Node6 -->
<g id="Node000006" class="node">
<title>Node6</title>
<g id="a_Node000006"><a xlink:href="event__driven__callback__example_8cpp.html" target="_top" xlink:title="Event&#45;driven callback example with step counter and tap detector.">
<polygon fill="white" stroke="#666666" points="129,-41 0,-41 0,0 129,0 129,-41"/>
<text text-anchor="start" x="8" y="-29" font-family="Helvetica,sans-Serif" font-size="10.00">examples/esp32/main</text>
<text text-anchor="start" x="8" y="-18" font-family="Helvetica,sans-Serif" font-size="10.00">/event_driven_callback</text>
<text text-anchor="middle" x="64.5" y="-7" font-family="Helvetica,sans-Serif" font-size="10.00">_example.cpp</text>
</a>
</g>
</g>
<!-- Node2&#45;&gt;Node6 -->
<g id="edge5_Node000002_Node000006" class="edge">
<title>Node2&#45;&gt;Node6</title>
<g id="a_edge5_Node000002_Node000006"><a xlink:title=" ">
<path fill="none" stroke="#63b8ff" d="M401.47,-82.28C332.07,-73.82 227.43,-59.54 137.5,-41 134.8,-40.44 132.06,-39.85 129.29,-39.22"/>
<polygon fill="#63b8ff" stroke="#63b8ff" points="401.11,-85.76 411.45,-83.49 401.95,-78.81 401.11,-85.76"/>
</a>
</g>
</g>
<!-- Node7 -->
<g id="Node000007" class="node">
<title>Node7</title>
<g id="a_Node000007"><a xlink:href="full__features__example_8cpp.html" target="_top" xlink:title="Comprehensive example demonstrating all BNO08x features.">
<polygon fill="white" stroke="#666666" points="296,-35.5 147,-35.5 147,-5.5 296,-5.5 296,-35.5"/>
<text text-anchor="start" x="155" y="-23.5" font-family="Helvetica,sans-Serif" font-size="10.00">examples/esp32/main</text>
<text text-anchor="middle" x="221.5" y="-12.5" font-family="Helvetica,sans-Serif" font-size="10.00">/full_features_example.cpp</text>
</a>
</g>
</g>
<!-- Node2&#45;&gt;Node7 -->
<g id="edge6_Node000002_Node000007" class="edge">
<title>Node2&#45;&gt;Node7</title>
<g id="a_edge6_Node000002_Node000007"><a xlink:title=" ">
<path fill="none" stroke="#63b8ff" d="M416.81,-74.32C373.01,-62.47 314.86,-46.75 273.43,-35.54"/>
<polygon fill="#63b8ff" stroke="#63b8ff" points="415.93,-77.7 426.49,-76.94 417.75,-70.95 415.93,-77.7"/>
</a>
</g>
</g>
<!-- Node8 -->
<g id="Node000008" class="node">
<title>Node8</title>
<g id="a_Node000008"><a xlink:href="rvc__mode__example_8cpp.html" target="_top" xlink:title="RVC (Reduced Vector Computation) mode example.">
<polygon fill="white" stroke="#666666" points="450.5,-35.5 314.5,-35.5 314.5,-5.5 450.5,-5.5 450.5,-35.5"/>
<text text-anchor="start" x="322.5" y="-23.5" font-family="Helvetica,sans-Serif" font-size="10.00">examples/esp32/main</text>
<text text-anchor="middle" x="382.5" y="-12.5" font-family="Helvetica,sans-Serif" font-size="10.00">/rvc_mode_example.cpp</text>
</a>
</g>
</g>
<!-- Node2&#45;&gt;Node8 -->
<g id="edge7_Node000002_Node000008" class="edge">
<title>Node2&#45;&gt;Node8</title>
<g id="a_edge7_Node000002_Node000008"><a xlink:title=" ">
<path fill="none" stroke="#63b8ff" d="M450.79,-70.94C435.13,-59.6 415.94,-45.71 401.9,-35.54"/>
<polygon fill="#63b8ff" stroke="#63b8ff" points="448.92,-73.91 459.07,-76.94 453.03,-68.24 448.92,-73.91"/>
</a>
</g>
</g>
<!-- Node9&#45;&gt;Node3 -->
<g id="edge9_Node000009_Node000003" class="edge">
<title>Node9&#45;&gt;Node3</title>
<g id="a_edge9_Node000009_Node000003"><a xlink:title=" ">
<path fill="none" stroke="#63b8ff" d="M594.56,-75.03C583.44,-63.14 568.41,-47.06 557.72,-35.64"/>
<polygon fill="#63b8ff" stroke="#63b8ff" points="592.14,-77.57 601.53,-82.48 597.26,-72.78 592.14,-77.57"/>
</a>
</g>
</g>
<!-- Node9&#45;&gt;Node4 -->
<g id="edge10_Node000009_Node000004" class="edge">
<title>Node9&#45;&gt;Node4</title>
<g id="a_edge10_Node000009_Node000004"><a xlink:title=" ">
<path fill="none" stroke="#63b8ff" d="M628.86,-76.38C644.74,-64.38 667.08,-47.5 682.79,-35.64"/>
<polygon fill="#63b8ff" stroke="#63b8ff" points="626.65,-73.66 620.78,-82.48 630.87,-79.24 626.65,-73.66"/>
</a>
</g>
</g>
<!-- Node9&#45;&gt;Node5 -->
<g id="edge11_Node000009_Node000005" class="edge">
<title>Node9&#45;&gt;Node5</title>
<g id="a_edge11_Node000009_Node000005"><a xlink:title=" ">
<path fill="none" stroke="#63b8ff" d="M648.03,-79.61C684.31,-68.88 739.29,-52.62 781.87,-40.02"/>
<polygon fill="#63b8ff" stroke="#63b8ff" points="646.91,-76.29 638.32,-82.48 648.9,-83 646.91,-76.29"/>
</a>
</g>
</g>
<!-- Node9&#45;&gt;Node6 -->
<g id="edge12_Node000009_Node000006" class="edge">
<title>Node9&#45;&gt;Node6</title>
<g id="a_edge12_Node000009_Node000006"><a xlink:title=" ">
<path fill="none" stroke="#63b8ff" d="M569.95,-80.11C564.78,-78.93 559.53,-77.85 554.5,-77 371.09,-45.95 320.73,-73.13 137.5,-41 134.79,-40.52 132.03,-40 129.25,-39.43"/>
<polygon fill="#63b8ff" stroke="#63b8ff" points="569.17,-83.53 579.72,-82.48 570.82,-76.72 569.17,-83.53"/>
</a>
</g>
</g>
<!-- Node9&#45;&gt;Node7 -->
<g id="edge13_Node000009_Node000007" class="edge">
<title>Node9&#45;&gt;Node7</title>
<g id="a_edge13_Node000009_Node000007"><a xlink:title=" ">
<path fill="none" stroke="#63b8ff" d="M568.24,-80C563.62,-78.91 558.97,-77.89 554.5,-77 444.83,-55.18 415.39,-61.66 305.5,-41 296.97,-39.4 287.99,-37.52 279.2,-35.57"/>
<polygon fill="#63b8ff" stroke="#63b8ff" points="567.67,-83.46 578.22,-82.43 569.33,-76.66 567.67,-83.46"/>
</a>
</g>
</g>
<!-- Node9&#45;&gt;Node8 -->
<g id="edge14_Node000009_Node000008" class="edge">
<title>Node9&#45;&gt;Node8</title>
<g id="a_edge14_Node000009_Node000008"><a xlink:title=" ">
<path fill="none" stroke="#63b8ff" d="M571.91,-79.49C532.48,-67.42 470.49,-48.44 428.25,-35.51"/>
<polygon fill="#63b8ff" stroke="#63b8ff" points="571.08,-82.9 581.67,-82.48 573.13,-76.2 571.08,-82.9"/>
</a>
</g>
</g>
<!-- Node10 -->
<g id="Node000010" class="node">
<title>Node10</title>
<g id="a_Node000010"><a xlink:href="bno08x_8cpp.html" target="_top" xlink:title="Template implementation of the BNO08x C++ driver.">
<polygon fill="white" stroke="#666666" points="1015.5,-30 925.5,-30 925.5,-11 1015.5,-11 1015.5,-30"/>
<text text-anchor="middle" x="970.5" y="-18" font-family="Helvetica,sans-Serif" font-size="10.00">src/bno08x.cpp</text>
</a>
</g>
</g>
<!-- Node9&#45;&gt;Node10 -->
<g id="edge15_Node000009_Node000010" class="edge">
<title>Node9&#45;&gt;Node10</title>
<g id="a_edge15_Node000009_Node000010"><a xlink:title=" ">
<path fill="none" stroke="#63b8ff" d="M665.09,-84.27C725.45,-76.73 824.12,-62.65 907.5,-41 918.69,-38.09 930.83,-33.82 941.59,-30.01"/>
<polygon fill="#63b8ff" stroke="#63b8ff" points="664.51,-80.82 655.02,-85.51 665.37,-87.76 664.51,-80.82"/>
</a>
</g>
</g>
<!-- Node10&#45;&gt;Node9 -->
<g id="edge16_Node000010_Node000009" class="edge">
<title>Node10&#45;&gt;Node9</title>
<g id="a_edge16_Node000010_Node000009"><a xlink:title=" ">
<path fill="none" stroke="#63b8ff" d="M948.38,-33.75C941.15,-36.42 933.11,-39.03 925.5,-41 831.16,-65.49 717.23,-80.3 655.08,-86.91"/>
<polygon fill="#63b8ff" stroke="#63b8ff" points="949.89,-36.92 957.92,-30.01 947.33,-30.4 949.89,-36.92"/>
</a>
</g>
</g>
</g>
</svg>
