<?xml version="1.0" encoding="UTF-8" standalone="no"?>
<!DOCTYPE svg PUBLIC "-//W3C//DTD SVG 1.1//EN"
 "http://www.w3.org/Graphics/SVG/1.1/DTD/svg11.dtd">
<!-- Generated by graphviz version 2.43.0 (0)
 -->
<!-- Title: examples/esp32/main/basic_polling_example.cpp Pages: 1 -->
<svg width="1777pt" height="313pt"
 viewBox="0.00 0.00 1777.00 313.00" xmlns="http://www.w3.org/2000/svg" xmlns:xlink="http://www.w3.org/1999/xlink">
<g id="graph0" class="graph" transform="scale(1 1) rotate(0) translate(4 309)">
<title>examples/esp32/main/basic_polling_example.cpp</title>
<!-- Node1 -->
<g id="Node000001" class="node">
<title>Node1</title>
<g id="a_Node000001"><a xlink:title="Basic polling mode example with orientation and linear acceleration.">
<polygon fill="#999999" stroke="#666666" points="470.5,-305 318.5,-305 318.5,-275 470.5,-275 470.5,-305"/>
<text text-anchor="start" x="326.5" y="-293" font-family="Helvetica,sans-Serif" font-size="10.00">examples/esp32/main</text>
<text text-anchor="middle" x="394.5" y="-282" font-family="Helvetica,sans-Serif" font-size="10.00">/basic_polling_example.cpp</text>
</a>
</g>
</g>
<!-- Node2 -->
<g id="Node000002" class="node">
<title>Node2</title>
<g id="a_Node000002"><a xlink:title=" ">
<polygon fill="#e0e0e0" stroke="#999999" points="63,-184 0,-184 0,-165 63,-165 63,-184"/>
<text text-anchor="middle" x="31.5" y="-172" font-family="Helvetica,sans-Serif" font-size="10.00">esp_log.h</text>
</a>
</g>
</g>
<!-- Node1&#45;&gt;Node2 -->
<g id="edge1_Node000001_Node000002" class="edge">
<title>Node1&#45;&gt;Node2</title>
<g id="a_edge1_Node000001_Node000002"><a xlink:title=" ">
<path fill="none" stroke="#63b8ff" d="M349.62,-274.97C277.27,-252.35 136.17,-208.23 68.9,-187.2"/>
<polygon fill="#63b8ff" stroke="#63b8ff" points="69.74,-183.79 59.15,-184.14 67.65,-190.47 69.74,-183.79"/>
</a>
</g>
</g>
<!-- Node3 -->
<g id="Node000003" class="node">
<title>Node3</title>
<g id="a_Node000003"><a xlink:title=" ">
<polygon fill="#e0e0e0" stroke="#999999" points="194,-184 81,-184 81,-165 194,-165 194,-184"/>
<text text-anchor="middle" x="137.5" y="-172" font-family="Helvetica,sans-Serif" font-size="10.00">freertos/FreeRTOS.h</text>
</a>
</g>
</g>
<!-- Node1&#45;&gt;Node3 -->
<g id="edge2_Node000001_Node000003" class="edge">
<title>Node1&#45;&gt;Node3</title>
<g id="a_edge2_Node000001_Node000003"><a xlink:title=" ">
<path fill="none" stroke="#63b8ff" d="M362.73,-274.97C312.35,-252.72 214.88,-209.67 166.37,-188.25"/>
<polygon fill="#63b8ff" stroke="#63b8ff" points="167.64,-184.98 157.07,-184.14 164.81,-191.39 167.64,-184.98"/>
</a>
</g>
</g>
<!-- Node4 -->
<g id="Node000004" class="node">
<title>Node4</title>
<g id="a_Node000004"><a xlink:title=" ">
<polygon fill="#e0e0e0" stroke="#999999" points="300.5,-184 212.5,-184 212.5,-165 300.5,-165 300.5,-184"/>
<text text-anchor="middle" x="256.5" y="-172" font-family="Helvetica,sans-Serif" font-size="10.00">freertos/task.h</text>
</a>
</g>
</g>
<!-- Node1&#45;&gt;Node4 -->
<g id="edge3_Node000001_Node000004" class="edge">
<title>Node1&#45;&gt;Node4</title>
<g id="a_edge3_Node000001_Node000004"><a xlink:title=" ">
<path fill="none" stroke="#63b8ff" d="M377.3,-274.85C351.22,-253.41 301.88,-212.82 275.03,-190.74"/>
<polygon fill="#63b8ff" stroke="#63b8ff" points="277.11,-187.92 267.16,-184.27 272.66,-193.33 277.11,-187.92"/>
</a>
</g>
</g>
<!-- Node5 -->
<g id="Node000005" class="node">
<title>Node5</title>
<g id="a_Node000005"><a xlink:title=" ">
<polygon fill="#e0e0e0" stroke="#999999" points="1265,-239 1218,-239 1218,-220 1265,-220 1265,-239"/>
<text text-anchor="middle" x="1241.5" y="-227" font-family="Helvetica,sans-Serif" font-size="10.00">cmath</text>
</a>
</g>
</g>
<!-- Node1&#45;&gt;Node5 -->
<g id="edge4_Node000001_Node000005" class="edge">
<title>Node1&#45;&gt;Node5</title>
<g id="a_edge4_Node000001_Node000005"><a xlink:title=" ">
<path fill="none" stroke="#63b8ff" d="M470.78,-289.15C613.76,-288.37 931.75,-281.65 1207.61,-238.78"/>
<polygon fill="#63b8ff" stroke="#63b8ff" points="1208.49,-242.19 1217.82,-237.18 1207.4,-235.27 1208.49,-242.19"/>
</a>
</g>
</g>
<!-- Node6 -->
<g id="Node000006" class="node">
<title>Node6</title>
<g id="a_Node000006"><a xlink:title=" ">
<polygon fill="#e0e0e0" stroke="#999999" points="376.5,-184 318.5,-184 318.5,-165 376.5,-165 376.5,-184"/>
<text text-anchor="middle" x="347.5" y="-172" font-family="Helvetica,sans-Serif" font-size="10.00">memory</text>
</a>
</g>
</g>
<!-- Node1&#45;&gt;Node6 -->
<g id="edge5_Node000001_Node000006" class="edge">
<title>Node1&#45;&gt;Node6</title>
<g id="a_edge5_Node000001_Node000006"><a xlink:title=" ">
<path fill="none" stroke="#63b8ff" d="M385.55,-274.98C379.57,-265.18 371.85,-251.64 366.5,-239 360.32,-224.41 355.29,-207.15 351.97,-194.31"/>
<polygon fill="#63b8ff" stroke="#63b8ff" points="355.3,-193.2 349.49,-184.34 348.5,-194.89 355.3,-193.2"/>
</a>
</g>
</g>
<!-- Node7 -->
<g id="Node000007" class="node">
<title>Node7</title>
<g id="a_Node000007"><a xlink:title=" ">
<polygon fill="#e0e0e0" stroke="#999999" points="1333.5,-239 1283.5,-239 1283.5,-220 1333.5,-220 1333.5,-239"/>
<text text-anchor="middle" x="1308.5" y="-227" font-family="Helvetica,sans-Serif" font-size="10.00">stdio.h</text>
</a>
</g>
</g>
<!-- Node1&#45;&gt;Node7 -->
<g id="edge6_Node000001_Node000007" class="edge">
<title>Node1&#45;&gt;Node7</title>
<g id="a_edge6_Node000001_Node000007"><a xlink:title=" ">
<path fill="none" stroke="#63b8ff" d="M470.63,-289.48C622.06,-289.38 971.71,-283.94 1273.11,-238.9"/>
<polygon fill="#63b8ff" stroke="#63b8ff" points="1273.99,-242.3 1283.36,-237.35 1272.95,-235.38 1273.99,-242.3"/>
</a>
</g>
</g>
<!-- Node8 -->
<g id="Node000008" class="node">
<title>Node8</title>
<g id="a_Node000008"><a xlink:href="bno08x_8hpp.html" target="_top" xlink:title="High&#45;level C++ driver for the BNO08x 9&#45;axis IMU family.">
<polygon fill="white" stroke="#666666" points="1199.5,-239 1081.5,-239 1081.5,-220 1199.5,-220 1199.5,-239"/>
<text text-anchor="middle" x="1140.5" y="-227" font-family="Helvetica,sans-Serif" font-size="10.00">../../../inc/bno08x.hpp</text>
</a>
</g>
</g>
<!-- Node1&#45;&gt;Node8 -->
<g id="edge7_Node000001_Node000008" class="edge">
<title>Node1&#45;&gt;Node8</title>
<g id="a_edge7_Node000001_Node000008"><a xlink:title=" ">
<path fill="none" stroke="#63b8ff" d="M470.83,-283.01C616.38,-271.6 931.52,-246.89 1071.31,-235.93"/>
<polygon fill="#63b8ff" stroke="#63b8ff" points="1071.78,-239.4 1081.47,-235.13 1071.23,-232.42 1071.78,-239.4"/>
</a>
</g>
</g>
<!-- Node23 -->
<g id="Node000023" class="node">
<title>Node23</title>
<g id="a_Node000023"><a xlink:href="esp32__bno08x__bus_8hpp.html" target="_top" xlink:title="ESP32 I2C communication interface implementation for BNO08x driver.">
<polygon fill="white" stroke="#666666" points="507,-239 376,-239 376,-220 507,-220 507,-239"/>
<text text-anchor="middle" x="441.5" y="-227" font-family="Helvetica,sans-Serif" font-size="10.00">esp32_bno08x_bus.hpp</text>
</a>
</g>
</g>
<!-- Node1&#45;&gt;Node23 -->
<g id="edge27_Node000001_Node000023" class="edge">
<title>Node1&#45;&gt;Node23</title>
<g id="a_edge27_Node000001_Node000023"><a xlink:title=" ">
<path fill="none" stroke="#63b8ff" d="M405.88,-274.84C412.56,-266.52 421.05,-255.96 428.06,-247.23"/>
<polygon fill="#63b8ff" stroke="#63b8ff" points="430.92,-249.25 434.46,-239.27 425.47,-244.87 430.92,-249.25"/>
</a>
</g>
</g>
<!-- Node9 -->
<g id="Node000009" class="node">
<title>Node9</title>
<g id="a_Node000009"><a xlink:href="bno08x__comm__interface_8hpp.html" target="_top" xlink:title="CRTP&#45;based communication interface for the BNO08x IMU family.">
<polygon fill="white" stroke="#666666" points="986.5,-184 828.5,-184 828.5,-165 986.5,-165 986.5,-184"/>
<text text-anchor="middle" x="907.5" y="-172" font-family="Helvetica,sans-Serif" font-size="10.00">bno08x_comm_interface.hpp</text>
</a>
</g>
</g>
<!-- Node8&#45;&gt;Node9 -->
<g id="edge8_Node000008_Node000009" class="edge">
<title>Node8&#45;&gt;Node9</title>
<g id="a_edge8_Node000008_Node000009"><a xlink:title=" ">
<path fill="none" stroke="#63b8ff" d="M1103.06,-219.98C1062.85,-210.84 998.82,-196.27 955.06,-186.32"/>
<polygon fill="#63b8ff" stroke="#63b8ff" points="955.76,-182.89 945.23,-184.08 954.2,-189.71 955.76,-182.89"/>
</a>
</g>
</g>
<!-- Node10 -->
<g id="Node000010" class="node">
<title>Node10</title>
<g id="a_Node000010"><a xlink:title=" ">
<polygon fill="#e0e0e0" stroke="#999999" points="1001.5,-74 951.5,-74 951.5,-55 1001.5,-55 1001.5,-74"/>
<text text-anchor="middle" x="976.5" y="-62" font-family="Helvetica,sans-Serif" font-size="10.00">cstdint</text>
</a>
</g>
</g>
<!-- Node8&#45;&gt;Node10 -->
<g id="edge14_Node000008_Node000010" class="edge">
<title>Node8&#45;&gt;Node10</title>
<g id="a_edge14_Node000008_Node000010"><a xlink:title=" ">
<path fill="none" stroke="#63b8ff" d="M1122.46,-219.9C1106.87,-211.94 1084.29,-199.07 1067.5,-184 1032.91,-152.94 1002.15,-107.3 986.82,-82.71"/>
<polygon fill="#63b8ff" stroke="#63b8ff" points="989.76,-80.81 981.55,-74.11 983.79,-84.47 989.76,-80.81"/>
</a>
</g>
</g>
<!-- Node11 -->
<g id="Node000011" class="node">
<title>Node11</title>
<g id="a_Node000011"><a xlink:href="HcBin_8h.html" target="_top" xlink:title="API Definition for HcBin objects (Hillcrest Binary Files).">
<polygon fill="white" stroke="#666666" points="1124,-74 1051,-74 1051,-55 1124,-55 1124,-74"/>
<text text-anchor="middle" x="1087.5" y="-62" font-family="Helvetica,sans-Serif" font-size="10.00">dfu/HcBin.h</text>
</a>
</g>
</g>
<!-- Node8&#45;&gt;Node11 -->
<g id="edge10_Node000008_Node000011" class="edge">
<title>Node8&#45;&gt;Node11</title>
<g id="a_edge10_Node000008_Node000011"><a xlink:title=" ">
<path fill="none" stroke="#63b8ff" d="M1124.78,-219.9C1111.92,-212.11 1094.19,-199.5 1083.5,-184 1064.34,-156.22 1059.12,-142.93 1066.5,-110 1068.58,-100.74 1072.8,-91.14 1076.93,-83.23"/>
<polygon fill="#63b8ff" stroke="#63b8ff" points="1080.1,-84.72 1081.92,-74.28 1073.99,-81.31 1080.1,-84.72"/>
</a>
</g>
</g>
<!-- Node13 -->
<g id="Node000013" class="node">
<title>Node13</title>
<g id="a_Node000013"><a xlink:title=" ">
<polygon fill="#e0e0e0" stroke="#999999" points="1287.5,-184 1245.5,-184 1245.5,-165 1287.5,-165 1287.5,-184"/>
<text text-anchor="middle" x="1266.5" y="-172" font-family="Helvetica,sans-Serif" font-size="10.00">array</text>
</a>
</g>
</g>
<!-- Node8&#45;&gt;Node13 -->
<g id="edge12_Node000008_Node000013" class="edge">
<title>Node8&#45;&gt;Node13</title>
<g id="a_edge12_Node000008_Node000013"><a xlink:title=" ">
<path fill="none" stroke="#63b8ff" d="M1160.74,-219.98C1181.2,-211.38 1213.03,-197.99 1236.43,-188.15"/>
<polygon fill="#63b8ff" stroke="#63b8ff" points="1238.03,-191.27 1245.89,-184.17 1235.31,-184.82 1238.03,-191.27"/>
</a>
</g>
</g>
<!-- Node14 -->
<g id="Node000014" class="node">
<title>Node14</title>
<g id="a_Node000014"><a xlink:title=" ">
<polygon fill="#e0e0e0" stroke="#999999" points="1359,-184 1306,-184 1306,-165 1359,-165 1359,-184"/>
<text text-anchor="middle" x="1332.5" y="-172" font-family="Helvetica,sans-Serif" font-size="10.00">cstddef</text>
</a>
</g>
</g>
<!-- Node8&#45;&gt;Node14 -->
<g id="edge13_Node000008_Node000014" class="edge">
<title>Node8&#45;&gt;Node14</title>
<g id="a_edge13_Node000008_Node000014"><a xlink:title=" ">
<path fill="none" stroke="#63b8ff" d="M1171.35,-219.98C1205.36,-210.6 1260.02,-195.51 1296.1,-185.55"/>
<polygon fill="#63b8ff" stroke="#63b8ff" points="1297.05,-188.92 1305.75,-182.88 1295.18,-182.17 1297.05,-188.92"/>
</a>
</g>
</g>
<!-- Node15 -->
<g id="Node000015" class="node">
<title>Node15</title>
<g id="a_Node000015"><a xlink:title=" ">
<polygon fill="#e0e0e0" stroke="#999999" points="1202.5,-74 1152.5,-74 1152.5,-55 1202.5,-55 1202.5,-74"/>
<text text-anchor="middle" x="1177.5" y="-62" font-family="Helvetica,sans-Serif" font-size="10.00">cstring</text>
</a>
</g>
</g>
<!-- Node8&#45;&gt;Node15 -->
<g id="edge15_Node000008_Node000015" class="edge">
<title>Node8&#45;&gt;Node15</title>
<g id="a_edge15_Node000008_Node000015"><a xlink:title=" ">
<path fill="none" stroke="#63b8ff" d="M1152.31,-219.98C1170.13,-207.3 1205.13,-183.01 1236.5,-165 1267.87,-146.99 1290.4,-159.72 1309.5,-129 1333.53,-90.35 1259.45,-74.71 1212.69,-68.79"/>
<polygon fill="#63b8ff" stroke="#63b8ff" points="1212.95,-65.3 1202.61,-67.61 1212.13,-72.25 1212.95,-65.3"/>
</a>
</g>
</g>
<!-- Node16 -->
<g id="Node000016" class="node">
<title>Node16</title>
<g id="a_Node000016"><a xlink:title=" ">
<polygon fill="#e0e0e0" stroke="#999999" points="1442,-184 1377,-184 1377,-165 1442,-165 1442,-184"/>
<text text-anchor="middle" x="1409.5" y="-172" font-family="Helvetica,sans-Serif" font-size="10.00">functional</text>
</a>
</g>
</g>
<!-- Node8&#45;&gt;Node16 -->
<g id="edge16_Node000008_Node000016" class="edge">
<title>Node8&#45;&gt;Node16</title>
<g id="a_edge16_Node000008_Node000016"><a xlink:title=" ">
<path fill="none" stroke="#63b8ff" d="M1185.09,-219.96C1228.92,-211.52 1297.99,-198.14 1366.7,-184.35"/>
<polygon fill="#63b8ff" stroke="#63b8ff" points="1367.72,-187.71 1376.83,-182.31 1366.34,-180.85 1367.72,-187.71"/>
</a>
</g>
</g>
<!-- Node17 -->
<g id="Node000017" class="node">
<title>Node17</title>
<g id="a_Node000017"><a xlink:title=" ">
<polygon fill="#e0e0e0" stroke="#999999" points="1523,-184 1460,-184 1460,-165 1523,-165 1523,-184"/>
<text text-anchor="middle" x="1491.5" y="-172" font-family="Helvetica,sans-Serif" font-size="10.00">sh2/sh2.h</text>
</a>
</g>
</g>
<!-- Node8&#45;&gt;Node17 -->
<g id="edge17_Node000008_Node000017" class="edge">
<title>Node8&#45;&gt;Node17</title>
<g id="a_edge17_Node000008_Node000017"><a xlink:title=" ">
<path fill="none" stroke="#63b8ff" d="M1199.73,-221.23C1260.24,-213.53 1357.12,-200.46 1449.57,-184.25"/>
<polygon fill="#63b8ff" stroke="#63b8ff" points="1450.42,-187.66 1459.66,-182.47 1449.2,-180.76 1450.42,-187.66"/>
</a>
</g>
</g>
<!-- Node18 -->
<g id="Node000018" class="node">
<title>Node18</title>
<g id="a_Node000018"><a xlink:title=" ">
<polygon fill="#e0e0e0" stroke="#999999" points="1669.5,-184 1541.5,-184 1541.5,-165 1669.5,-165 1669.5,-184"/>
<text text-anchor="middle" x="1605.5" y="-172" font-family="Helvetica,sans-Serif" font-size="10.00">sh2/sh2_SensorValue.h</text>
</a>
</g>
</g>
<!-- Node8&#45;&gt;Node18 -->
<g id="edge18_Node000008_Node000018" class="edge">
<title>Node8&#45;&gt;Node18</title>
<g id="a_edge18_Node000008_Node000018"><a xlink:title=" ">
<path fill="none" stroke="#63b8ff" d="M1199.59,-221.18C1202.94,-220.77 1206.26,-220.38 1209.5,-220 1349.74,-203.55 1387.31,-200.49 1531.31,-184.13"/>
<polygon fill="#63b8ff" stroke="#63b8ff" points="1531.87,-187.59 1541.41,-182.98 1531.08,-180.63 1531.87,-187.59"/>
</a>
</g>
</g>
<!-- Node19 -->
<g id="Node000019" class="node">
<title>Node19</title>
<g id="a_Node000019"><a xlink:title=" ">
<polygon fill="#e0e0e0" stroke="#999999" points="1769,-184 1688,-184 1688,-165 1769,-165 1769,-184"/>
<text text-anchor="middle" x="1728.5" y="-172" font-family="Helvetica,sans-Serif" font-size="10.00">sh2/sh2_err.h</text>
</a>
</g>
</g>
<!-- Node8&#45;&gt;Node19 -->
<g id="edge19_Node000008_Node000019" class="edge">
<title>Node8&#45;&gt;Node19</title>
<g id="a_edge19_Node000008_Node000019"><a xlink:title=" ">
<path fill="none" stroke="#63b8ff" d="M1199.58,-221.04C1202.93,-220.67 1206.26,-220.32 1209.5,-220 1414.27,-199.54 1469.3,-209.23 1677.84,-183.96"/>
<polygon fill="#63b8ff" stroke="#63b8ff" points="1678.39,-187.41 1687.89,-182.72 1677.54,-180.47 1678.39,-187.41"/>
</a>
</g>
</g>
<!-- Node20 -->
<g id="Node000020" class="node">
<title>Node20</title>
<g id="a_Node000020"><a xlink:href="bno08x_8ipp.html" target="_top" xlink:title="Template method implementations for the BNO085 driver class.">
<polygon fill="white" stroke="#666666" points="1189,-184 1092,-184 1092,-165 1189,-165 1189,-184"/>
<text text-anchor="middle" x="1140.5" y="-172" font-family="Helvetica,sans-Serif" font-size="10.00">../src/bno08x.ipp</text>
</a>
</g>
</g>
<!-- Node8&#45;&gt;Node20 -->
<g id="edge20_Node000008_Node000020" class="edge">
<title>Node8&#45;&gt;Node20</title>
<g id="a_edge20_Node000008_Node000020"><a xlink:title=" ">
<path fill="none" stroke="#63b8ff" d="M1135.33,-219.75C1133.84,-212.8 1133.4,-202.85 1134.02,-194.13"/>
<polygon fill="#63b8ff" stroke="#63b8ff" points="1137.51,-194.47 1135.37,-184.09 1130.57,-193.53 1137.51,-194.47"/>
</a>
</g>
</g>
<!-- Node9&#45;&gt;Node10 -->
<g id="edge9_Node000009_Node000010" class="edge">
<title>Node9&#45;&gt;Node10</title>
<g id="a_edge9_Node000009_Node000010"><a xlink:title=" ">
<path fill="none" stroke="#63b8ff" d="M913.15,-164.66C924.58,-146.77 950.62,-106 965.52,-82.69"/>
<polygon fill="#63b8ff" stroke="#63b8ff" points="968.53,-84.47 970.97,-74.16 962.63,-80.7 968.53,-84.47"/>
</a>
</g>
</g>
<!-- Node12 -->
<g id="Node000012" class="node">
<title>Node12</title>
<g id="a_Node000012"><a xlink:title=" ">
<polygon fill="#e0e0e0" stroke="#999999" points="1114,-19 1061,-19 1061,0 1114,0 1114,-19"/>
<text text-anchor="middle" x="1087.5" y="-7" font-family="Helvetica,sans-Serif" font-size="10.00">stdint.h</text>
</a>
</g>
</g>
<!-- Node11&#45;&gt;Node12 -->
<g id="edge11_Node000011_Node000012" class="edge">
<title>Node11&#45;&gt;Node12</title>
<g id="a_edge11_Node000011_Node000012"><a xlink:title=" ">
<path fill="none" stroke="#63b8ff" d="M1087.5,-54.75C1087.5,-47.8 1087.5,-37.85 1087.5,-29.13"/>
<polygon fill="#63b8ff" stroke="#63b8ff" points="1091,-29.09 1087.5,-19.09 1084,-29.09 1091,-29.09"/>
</a>
</g>
</g>
<!-- Node20&#45;&gt;Node8 -->
<g id="edge21_Node000020_Node000008" class="edge">
<title>Node20&#45;&gt;Node8</title>
<g id="a_edge21_Node000020_Node000008"><a xlink:title=" ">
<path fill="none" stroke="#63b8ff" d="M1145.63,-184.09C1147.14,-190.99 1147.59,-200.93 1146.99,-209.66"/>
<polygon fill="#63b8ff" stroke="#63b8ff" points="1143.5,-209.38 1145.67,-219.75 1150.44,-210.29 1143.5,-209.38"/>
</a>
</g>
</g>
<!-- Node21 -->
<g id="Node000021" class="node">
<title>Node21</title>
<g id="a_Node000021"><a xlink:title=" ">
<polygon fill="#e0e0e0" stroke="#999999" points="1300.5,-129 1236.5,-129 1236.5,-110 1300.5,-110 1300.5,-129"/>
<text text-anchor="middle" x="1268.5" y="-117" font-family="Helvetica,sans-Serif" font-size="10.00">algorithm</text>
</a>
</g>
</g>
<!-- Node20&#45;&gt;Node21 -->
<g id="edge22_Node000020_Node000021" class="edge">
<title>Node20&#45;&gt;Node21</title>
<g id="a_edge22_Node000020_Node000021"><a xlink:title=" ">
<path fill="none" stroke="#63b8ff" d="M1161.07,-164.98C1181.93,-156.34 1214.47,-142.87 1238.27,-133.02"/>
<polygon fill="#63b8ff" stroke="#63b8ff" points="1239.66,-136.23 1247.56,-129.17 1236.98,-129.76 1239.66,-136.23"/>
</a>
</g>
</g>
<!-- Node22 -->
<g id="Node000022" class="node">
<title>Node22</title>
<g id="a_Node000022"><a xlink:href="MemoryFirmware_8hpp.html" target="_top" xlink:title=" ">
<polygon fill="white" stroke="#666666" points="1218,-129 1075,-129 1075,-110 1218,-110 1218,-129"/>
<text text-anchor="middle" x="1146.5" y="-117" font-family="Helvetica,sans-Serif" font-size="10.00">dfu/MemoryFirmware.hpp</text>
</a>
</g>
</g>
<!-- Node20&#45;&gt;Node22 -->
<g id="edge23_Node000020_Node000022" class="edge">
<title>Node20&#45;&gt;Node22</title>
<g id="a_edge23_Node000020_Node000022"><a xlink:title=" ">
<path fill="none" stroke="#63b8ff" d="M1141.49,-164.75C1142.28,-157.8 1143.4,-147.85 1144.39,-139.13"/>
<polygon fill="#63b8ff" stroke="#63b8ff" points="1147.88,-139.42 1145.53,-129.09 1140.92,-138.63 1147.88,-139.42"/>
</a>
</g>
</g>
<!-- Node22&#45;&gt;Node10 -->
<g id="edge25_Node000022_Node000010" class="edge">
<title>Node22&#45;&gt;Node10</title>
<g id="a_edge25_Node000022_Node000010"><a xlink:title=" ">
<path fill="none" stroke="#63b8ff" d="M1119.19,-109.98C1089.88,-100.85 1043.26,-86.31 1011.34,-76.36"/>
<polygon fill="#63b8ff" stroke="#63b8ff" points="1012.12,-72.94 1001.53,-73.3 1010.03,-79.62 1012.12,-72.94"/>
</a>
</g>
</g>
<!-- Node22&#45;&gt;Node11 -->
<g id="edge24_Node000022_Node000011" class="edge">
<title>Node22&#45;&gt;Node11</title>
<g id="a_edge24_Node000022_Node000011"><a xlink:title=" ">
<path fill="none" stroke="#63b8ff" d="M1137.02,-109.98C1128.3,-102.15 1115.16,-90.34 1104.6,-80.86"/>
<polygon fill="#63b8ff" stroke="#63b8ff" points="1106.93,-78.25 1097.15,-74.17 1102.25,-83.46 1106.93,-78.25"/>
</a>
</g>
</g>
<!-- Node22&#45;&gt;Node15 -->
<g id="edge26_Node000022_Node000015" class="edge">
<title>Node22&#45;&gt;Node15</title>
<g id="a_edge26_Node000022_Node000015"><a xlink:title=" ">
<path fill="none" stroke="#63b8ff" d="M1151.62,-109.75C1155.86,-102.49 1162.03,-91.95 1167.28,-82.98"/>
<polygon fill="#63b8ff" stroke="#63b8ff" points="1170.45,-84.49 1172.48,-74.09 1164.41,-80.95 1170.45,-84.49"/>
</a>
</g>
</g>
<!-- Node23&#45;&gt;Node2 -->
<g id="edge33_Node000023_Node000002" class="edge">
<title>Node23&#45;&gt;Node2</title>
<g id="a_edge33_Node000023_Node000002"><a xlink:title=" ">
<path fill="none" stroke="#63b8ff" d="M375.75,-222.39C303.74,-215.29 184.68,-202.38 73.38,-184.19"/>
<polygon fill="#63b8ff" stroke="#63b8ff" points="73.76,-180.71 63.33,-182.53 72.62,-187.62 73.76,-180.71"/>
</a>
</g>
</g>
<!-- Node23&#45;&gt;Node3 -->
<g id="edge35_Node000023_Node000003" class="edge">
<title>Node23&#45;&gt;Node3</title>
<g id="a_edge35_Node000023_Node000003"><a xlink:title=" ">
<path fill="none" stroke="#63b8ff" d="M392.66,-219.98C339.22,-210.67 253.58,-195.74 196.44,-185.78"/>
<polygon fill="#63b8ff" stroke="#63b8ff" points="196.93,-182.31 186.47,-184.04 195.72,-189.2 196.93,-182.31"/>
</a>
</g>
</g>
<!-- Node23&#45;&gt;Node4 -->
<g id="edge36_Node000023_Node000004" class="edge">
<title>Node23&#45;&gt;Node4</title>
<g id="a_edge36_Node000023_Node000004"><a xlink:title=" ">
<path fill="none" stroke="#63b8ff" d="M411.78,-219.98C380.45,-211.01 330.93,-196.82 296.26,-186.89"/>
<polygon fill="#63b8ff" stroke="#63b8ff" points="297.03,-183.47 286.46,-184.08 295.11,-190.2 297.03,-183.47"/>
</a>
</g>
</g>
<!-- Node23&#45;&gt;Node6 -->
<g id="edge29_Node000023_Node000006" class="edge">
<title>Node23&#45;&gt;Node6</title>
<g id="a_edge29_Node000023_Node000006"><a xlink:title=" ">
<path fill="none" stroke="#63b8ff" d="M426.4,-219.98C411.68,-211.69 389.08,-198.94 371.83,-189.22"/>
<polygon fill="#63b8ff" stroke="#63b8ff" points="373.31,-186.03 362.88,-184.17 369.87,-192.13 373.31,-186.03"/>
</a>
</g>
</g>
<!-- Node23&#45;&gt;Node9 -->
<g id="edge37_Node000023_Node000009" class="edge">
<title>Node23&#45;&gt;Node9</title>
<g id="a_edge37_Node000023_Node000009"><a xlink:title=" ">
<path fill="none" stroke="#63b8ff" d="M507.28,-221.02C589.86,-211.63 731.67,-195.5 822.43,-185.18"/>
<polygon fill="#63b8ff" stroke="#63b8ff" points="822.88,-188.65 832.42,-184.04 822.08,-181.69 822.88,-188.65"/>
</a>
</g>
</g>
<!-- Node23&#45;&gt;Node10 -->
<g id="edge28_Node000023_Node000010" class="edge">
<title>Node23&#45;&gt;Node10</title>
<g id="a_edge28_Node000023_Node000010"><a xlink:title=" ">
<path fill="none" stroke="#63b8ff" d="M507.27,-227.89C577.15,-225.43 689.96,-216.19 781.5,-184 800.07,-177.47 907.34,-109.65 954.39,-79.65"/>
<polygon fill="#63b8ff" stroke="#63b8ff" points="956.41,-82.51 962.95,-74.18 952.64,-76.61 956.41,-82.51"/>
</a>
</g>
</g>
<!-- Node24 -->
<g id="Node000024" class="node">
<title>Node24</title>
<g id="a_Node000024"><a xlink:title=" ">
<polygon fill="#e0e0e0" stroke="#999999" points="644.5,-184 566.5,-184 566.5,-165 644.5,-165 644.5,-184"/>
<text text-anchor="middle" x="605.5" y="-172" font-family="Helvetica,sans-Serif" font-size="10.00">driver/gpio.h</text>
</a>
</g>
</g>
<!-- Node23&#45;&gt;Node24 -->
<g id="edge30_Node000023_Node000024" class="edge">
<title>Node23&#45;&gt;Node24</title>
<g id="a_edge30_Node000023_Node000024"><a xlink:title=" ">
<path fill="none" stroke="#63b8ff" d="M467.85,-219.98C495.26,-211.13 538.39,-197.19 569.06,-187.28"/>
<polygon fill="#63b8ff" stroke="#63b8ff" points="570.5,-190.49 578.94,-184.08 568.35,-183.83 570.5,-190.49"/>
</a>
</g>
</g>
<!-- Node25 -->
<g id="Node000025" class="node">
<title>Node25</title>
<g id="a_Node000025"><a xlink:title=" ">
<polygon fill="#e0e0e0" stroke="#999999" points="772.5,-184 662.5,-184 662.5,-165 772.5,-165 772.5,-184"/>
<text text-anchor="middle" x="717.5" y="-172" font-family="Helvetica,sans-Serif" font-size="10.00">driver/i2c_master.h</text>
</a>
</g>
</g>
<!-- Node23&#45;&gt;Node25 -->
<g id="edge31_Node000023_Node000025" class="edge">
<title>Node23&#45;&gt;Node25</title>
<g id="a_edge31_Node000023_Node000025"><a xlink:title=" ">
<path fill="none" stroke="#63b8ff" d="M485.84,-219.98C533.99,-210.74 610.92,-195.97 662.79,-186.01"/>
<polygon fill="#63b8ff" stroke="#63b8ff" points="663.65,-189.41 672.81,-184.08 662.33,-182.53 663.65,-189.41"/>
</a>
</g>
</g>
<!-- Node26 -->
<g id="Node000026" class="node">
<title>Node26</title>
<g id="a_Node000026"><a xlink:title=" ">
<polygon fill="#e0e0e0" stroke="#999999" points="456,-184 395,-184 395,-165 456,-165 456,-184"/>
<text text-anchor="middle" x="425.5" y="-172" font-family="Helvetica,sans-Serif" font-size="10.00">esp_err.h</text>
</a>
</g>
</g>
<!-- Node23&#45;&gt;Node26 -->
<g id="edge32_Node000023_Node000026" class="edge">
<title>Node23&#45;&gt;Node26</title>
<g id="a_edge32_Node000023_Node000026"><a xlink:title=" ">
<path fill="none" stroke="#63b8ff" d="M438.86,-219.75C436.74,-212.72 433.69,-202.62 431.04,-193.84"/>
<polygon fill="#63b8ff" stroke="#63b8ff" points="434.33,-192.65 428.09,-184.09 427.63,-194.67 434.33,-192.65"/>
</a>
</g>
</g>
<!-- Node27 -->
<g id="Node000027" class="node">
<title>Node27</title>
<g id="a_Node000027"><a xlink:title=" ">
<polygon fill="#e0e0e0" stroke="#999999" points="548.5,-184 474.5,-184 474.5,-165 548.5,-165 548.5,-184"/>
<text text-anchor="middle" x="511.5" y="-172" font-family="Helvetica,sans-Serif" font-size="10.00">esp_timer.h</text>
</a>
</g>
</g>
<!-- Node23&#45;&gt;Node27 -->
<g id="edge34_Node000023_Node000027" class="edge">
<title>Node23&#45;&gt;Node27</title>
<g id="a_edge34_Node000023_Node000027"><a xlink:title=" ">
<path fill="none" stroke="#63b8ff" d="M452.75,-219.98C463.3,-212 479.3,-199.88 491.94,-190.31"/>
<polygon fill="#63b8ff" stroke="#63b8ff" points="494.19,-193 500.05,-184.17 489.96,-187.42 494.19,-193"/>
</a>
</g>
</g>
</g>
</svg>
