<?xml version="1.0" encoding="UTF-8" standalone="no"?>
<!DOCTYPE svg PUBLIC "-//W3C//DTD SVG 1.1//EN"
 "http://www.w3.org/Graphics/SVG/1.1/DTD/svg11.dtd">
<!-- Generated by graphviz version 2.43.0 (0)
 -->
<!-- Title: examples/esp32/main/DriverIntegrationTest.cpp Pages: 1 -->
<svg width="1653pt" height="258pt"
 viewBox="0.00 0.00 1653.00 258.00" xmlns="http://www.w3.org/2000/svg" xmlns:xlink="http://www.w3.org/1999/xlink">
<g id="graph0" class="graph" transform="scale(1 1) rotate(0) translate(4 254)">
<title>examples/esp32/main/DriverIntegrationTest.cpp</title>
<!-- Node1 -->
<g id="Node000001" class="node">
<title>Node1</title>
<g id="a_Node000001"><a xlink:title="Comprehensive Integration Test Suite for BNO08x Driver.">
<polygon fill="#999999" stroke="#666666" points="1335.5,-250 1192.5,-250 1192.5,-220 1335.5,-220 1335.5,-250"/>
<text text-anchor="start" x="1200.5" y="-238" font-family="Helvetica,sans-Serif" font-size="10.00">examples/esp32/main</text>
<text text-anchor="middle" x="1264" y="-227" font-family="Helvetica,sans-Serif" font-size="10.00">/DriverIntegrationTest.cpp</text>
</a>
</g>
</g>
<!-- Node2 -->
<g id="Node000002" class="node">
<title>Node2</title>
<g id="a_Node000002"><a xlink:title=" ">
<polygon fill="#e0e0e0" stroke="#999999" points="1078.5,-129 1015.5,-129 1015.5,-110 1078.5,-110 1078.5,-129"/>
<text text-anchor="middle" x="1047" y="-117" font-family="Helvetica,sans-Serif" font-size="10.00">esp_log.h</text>
</a>
</g>
</g>
<!-- Node1&#45;&gt;Node2 -->
<g id="edge1_Node000001_Node000002" class="edge">
<title>Node1&#45;&gt;Node2</title>
<g id="a_edge1_Node000001_Node000002"><a xlink:title=" ">
<path fill="none" stroke="#63b8ff" d="M1213.82,-219.96C1187.13,-211.45 1154.28,-199.28 1127,-184 1103.24,-170.7 1079.2,-150.5 1063.76,-136.48"/>
<polygon fill="#63b8ff" stroke="#63b8ff" points="1065.84,-133.63 1056.13,-129.4 1061.08,-138.76 1065.84,-133.63"/>
</a>
</g>
</g>
<!-- Node3 -->
<g id="Node000003" class="node">
<title>Node3</title>
<g id="a_Node000003"><a xlink:title=" ">
<polygon fill="#e0e0e0" stroke="#999999" points="1414,-184 1330,-184 1330,-165 1414,-165 1414,-184"/>
<text text-anchor="middle" x="1372" y="-172" font-family="Helvetica,sans-Serif" font-size="10.00">esp_system.h</text>
</a>
</g>
</g>
<!-- Node1&#45;&gt;Node3 -->
<g id="edge2_Node000001_Node000003" class="edge">
<title>Node1&#45;&gt;Node3</title>
<g id="a_edge2_Node000001_Node000003"><a xlink:title=" ">
<path fill="none" stroke="#63b8ff" d="M1289.87,-219.99C1307.24,-210.58 1330.01,-198.24 1347.17,-188.95"/>
<polygon fill="#63b8ff" stroke="#63b8ff" points="1348.92,-191.98 1356.05,-184.14 1345.59,-185.82 1348.92,-191.98"/>
</a>
</g>
</g>
<!-- Node4 -->
<g id="Node000004" class="node">
<title>Node4</title>
<g id="a_Node000004"><a xlink:title=" ">
<polygon fill="#e0e0e0" stroke="#999999" points="1538.5,-129 1425.5,-129 1425.5,-110 1538.5,-110 1538.5,-129"/>
<text text-anchor="middle" x="1482" y="-117" font-family="Helvetica,sans-Serif" font-size="10.00">freertos/FreeRTOS.h</text>
</a>
</g>
</g>
<!-- Node1&#45;&gt;Node4 -->
<g id="edge3_Node000001_Node000004" class="edge">
<title>Node1&#45;&gt;Node4</title>
<g id="a_edge3_Node000001_Node000004"><a xlink:title=" ">
<path fill="none" stroke="#63b8ff" d="M1264.97,-219.91C1266.82,-204.19 1272.23,-179.14 1288,-165 1298.21,-155.85 1370.38,-140.93 1423.72,-130.92"/>
<polygon fill="#63b8ff" stroke="#63b8ff" points="1424.59,-134.32 1433.78,-129.05 1423.31,-127.44 1424.59,-134.32"/>
</a>
</g>
</g>
<!-- Node5 -->
<g id="Node000005" class="node">
<title>Node5</title>
<g id="a_Node000005"><a xlink:title=" ">
<polygon fill="#e0e0e0" stroke="#999999" points="1645,-129 1557,-129 1557,-110 1645,-110 1645,-129"/>
<text text-anchor="middle" x="1601" y="-117" font-family="Helvetica,sans-Serif" font-size="10.00">freertos/task.h</text>
</a>
</g>
</g>
<!-- Node1&#45;&gt;Node5 -->
<g id="edge4_Node000001_Node000005" class="edge">
<title>Node1&#45;&gt;Node5</title>
<g id="a_edge4_Node000001_Node000005"><a xlink:title=" ">
<path fill="none" stroke="#63b8ff" d="M1271.54,-219.73C1280.87,-203.61 1298.33,-177.94 1321,-165 1406.94,-115.93 1444.74,-143.25 1546.68,-129.1"/>
<polygon fill="#63b8ff" stroke="#63b8ff" points="1547.38,-132.54 1556.75,-127.6 1546.35,-125.62 1547.38,-132.54"/>
</a>
</g>
</g>
<!-- Node6 -->
<g id="Node000006" class="node">
<title>Node6</title>
<g id="a_Node000006"><a xlink:title=" ">
<polygon fill="#e0e0e0" stroke="#999999" points="1490,-184 1432,-184 1432,-165 1490,-165 1490,-184"/>
<text text-anchor="middle" x="1461" y="-172" font-family="Helvetica,sans-Serif" font-size="10.00">memory</text>
</a>
</g>
</g>
<!-- Node1&#45;&gt;Node6 -->
<g id="edge5_Node000001_Node000006" class="edge">
<title>Node1&#45;&gt;Node6</title>
<g id="a_edge5_Node000001_Node000006"><a xlink:title=" ">
<path fill="none" stroke="#63b8ff" d="M1311.19,-219.99C1345.18,-209.89 1390.5,-196.44 1422.36,-186.98"/>
<polygon fill="#63b8ff" stroke="#63b8ff" points="1423.61,-190.26 1432.2,-184.05 1421.61,-183.55 1423.61,-190.26"/>
</a>
</g>
</g>
<!-- Node7 -->
<g id="Node000007" class="node">
<title>Node7</title>
<g id="a_Node000007"><a xlink:title=" ">
<polygon fill="#e0e0e0" stroke="#999999" points="1558,-184 1508,-184 1508,-165 1558,-165 1558,-184"/>
<text text-anchor="middle" x="1533" y="-172" font-family="Helvetica,sans-Serif" font-size="10.00">stdio.h</text>
</a>
</g>
</g>
<!-- Node1&#45;&gt;Node7 -->
<g id="edge6_Node000001_Node000007" class="edge">
<title>Node1&#45;&gt;Node7</title>
<g id="a_edge6_Node000001_Node000007"><a xlink:title=" ">
<path fill="none" stroke="#63b8ff" d="M1333.04,-219.98C1377.56,-210.78 1436.93,-198.23 1497.96,-184.18"/>
<polygon fill="#63b8ff" stroke="#63b8ff" points="1498.82,-187.57 1507.77,-181.91 1497.24,-180.75 1498.82,-187.57"/>
</a>
</g>
</g>
<!-- Node8 -->
<g id="Node000008" class="node">
<title>Node8</title>
<g id="a_Node000008"><a xlink:href="BNO085_8hpp.html" target="_top" xlink:title="High level C++ interface for the BNO08x IMU family.">
<polygon fill="white" stroke="#666666" points="505,-184 383,-184 383,-165 505,-165 505,-184"/>
<text text-anchor="middle" x="444" y="-172" font-family="Helvetica,sans-Serif" font-size="10.00">../../../inc/BNO085.hpp</text>
</a>
</g>
</g>
<!-- Node1&#45;&gt;Node8 -->
<g id="edge7_Node000001_Node000008" class="edge">
<title>Node1&#45;&gt;Node8</title>
<g id="a_edge7_Node000001_Node000008"><a xlink:title=" ">
<path fill="none" stroke="#63b8ff" d="M1192.31,-228.89C1036.96,-217.8 670.78,-191.68 515.55,-180.6"/>
<polygon fill="#63b8ff" stroke="#63b8ff" points="515.42,-177.09 505.19,-179.87 514.92,-184.07 515.42,-177.09"/>
</a>
</g>
</g>
<!-- Node20 -->
<g id="Node000020" class="node">
<title>Node20</title>
<g id="a_Node000020"><a xlink:href="Esp32Bno08xBus_8hpp.html" target="_top" xlink:title="ESP32 I2C transport implementation for BNO08x driver.">
<polygon fill="white" stroke="#666666" points="1019,-184 897,-184 897,-165 1019,-165 1019,-184"/>
<text text-anchor="middle" x="958" y="-172" font-family="Helvetica,sans-Serif" font-size="10.00">Esp32Bno08xBus.hpp</text>
</a>
</g>
</g>
<!-- Node1&#45;&gt;Node20 -->
<g id="edge22_Node000001_Node000020" class="edge">
<title>Node1&#45;&gt;Node20</title>
<g id="a_edge22_Node000001_Node000020"><a xlink:title=" ">
<path fill="none" stroke="#63b8ff" d="M1192.26,-220.28C1137.39,-209.79 1062.88,-195.55 1012.75,-185.97"/>
<polygon fill="#63b8ff" stroke="#63b8ff" points="1013.24,-182.5 1002.76,-184.06 1011.92,-189.37 1013.24,-182.5"/>
</a>
</g>
</g>
<!-- Node24 -->
<g id="Node000024" class="node">
<title>Node24</title>
<g id="a_Node000024"><a xlink:href="TestFramework_8h.html" target="_top" xlink:title="Shared testing framework for ESP32&#45;C6 comprehensive test suites.">
<polygon fill="white" stroke="#666666" points="1236,-184 1136,-184 1136,-165 1236,-165 1236,-184"/>
<text text-anchor="middle" x="1186" y="-172" font-family="Helvetica,sans-Serif" font-size="10.00">TestFramework.h</text>
</a>
</g>
</g>
<!-- Node1&#45;&gt;Node24 -->
<g id="edge29_Node000001_Node000024" class="edge">
<title>Node1&#45;&gt;Node24</title>
<g id="a_edge29_Node000001_Node000024"><a xlink:title=" ">
<path fill="none" stroke="#63b8ff" d="M1245.12,-219.84C1233.22,-210.91 1217.88,-199.41 1205.8,-190.35"/>
<polygon fill="#63b8ff" stroke="#63b8ff" points="1207.79,-187.47 1197.69,-184.27 1203.59,-193.07 1207.79,-187.47"/>
</a>
</g>
</g>
<!-- Node9 -->
<g id="Node000009" class="node">
<title>Node9</title>
<g id="a_Node000009"><a xlink:href="BNO085__Transport_8hpp.html" target="_top" xlink:title="Abstract transport interface for communicating with the BNO085.">
<polygon fill="white" stroke="#666666" points="773,-129 645,-129 645,-110 773,-110 773,-129"/>
<text text-anchor="middle" x="709" y="-117" font-family="Helvetica,sans-Serif" font-size="10.00">BNO085_Transport.hpp</text>
</a>
</g>
</g>
<!-- Node8&#45;&gt;Node9 -->
<g id="edge8_Node000008_Node000009" class="edge">
<title>Node8&#45;&gt;Node9</title>
<g id="a_edge8_Node000008_Node000009"><a xlink:title=" ">
<path fill="none" stroke="#63b8ff" d="M486.58,-164.98C532.7,-155.76 606.36,-141.03 656.16,-131.07"/>
<polygon fill="#63b8ff" stroke="#63b8ff" points="656.97,-134.48 666.09,-129.08 655.6,-127.61 656.97,-134.48"/>
</a>
</g>
</g>
<!-- Node10 -->
<g id="Node000010" class="node">
<title>Node10</title>
<g id="a_Node000010"><a xlink:title=" ">
<polygon fill="#e0e0e0" stroke="#999999" points="734,-74 684,-74 684,-55 734,-55 734,-74"/>
<text text-anchor="middle" x="709" y="-62" font-family="Helvetica,sans-Serif" font-size="10.00">cstdint</text>
</a>
</g>
</g>
<!-- Node8&#45;&gt;Node10 -->
<g id="edge18_Node000008_Node000010" class="edge">
<title>Node8&#45;&gt;Node10</title>
<g id="a_edge18_Node000008_Node000010"><a xlink:title=" ">
<path fill="none" stroke="#63b8ff" d="M472.69,-164.92C499.67,-156.6 541.04,-143.18 576,-129 614.22,-113.5 657.05,-92.34 683.52,-78.8"/>
<polygon fill="#63b8ff" stroke="#63b8ff" points="685.2,-81.86 692.49,-74.18 682,-75.64 685.2,-81.86"/>
</a>
</g>
</g>
<!-- Node11 -->
<g id="Node000011" class="node">
<title>Node11</title>
<g id="a_Node000011"><a xlink:href="HcBin_8h.html" target="_top" xlink:title="API Definition for HcBin objects (Hillcrest Binary Files).">
<polygon fill="white" stroke="#666666" points="543.5,-74 470.5,-74 470.5,-55 543.5,-55 543.5,-74"/>
<text text-anchor="middle" x="507" y="-62" font-family="Helvetica,sans-Serif" font-size="10.00">dfu/HcBin.h</text>
</a>
</g>
</g>
<!-- Node8&#45;&gt;Node11 -->
<g id="edge10_Node000008_Node000011" class="edge">
<title>Node8&#45;&gt;Node11</title>
<g id="a_edge10_Node000008_Node000011"><a xlink:title=" ">
<path fill="none" stroke="#63b8ff" d="M503.47,-164.98C524.93,-158.71 547.05,-147.84 560,-129 572.42,-110.94 551.19,-91.84 532.02,-79.37"/>
<polygon fill="#63b8ff" stroke="#63b8ff" points="533.84,-76.38 523.49,-74.13 530.18,-82.34 533.84,-76.38"/>
</a>
</g>
</g>
<!-- Node13 -->
<g id="Node000013" class="node">
<title>Node13</title>
<g id="a_Node000013"><a xlink:href="firmware_8h.html" target="_top" xlink:title=" ">
<polygon fill="white" stroke="#666666" points="551,-129 463,-129 463,-110 551,-110 551,-129"/>
<text text-anchor="middle" x="507" y="-117" font-family="Helvetica,sans-Serif" font-size="10.00">dfu/firmware.h</text>
</a>
</g>
</g>
<!-- Node8&#45;&gt;Node13 -->
<g id="edge12_Node000008_Node000013" class="edge">
<title>Node8&#45;&gt;Node13</title>
<g id="a_edge12_Node000008_Node000013"><a xlink:title=" ">
<path fill="none" stroke="#63b8ff" d="M454.12,-164.98C463.44,-157.15 477.47,-145.34 488.74,-135.86"/>
<polygon fill="#63b8ff" stroke="#63b8ff" points="491.29,-138.29 496.69,-129.17 486.79,-132.93 491.29,-138.29"/>
</a>
</g>
</g>
<!-- Node14 -->
<g id="Node000014" class="node">
<title>Node14</title>
<g id="a_Node000014"><a xlink:href="Rvc_8hpp.html" target="_top" xlink:title=" ">
<polygon fill="white" stroke="#666666" points="74,-129 0,-129 0,-110 74,-110 74,-129"/>
<text text-anchor="middle" x="37" y="-117" font-family="Helvetica,sans-Serif" font-size="10.00">rvc/Rvc.hpp</text>
</a>
</g>
</g>
<!-- Node8&#45;&gt;Node14 -->
<g id="edge14_Node000008_Node000014" class="edge">
<title>Node8&#45;&gt;Node14</title>
<g id="a_edge14_Node000008_Node000014"><a xlink:title=" ">
<path fill="none" stroke="#63b8ff" d="M382.85,-167.09C313.03,-159.53 195.17,-145.98 84.16,-129.1"/>
<polygon fill="#63b8ff" stroke="#63b8ff" points="84.54,-125.61 74.12,-127.56 83.48,-132.53 84.54,-125.61"/>
</a>
</g>
</g>
<!-- Node16 -->
<g id="Node000016" class="node">
<title>Node16</title>
<g id="a_Node000016"><a xlink:title=" ">
<polygon fill="#e0e0e0" stroke="#999999" points="134,-129 92,-129 92,-110 134,-110 134,-129"/>
<text text-anchor="middle" x="113" y="-117" font-family="Helvetica,sans-Serif" font-size="10.00">array</text>
</a>
</g>
</g>
<!-- Node8&#45;&gt;Node16 -->
<g id="edge17_Node000008_Node000016" class="edge">
<title>Node8&#45;&gt;Node16</title>
<g id="a_edge17_Node000008_Node000016"><a xlink:title=" ">
<path fill="none" stroke="#63b8ff" d="M382.76,-166.8C323.86,-159.83 232.17,-147.58 144.11,-129"/>
<polygon fill="#63b8ff" stroke="#63b8ff" points="144.73,-125.55 134.22,-126.88 143.27,-132.4 144.73,-125.55"/>
</a>
</g>
</g>
<!-- Node17 -->
<g id="Node000017" class="node">
<title>Node17</title>
<g id="a_Node000017"><a xlink:title=" ">
<polygon fill="#e0e0e0" stroke="#999999" points="217.5,-129 152.5,-129 152.5,-110 217.5,-110 217.5,-129"/>
<text text-anchor="middle" x="185" y="-117" font-family="Helvetica,sans-Serif" font-size="10.00">functional</text>
</a>
</g>
</g>
<!-- Node8&#45;&gt;Node17 -->
<g id="edge19_Node000008_Node000017" class="edge">
<title>Node8&#45;&gt;Node17</title>
<g id="a_edge19_Node000008_Node000017"><a xlink:title=" ">
<path fill="none" stroke="#63b8ff" d="M401.79,-164.92C360.02,-156.43 293.95,-142.97 227.85,-129.38"/>
<polygon fill="#63b8ff" stroke="#63b8ff" points="228.17,-125.87 217.67,-127.28 226.76,-132.73 228.17,-125.87"/>
</a>
</g>
</g>
<!-- Node18 -->
<g id="Node000018" class="node">
<title>Node18</title>
<g id="a_Node000018"><a xlink:title=" ">
<polygon fill="#e0e0e0" stroke="#999999" points="298.5,-129 235.5,-129 235.5,-110 298.5,-110 298.5,-129"/>
<text text-anchor="middle" x="267" y="-117" font-family="Helvetica,sans-Serif" font-size="10.00">sh2/sh2.h</text>
</a>
</g>
</g>
<!-- Node8&#45;&gt;Node18 -->
<g id="edge20_Node000008_Node000018" class="edge">
<title>Node8&#45;&gt;Node18</title>
<g id="a_edge20_Node000008_Node000018"><a xlink:title=" ">
<path fill="none" stroke="#63b8ff" d="M415.56,-164.98C385.72,-156.05 338.62,-141.94 305.47,-132.02"/>
<polygon fill="#63b8ff" stroke="#63b8ff" points="306.24,-128.6 295.66,-129.08 304.24,-135.3 306.24,-128.6"/>
</a>
</g>
</g>
<!-- Node19 -->
<g id="Node000019" class="node">
<title>Node19</title>
<g id="a_Node000019"><a xlink:title=" ">
<polygon fill="#e0e0e0" stroke="#999999" points="445,-129 317,-129 317,-110 445,-110 445,-129"/>
<text text-anchor="middle" x="381" y="-117" font-family="Helvetica,sans-Serif" font-size="10.00">sh2/sh2_SensorValue.h</text>
</a>
</g>
</g>
<!-- Node8&#45;&gt;Node19 -->
<g id="edge21_Node000008_Node000019" class="edge">
<title>Node8&#45;&gt;Node19</title>
<g id="a_edge21_Node000008_Node000019"><a xlink:title=" ">
<path fill="none" stroke="#63b8ff" d="M433.88,-164.98C424.56,-157.15 410.53,-145.34 399.26,-135.86"/>
<polygon fill="#63b8ff" stroke="#63b8ff" points="401.21,-132.93 391.31,-129.17 396.71,-138.29 401.21,-132.93"/>
</a>
</g>
</g>
<!-- Node9&#45;&gt;Node10 -->
<g id="edge9_Node000009_Node000010" class="edge">
<title>Node9&#45;&gt;Node10</title>
<g id="a_edge9_Node000009_Node000010"><a xlink:title=" ">
<path fill="none" stroke="#63b8ff" d="M709,-109.75C709,-102.8 709,-92.85 709,-84.13"/>
<polygon fill="#63b8ff" stroke="#63b8ff" points="712.5,-84.09 709,-74.09 705.5,-84.09 712.5,-84.09"/>
</a>
</g>
</g>
<!-- Node12 -->
<g id="Node000012" class="node">
<title>Node12</title>
<g id="a_Node000012"><a xlink:title=" ">
<polygon fill="#e0e0e0" stroke="#999999" points="298.5,-19 245.5,-19 245.5,0 298.5,0 298.5,-19"/>
<text text-anchor="middle" x="272" y="-7" font-family="Helvetica,sans-Serif" font-size="10.00">stdint.h</text>
</a>
</g>
</g>
<!-- Node11&#45;&gt;Node12 -->
<g id="edge11_Node000011_Node000012" class="edge">
<title>Node11&#45;&gt;Node12</title>
<g id="a_edge11_Node000011_Node000012"><a xlink:title=" ">
<path fill="none" stroke="#63b8ff" d="M470.28,-55.22C426.18,-45.27 352.66,-28.69 308.61,-18.76"/>
<polygon fill="#63b8ff" stroke="#63b8ff" points="309.14,-15.29 298.61,-16.5 307.6,-22.12 309.14,-15.29"/>
</a>
</g>
</g>
<!-- Node13&#45;&gt;Node11 -->
<g id="edge13_Node000013_Node000011" class="edge">
<title>Node13&#45;&gt;Node11</title>
<g id="a_edge13_Node000013_Node000011"><a xlink:title=" ">
<path fill="none" stroke="#63b8ff" d="M507,-109.75C507,-102.8 507,-92.85 507,-84.13"/>
<polygon fill="#63b8ff" stroke="#63b8ff" points="510.5,-84.09 507,-74.09 503.5,-84.09 510.5,-84.09"/>
</a>
</g>
</g>
<!-- Node15 -->
<g id="Node000015" class="node">
<title>Node15</title>
<g id="a_Node000015"><a xlink:href="rvc_8h.html" target="_top" xlink:title=" ">
<polygon fill="white" stroke="#666666" points="255.5,-74 214.5,-74 214.5,-55 255.5,-55 255.5,-74"/>
<text text-anchor="middle" x="235" y="-62" font-family="Helvetica,sans-Serif" font-size="10.00">rvc.h</text>
</a>
</g>
</g>
<!-- Node14&#45;&gt;Node15 -->
<g id="edge15_Node000014_Node000015" class="edge">
<title>Node14&#45;&gt;Node15</title>
<g id="a_edge15_Node000014_Node000015"><a xlink:title=" ">
<path fill="none" stroke="#63b8ff" d="M68.81,-109.98C106.28,-99.95 168.07,-83.42 204.82,-73.58"/>
<polygon fill="#63b8ff" stroke="#63b8ff" points="205.72,-76.96 214.48,-70.99 203.91,-70.2 205.72,-76.96"/>
</a>
</g>
</g>
<!-- Node15&#45;&gt;Node12 -->
<g id="edge16_Node000015_Node000012" class="edge">
<title>Node15&#45;&gt;Node12</title>
<g id="a_edge16_Node000015_Node000012"><a xlink:title=" ">
<path fill="none" stroke="#63b8ff" d="M241.11,-54.75C246.28,-47.34 253.85,-36.5 260.19,-27.41"/>
<polygon fill="#63b8ff" stroke="#63b8ff" points="263.15,-29.29 266,-19.09 257.41,-25.29 263.15,-29.29"/>
</a>
</g>
</g>
<!-- Node20&#45;&gt;Node2 -->
<g id="edge26_Node000020_Node000002" class="edge">
<title>Node20&#45;&gt;Node2</title>
<g id="a_edge26_Node000020_Node000002"><a xlink:title=" ">
<path fill="none" stroke="#63b8ff" d="M972.3,-164.98C986.1,-156.77 1007.24,-144.18 1023.51,-134.49"/>
<polygon fill="#63b8ff" stroke="#63b8ff" points="1025.64,-137.29 1032.44,-129.17 1022.06,-131.28 1025.64,-137.29"/>
</a>
</g>
</g>
<!-- Node20&#45;&gt;Node9 -->
<g id="edge23_Node000020_Node000009" class="edge">
<title>Node20&#45;&gt;Node9</title>
<g id="a_edge23_Node000020_Node000009"><a xlink:title=" ">
<path fill="none" stroke="#63b8ff" d="M917.99,-164.98C874.83,-155.8 806.02,-141.15 759.24,-131.19"/>
<polygon fill="#63b8ff" stroke="#63b8ff" points="759.83,-127.74 749.32,-129.08 758.37,-134.59 759.83,-127.74"/>
</a>
</g>
</g>
<!-- Node20&#45;&gt;Node10 -->
<g id="edge28_Node000020_Node000010" class="edge">
<title>Node20&#45;&gt;Node10</title>
<g id="a_edge28_Node000020_Node000010"><a xlink:title=" ">
<path fill="none" stroke="#63b8ff" d="M924.95,-164.93C896.54,-157.08 854.77,-144.35 820,-129 802.65,-121.34 759.02,-95.62 731.91,-79.36"/>
<polygon fill="#63b8ff" stroke="#63b8ff" points="733.46,-76.2 723.08,-74.05 729.85,-82.2 733.46,-76.2"/>
</a>
</g>
</g>
<!-- Node21 -->
<g id="Node000021" class="node">
<title>Node21</title>
<g id="a_Node000021"><a xlink:title=" ">
<polygon fill="#e0e0e0" stroke="#999999" points="997,-129 919,-129 919,-110 997,-110 997,-129"/>
<text text-anchor="middle" x="958" y="-117" font-family="Helvetica,sans-Serif" font-size="10.00">driver/gpio.h</text>
</a>
</g>
</g>
<!-- Node20&#45;&gt;Node21 -->
<g id="edge24_Node000020_Node000021" class="edge">
<title>Node20&#45;&gt;Node21</title>
<g id="a_edge24_Node000020_Node000021"><a xlink:title=" ">
<path fill="none" stroke="#63b8ff" d="M958,-164.75C958,-157.8 958,-147.85 958,-139.13"/>
<polygon fill="#63b8ff" stroke="#63b8ff" points="961.5,-139.09 958,-129.09 954.5,-139.09 961.5,-139.09"/>
</a>
</g>
</g>
<!-- Node22 -->
<g id="Node000022" class="node">
<title>Node22</title>
<g id="a_Node000022"><a xlink:title=" ">
<polygon fill="#e0e0e0" stroke="#999999" points="900.5,-129 829.5,-129 829.5,-110 900.5,-110 900.5,-129"/>
<text text-anchor="middle" x="865" y="-117" font-family="Helvetica,sans-Serif" font-size="10.00">driver/i2c.h</text>
</a>
</g>
</g>
<!-- Node20&#45;&gt;Node22 -->
<g id="edge25_Node000020_Node000022" class="edge">
<title>Node20&#45;&gt;Node22</title>
<g id="a_edge25_Node000020_Node000022"><a xlink:title=" ">
<path fill="none" stroke="#63b8ff" d="M943.06,-164.98C928.5,-156.69 906.13,-143.94 889.07,-134.22"/>
<polygon fill="#63b8ff" stroke="#63b8ff" points="890.64,-131.08 880.21,-129.17 887.17,-137.16 890.64,-131.08"/>
</a>
</g>
</g>
<!-- Node23 -->
<g id="Node000023" class="node">
<title>Node23</title>
<g id="a_Node000023"><a xlink:title=" ">
<polygon fill="#e0e0e0" stroke="#999999" points="1171,-129 1097,-129 1097,-110 1171,-110 1171,-129"/>
<text text-anchor="middle" x="1134" y="-117" font-family="Helvetica,sans-Serif" font-size="10.00">esp_timer.h</text>
</a>
</g>
</g>
<!-- Node20&#45;&gt;Node23 -->
<g id="edge27_Node000020_Node000023" class="edge">
<title>Node20&#45;&gt;Node23</title>
<g id="a_edge27_Node000020_Node000023"><a xlink:title=" ">
<path fill="none" stroke="#63b8ff" d="M986.28,-164.98C1015.95,-156.05 1062.79,-141.94 1095.75,-132.02"/>
<polygon fill="#63b8ff" stroke="#63b8ff" points="1096.93,-135.32 1105.5,-129.08 1094.92,-128.61 1096.93,-135.32"/>
</a>
</g>
</g>
<!-- Node24&#45;&gt;Node2 -->
<g id="edge31_Node000024_Node000002" class="edge">
<title>Node24&#45;&gt;Node2</title>
<g id="a_edge31_Node000024_Node000002"><a xlink:title=" ">
<path fill="none" stroke="#63b8ff" d="M1163.67,-164.98C1140.8,-156.27 1105.04,-142.63 1079.14,-132.75"/>
<polygon fill="#63b8ff" stroke="#63b8ff" points="1080.33,-129.46 1069.74,-129.17 1077.84,-136 1080.33,-129.46"/>
</a>
</g>
</g>
<!-- Node24&#45;&gt;Node4 -->
<g id="edge33_Node000024_Node000004" class="edge">
<title>Node24&#45;&gt;Node4</title>
<g id="a_edge33_Node000024_Node000004"><a xlink:title=" ">
<path fill="none" stroke="#63b8ff" d="M1233.56,-164.98C1285.4,-155.7 1368.39,-140.84 1424.01,-130.88"/>
<polygon fill="#63b8ff" stroke="#63b8ff" points="1424.84,-134.29 1434.07,-129.08 1423.61,-127.4 1424.84,-134.29"/>
</a>
</g>
</g>
<!-- Node24&#45;&gt;Node5 -->
<g id="edge36_Node000024_Node000005" class="edge">
<title>Node24&#45;&gt;Node5</title>
<g id="a_edge36_Node000024_Node000005"><a xlink:title=" ">
<path fill="none" stroke="#63b8ff" d="M1236.14,-167.93C1304.11,-160.24 1429.51,-145.6 1546.56,-129.16"/>
<polygon fill="#63b8ff" stroke="#63b8ff" points="1547.36,-132.58 1556.77,-127.72 1546.38,-125.65 1547.36,-132.58"/>
</a>
</g>
</g>
<!-- Node24&#45;&gt;Node21 -->
<g id="edge30_Node000024_Node000021" class="edge">
<title>Node24&#45;&gt;Node21</title>
<g id="a_edge30_Node000024_Node000021"><a xlink:title=" ">
<path fill="none" stroke="#63b8ff" d="M1149.37,-164.98C1110.09,-155.86 1047.63,-141.33 1004.81,-131.38"/>
<polygon fill="#63b8ff" stroke="#63b8ff" points="1005.45,-127.94 994.92,-129.08 1003.87,-134.76 1005.45,-127.94"/>
</a>
</g>
</g>
<!-- Node24&#45;&gt;Node23 -->
<g id="edge32_Node000024_Node000023" class="edge">
<title>Node24&#45;&gt;Node23</title>
<g id="a_edge32_Node000024_Node000023"><a xlink:title=" ">
<path fill="none" stroke="#63b8ff" d="M1177.41,-164.75C1169.84,-157.03 1158.62,-145.6 1149.49,-136.28"/>
<polygon fill="#63b8ff" stroke="#63b8ff" points="1151.93,-133.78 1142.43,-129.09 1146.93,-138.68 1151.93,-133.78"/>
</a>
</g>
</g>
<!-- Node25 -->
<g id="Node000025" class="node">
<title>Node25</title>
<g id="a_Node000025"><a xlink:title=" ">
<polygon fill="#e0e0e0" stroke="#999999" points="1286.5,-129 1189.5,-129 1189.5,-110 1286.5,-110 1286.5,-129"/>
<text text-anchor="middle" x="1238" y="-117" font-family="Helvetica,sans-Serif" font-size="10.00">freertos/queue.h</text>
</a>
</g>
</g>
<!-- Node24&#45;&gt;Node25 -->
<g id="edge34_Node000024_Node000025" class="edge">
<title>Node24&#45;&gt;Node25</title>
<g id="a_edge34_Node000024_Node000025"><a xlink:title=" ">
<path fill="none" stroke="#63b8ff" d="M1194.59,-164.75C1202.16,-157.03 1213.38,-145.6 1222.51,-136.28"/>
<polygon fill="#63b8ff" stroke="#63b8ff" points="1225.07,-138.68 1229.57,-129.09 1220.07,-133.78 1225.07,-138.68"/>
</a>
</g>
</g>
<!-- Node26 -->
<g id="Node000026" class="node">
<title>Node26</title>
<g id="a_Node000026"><a xlink:title=" ">
<polygon fill="#e0e0e0" stroke="#999999" points="1407.5,-129 1304.5,-129 1304.5,-110 1407.5,-110 1407.5,-129"/>
<text text-anchor="middle" x="1356" y="-117" font-family="Helvetica,sans-Serif" font-size="10.00">freertos/semphr.h</text>
</a>
</g>
</g>
<!-- Node24&#45;&gt;Node26 -->
<g id="edge35_Node000024_Node000026" class="edge">
<title>Node24&#45;&gt;Node26</title>
<g id="a_edge35_Node000024_Node000026"><a xlink:title=" ">
<path fill="none" stroke="#63b8ff" d="M1213.31,-164.98C1241.85,-156.09 1286.83,-142.07 1318.64,-132.15"/>
<polygon fill="#63b8ff" stroke="#63b8ff" points="1319.97,-135.4 1328.47,-129.08 1317.88,-128.72 1319.97,-135.4"/>
</a>
</g>
</g>
</g>
</svg>
