<?xml version="1.0" encoding="UTF-8" standalone="no"?>
<!DOCTYPE svg PUBLIC "-//W3C//DTD SVG 1.1//EN"
 "http://www.w3.org/Graphics/SVG/1.1/DTD/svg11.dtd">
<!-- Generated by graphviz version 2.43.0 (0)
 -->
<!-- Title: src/rvc/rvc.h Pages: 1 -->
<svg width="1023pt" height="225pt"
 viewBox="0.00 0.00 1023.00 225.00" xmlns="http://www.w3.org/2000/svg" xmlns:xlink="http://www.w3.org/1999/xlink">
<g id="graph0" class="graph" transform="scale(1 1) rotate(0) translate(4 221)">
<title>src/rvc/rvc.h</title>
<!-- Node1 -->
<g id="Node000001" class="node">
<title>Node1</title>
<g id="a_Node000001"><a xlink:title=" ">
<polygon fill="#999999" stroke="#666666" points="839,-217 763,-217 763,-198 839,-198 839,-217"/>
<text text-anchor="middle" x="801" y="-205" font-family="Helvetica,sans-Serif" font-size="10.00">src/rvc/rvc.h</text>
</a>
</g>
</g>
<!-- Node2 -->
<g id="Node000002" class="node">
<title>Node2</title>
<g id="a_Node000002"><a xlink:href="Rvc_8hpp.html" target="_top" xlink:title=" ">
<polygon fill="white" stroke="#666666" points="727.5,-162 636.5,-162 636.5,-143 727.5,-143 727.5,-162"/>
<text text-anchor="middle" x="682" y="-150" font-family="Helvetica,sans-Serif" font-size="10.00">src/rvc/Rvc.hpp</text>
</a>
</g>
</g>
<!-- Node1&#45;&gt;Node2 -->
<g id="edge1_Node000001_Node000002" class="edge">
<title>Node1&#45;&gt;Node2</title>
<g id="a_edge1_Node000001_Node000002"><a xlink:title=" ">
<path fill="none" stroke="#63b8ff" d="M772.7,-193.9C750.72,-184.11 720.82,-170.79 701.47,-162.17"/>
<polygon fill="#63b8ff" stroke="#63b8ff" points="771.32,-197.11 781.88,-197.98 774.17,-190.72 771.32,-197.11"/>
</a>
</g>
</g>
<!-- Node11 -->
<g id="Node000011" class="node">
<title>Node11</title>
<g id="a_Node000011"><a xlink:href="RvcHal_8hpp.html" target="_top" xlink:title="CRTP&#45;based hardware abstraction interface for RVC mode.">
<polygon fill="white" stroke="#666666" points="854.5,-162 747.5,-162 747.5,-143 854.5,-143 854.5,-162"/>
<text text-anchor="middle" x="801" y="-150" font-family="Helvetica,sans-Serif" font-size="10.00">src/rvc/RvcHal.hpp</text>
</a>
</g>
</g>
<!-- Node1&#45;&gt;Node11 -->
<g id="edge11_Node000001_Node000011" class="edge">
<title>Node1&#45;&gt;Node11</title>
<g id="a_edge11_Node000001_Node000011"><a xlink:title=" ">
<path fill="none" stroke="#63b8ff" d="M801,-187.66C801,-178.93 801,-168.99 801,-162.09"/>
<polygon fill="#63b8ff" stroke="#63b8ff" points="797.5,-187.75 801,-197.75 804.5,-187.75 797.5,-187.75"/>
</a>
</g>
</g>
<!-- Node13 -->
<g id="Node000013" class="node">
<title>Node13</title>
<g id="a_Node000013"><a xlink:href="rvc_8cpp.html" target="_top" xlink:title=" ">
<polygon fill="white" stroke="#666666" points="959.5,-162 872.5,-162 872.5,-143 959.5,-143 959.5,-162"/>
<text text-anchor="middle" x="916" y="-150" font-family="Helvetica,sans-Serif" font-size="10.00">src/rvc/rvc.cpp</text>
</a>
</g>
</g>
<!-- Node1&#45;&gt;Node13 -->
<g id="edge14_Node000001_Node000013" class="edge">
<title>Node1&#45;&gt;Node13</title>
<g id="a_edge14_Node000001_Node000013"><a xlink:title=" ">
<path fill="none" stroke="#63b8ff" d="M828.63,-193.77C849.84,-183.99 878.56,-170.75 897.19,-162.17"/>
<polygon fill="#63b8ff" stroke="#63b8ff" points="827.09,-190.62 819.48,-197.98 830.02,-196.98 827.09,-190.62"/>
</a>
</g>
</g>
<!-- Node3 -->
<g id="Node000003" class="node">
<title>Node3</title>
<g id="a_Node000003"><a xlink:href="bno08x_8hpp.html" target="_top" xlink:title="High level C++ interface for the BNO08x IMU family.">
<polygon fill="white" stroke="#666666" points="723.5,-101.5 632.5,-101.5 632.5,-82.5 723.5,-82.5 723.5,-101.5"/>
<text text-anchor="middle" x="678" y="-89.5" font-family="Helvetica,sans-Serif" font-size="10.00">inc/bno08x.hpp</text>
</a>
</g>
</g>
<!-- Node2&#45;&gt;Node3 -->
<g id="edge2_Node000002_Node000003" class="edge">
<title>Node2&#45;&gt;Node3</title>
<g id="a_edge2_Node000002_Node000003"><a xlink:title=" ">
<path fill="none" stroke="#63b8ff" d="M680.71,-132.66C680,-122.24 679.15,-109.8 678.59,-101.67"/>
<polygon fill="#63b8ff" stroke="#63b8ff" points="677.24,-133.13 681.41,-142.87 684.22,-132.65 677.24,-133.13"/>
</a>
</g>
</g>
<!-- Node4 -->
<g id="Node000004" class="node">
<title>Node4</title>
<g id="a_Node000004"><a xlink:href="basic__polling__example_8cpp.html" target="_top" xlink:title="Basic polling mode example with orientation and linear acceleration.">
<polygon fill="white" stroke="#666666" points="152,-35.5 0,-35.5 0,-5.5 152,-5.5 152,-35.5"/>
<text text-anchor="start" x="8" y="-23.5" font-family="Helvetica,sans-Serif" font-size="10.00">examples/esp32/main</text>
<text text-anchor="middle" x="76" y="-12.5" font-family="Helvetica,sans-Serif" font-size="10.00">/basic_polling_example.cpp</text>
</a>
</g>
</g>
<!-- Node3&#45;&gt;Node4 -->
<g id="edge3_Node000003_Node000004" class="edge">
<title>Node3&#45;&gt;Node4</title>
<g id="a_edge3_Node000003_Node000004"><a xlink:title=" ">
<path fill="none" stroke="#63b8ff" d="M622.2,-87.97C527.08,-82.28 327.65,-68.06 161,-41 151.73,-39.5 141.97,-37.58 132.49,-35.53"/>
<polygon fill="#63b8ff" stroke="#63b8ff" points="622.26,-91.48 632.45,-88.58 622.67,-84.49 622.26,-91.48"/>
</a>
</g>
</g>
<!-- Node5 -->
<g id="Node000005" class="node">
<title>Node5</title>
<g id="a_Node000005"><a xlink:href="dfu__example_8cpp.html" target="_top" xlink:title="Device Firmware Update (DFU) example for BNO08x.">
<polygon fill="white" stroke="#666666" points="295.5,-35.5 170.5,-35.5 170.5,-5.5 295.5,-5.5 295.5,-35.5"/>
<text text-anchor="start" x="178.5" y="-23.5" font-family="Helvetica,sans-Serif" font-size="10.00">examples/esp32/main</text>
<text text-anchor="middle" x="233" y="-12.5" font-family="Helvetica,sans-Serif" font-size="10.00">/dfu_example.cpp</text>
</a>
</g>
</g>
<!-- Node3&#45;&gt;Node5 -->
<g id="edge4_Node000003_Node000005" class="edge">
<title>Node3&#45;&gt;Node5</title>
<g id="a_edge4_Node000003_Node000005"><a xlink:title=" ">
<path fill="none" stroke="#63b8ff" d="M622.08,-85.91C548.62,-78.67 415.82,-63.72 304,-41 296.36,-39.45 288.33,-37.53 280.53,-35.5"/>
<polygon fill="#63b8ff" stroke="#63b8ff" points="622.19,-89.43 632.48,-86.92 622.86,-82.47 622.19,-89.43"/>
</a>
</g>
</g>
<!-- Node6 -->
<g id="Node000006" class="node">
<title>Node6</title>
<g id="a_Node000006"><a xlink:href="driver__integration__test_8cpp.html" target="_top" xlink:title="Comprehensive Integration Test Suite for BNO08x Driver.">
<polygon fill="white" stroke="#666666" points="438.5,-41 313.5,-41 313.5,0 438.5,0 438.5,-41"/>
<text text-anchor="start" x="321.5" y="-29" font-family="Helvetica,sans-Serif" font-size="10.00">examples/esp32/main</text>
<text text-anchor="start" x="321.5" y="-18" font-family="Helvetica,sans-Serif" font-size="10.00">/driver_integration</text>
<text text-anchor="middle" x="376" y="-7" font-family="Helvetica,sans-Serif" font-size="10.00">_test.cpp</text>
</a>
</g>
</g>
<!-- Node3&#45;&gt;Node6 -->
<g id="edge5_Node000003_Node000006" class="edge">
<title>Node3&#45;&gt;Node6</title>
<g id="a_edge5_Node000003_Node000006"><a xlink:title=" ">
<path fill="none" stroke="#63b8ff" d="M625.32,-80.46C578.38,-70.86 507.89,-55.94 447,-41 444.27,-40.33 441.48,-39.63 438.67,-38.91"/>
<polygon fill="#63b8ff" stroke="#63b8ff" points="624.77,-83.91 635.26,-82.48 626.16,-77.06 624.77,-83.91"/>
</a>
</g>
</g>
<!-- Node7 -->
<g id="Node000007" class="node">
<title>Node7</title>
<g id="a_Node000007"><a xlink:href="event__driven__callback__example_8cpp.html" target="_top" xlink:title="Event&#45;driven callback example with step counter and tap detector.">
<polygon fill="white" stroke="#666666" points="585.5,-41 456.5,-41 456.5,0 585.5,0 585.5,-41"/>
<text text-anchor="start" x="464.5" y="-29" font-family="Helvetica,sans-Serif" font-size="10.00">examples/esp32/main</text>
<text text-anchor="start" x="464.5" y="-18" font-family="Helvetica,sans-Serif" font-size="10.00">/event_driven_callback</text>
<text text-anchor="middle" x="521" y="-7" font-family="Helvetica,sans-Serif" font-size="10.00">_example.cpp</text>
</a>
</g>
</g>
<!-- Node3&#45;&gt;Node7 -->
<g id="edge6_Node000003_Node000007" class="edge">
<title>Node3&#45;&gt;Node7</title>
<g id="a_edge6_Node000003_Node000007"><a xlink:title=" ">
<path fill="none" stroke="#63b8ff" d="M649.34,-78.31C625.8,-67.89 592.08,-52.97 565.11,-41.03"/>
<polygon fill="#63b8ff" stroke="#63b8ff" points="648.19,-81.63 658.75,-82.48 651.02,-75.23 648.19,-81.63"/>
</a>
</g>
</g>
<!-- Node8 -->
<g id="Node000008" class="node">
<title>Node8</title>
<g id="a_Node000008"><a xlink:href="full__features__example_8cpp.html" target="_top" xlink:title="Comprehensive example demonstrating all BNO08x features.">
<polygon fill="white" stroke="#666666" points="752.5,-35.5 603.5,-35.5 603.5,-5.5 752.5,-5.5 752.5,-35.5"/>
<text text-anchor="start" x="611.5" y="-23.5" font-family="Helvetica,sans-Serif" font-size="10.00">examples/esp32/main</text>
<text text-anchor="middle" x="678" y="-12.5" font-family="Helvetica,sans-Serif" font-size="10.00">/full_features_example.cpp</text>
</a>
</g>
</g>
<!-- Node3&#45;&gt;Node8 -->
<g id="edge7_Node000003_Node000008" class="edge">
<title>Node3&#45;&gt;Node8</title>
<g id="a_edge7_Node000003_Node000008"><a xlink:title=" ">
<path fill="none" stroke="#63b8ff" d="M678,-72.21C678,-60.69 678,-46.18 678,-35.64"/>
<polygon fill="#63b8ff" stroke="#63b8ff" points="674.5,-72.48 678,-82.48 681.5,-72.48 674.5,-72.48"/>
</a>
</g>
</g>
<!-- Node9 -->
<g id="Node000009" class="node">
<title>Node9</title>
<g id="a_Node000009"><a xlink:href="rvc__mode__example_8cpp.html" target="_top" xlink:title="RVC (Reduced Vector Computation) mode example.">
<polygon fill="white" stroke="#666666" points="1015,-35.5 879,-35.5 879,-5.5 1015,-5.5 1015,-35.5"/>
<text text-anchor="start" x="887" y="-23.5" font-family="Helvetica,sans-Serif" font-size="10.00">examples/esp32/main</text>
<text text-anchor="middle" x="947" y="-12.5" font-family="Helvetica,sans-Serif" font-size="10.00">/rvc_mode_example.cpp</text>
</a>
</g>
</g>
<!-- Node3&#45;&gt;Node9 -->
<g id="edge8_Node000003_Node000009" class="edge">
<title>Node3&#45;&gt;Node9</title>
<g id="a_edge8_Node000003_Node000009"><a xlink:title=" ">
<path fill="none" stroke="#63b8ff" d="M720.77,-79.95C767.39,-67.9 842.09,-48.6 892.79,-35.51"/>
<polygon fill="#63b8ff" stroke="#63b8ff" points="719.79,-76.59 710.98,-82.48 721.54,-83.37 719.79,-76.59"/>
</a>
</g>
</g>
<!-- Node10 -->
<g id="Node000010" class="node">
<title>Node10</title>
<g id="a_Node000010"><a xlink:href="bno08x_8cpp.html" target="_top" xlink:title="Template implementation of the BNO08x C++ driver.">
<polygon fill="white" stroke="#666666" points="861,-30 771,-30 771,-11 861,-11 861,-30"/>
<text text-anchor="middle" x="816" y="-18" font-family="Helvetica,sans-Serif" font-size="10.00">src/bno08x.cpp</text>
</a>
</g>
</g>
<!-- Node3&#45;&gt;Node10 -->
<g id="edge9_Node000003_Node000010" class="edge">
<title>Node3&#45;&gt;Node10</title>
<g id="a_edge9_Node000003_Node000010"><a xlink:title=" ">
<path fill="none" stroke="#63b8ff" d="M699.32,-77.51C725.22,-63.48 768.24,-41.96 794.31,-30.09"/>
<polygon fill="#63b8ff" stroke="#63b8ff" points="697.37,-74.58 690.31,-82.48 700.75,-80.71 697.37,-74.58"/>
</a>
</g>
</g>
<!-- Node10&#45;&gt;Node3 -->
<g id="edge10_Node000010_Node000003" class="edge">
<title>Node10&#45;&gt;Node3</title>
<g id="a_edge10_Node000010_Node000003"><a xlink:title=" ">
<path fill="none" stroke="#63b8ff" d="M794.52,-35.08C768.56,-49.13 725.54,-70.65 699.54,-82.48"/>
<polygon fill="#63b8ff" stroke="#63b8ff" points="796.5,-37.98 803.57,-30.09 793.12,-31.85 796.5,-37.98"/>
</a>
</g>
</g>
<!-- Node12 -->
<g id="Node000012" class="node">
<title>Node12</title>
<g id="a_Node000012"><a xlink:href="esp32__rvc__hal_8hpp.html" target="_top" xlink:title="ESP32 RVC HAL implementation for BNO08x UART&#45;based RVC mode.">
<polygon fill="white" stroke="#666666" points="937.5,-107 812.5,-107 812.5,-77 937.5,-77 937.5,-107"/>
<text text-anchor="start" x="820.5" y="-95" font-family="Helvetica,sans-Serif" font-size="10.00">examples/esp32/main</text>
<text text-anchor="middle" x="875" y="-84" font-family="Helvetica,sans-Serif" font-size="10.00">/esp32_rvc_hal.hpp</text>
</a>
</g>
</g>
<!-- Node11&#45;&gt;Node12 -->
<g id="edge12_Node000011_Node000012" class="edge">
<title>Node11&#45;&gt;Node12</title>
<g id="a_edge12_Node000011_Node000012"><a xlink:title=" ">
<path fill="none" stroke="#63b8ff" d="M819.97,-136.5C831.42,-127.45 845.91,-116 857.15,-107.11"/>
<polygon fill="#63b8ff" stroke="#63b8ff" points="817.59,-133.92 811.92,-142.87 821.93,-139.41 817.59,-133.92"/>
</a>
</g>
</g>
<!-- Node12&#45;&gt;Node9 -->
<g id="edge13_Node000012_Node000009" class="edge">
<title>Node12&#45;&gt;Node9</title>
<g id="a_edge13_Node000012_Node000009"><a xlink:title=" ">
<path fill="none" stroke="#63b8ff" d="M896.77,-69.99C908.32,-58.84 922.21,-45.43 932.45,-35.54"/>
<polygon fill="#63b8ff" stroke="#63b8ff" points="894.33,-67.47 889.57,-76.94 899.2,-72.51 894.33,-67.47"/>
</a>
</g>
</g>
</g>
</svg>
