<?xml version="1.0" encoding="UTF-8" standalone="no"?>
<!DOCTYPE svg PUBLIC "-//W3C//DTD SVG 1.1//EN"
 "http://www.w3.org/Graphics/SVG/1.1/DTD/svg11.dtd">
<!-- Generated by graphviz version 2.43.0 (0)
 -->
<!-- Title: src/BNO085.cpp Pages: 1 -->
<svg width="941pt" height="247pt"
 viewBox="0.00 0.00 940.50 247.00" xmlns="http://www.w3.org/2000/svg" xmlns:xlink="http://www.w3.org/1999/xlink">
<g id="graph0" class="graph" transform="scale(1 1) rotate(0) translate(4 243)">
<title>src/BNO085.cpp</title>
<!-- Node1 -->
<g id="Node000001" class="node">
<title>Node1</title>
<g id="a_Node000001"><a xlink:title="Implementation of the BNO085 C++ driver.">
<polygon fill="#999999" stroke="#666666" points="597.5,-239 503.5,-239 503.5,-220 597.5,-220 597.5,-239"/>
<text text-anchor="middle" x="550.5" y="-227" font-family="Helvetica,sans-Serif" font-size="10.00">src/BNO085.cpp</text>
</a>
</g>
</g>
<!-- Node2 -->
<g id="Node000002" class="node">
<title>Node2</title>
<g id="a_Node000002"><a xlink:href="BNO085_8hpp.html" target="_top" xlink:title="High level C++ interface for the BNO08x IMU family.">
<polygon fill="white" stroke="#666666" points="464,-184 387,-184 387,-165 464,-165 464,-184"/>
<text text-anchor="middle" x="425.5" y="-172" font-family="Helvetica,sans-Serif" font-size="10.00">BNO085.hpp</text>
</a>
</g>
</g>
<!-- Node1&#45;&gt;Node2 -->
<g id="edge1_Node000001_Node000002" class="edge">
<title>Node1&#45;&gt;Node2</title>
<g id="a_edge1_Node000001_Node000002"><a xlink:title=" ">
<path fill="none" stroke="#63b8ff" d="M530.42,-219.98C510.13,-211.38 478.54,-197.99 455.33,-188.15"/>
<polygon fill="#63b8ff" stroke="#63b8ff" points="456.52,-184.85 445.95,-184.17 453.79,-191.3 456.52,-184.85"/>
</a>
</g>
</g>
<!-- Node14 -->
<g id="Node000014" class="node">
<title>Node14</title>
<g id="a_Node000014"><a xlink:title=" ">
<polygon fill="#e0e0e0" stroke="#999999" points="546.5,-184 482.5,-184 482.5,-165 546.5,-165 546.5,-184"/>
<text text-anchor="middle" x="514.5" y="-172" font-family="Helvetica,sans-Serif" font-size="10.00">algorithm</text>
</a>
</g>
</g>
<!-- Node1&#45;&gt;Node14 -->
<g id="edge16_Node000001_Node000014" class="edge">
<title>Node1&#45;&gt;Node14</title>
<g id="a_edge16_Node000001_Node000014"><a xlink:title=" ">
<path fill="none" stroke="#63b8ff" d="M544.56,-219.75C539.52,-212.34 532.16,-201.5 525.99,-192.41"/>
<polygon fill="#63b8ff" stroke="#63b8ff" points="528.85,-190.39 520.33,-184.09 523.06,-194.33 528.85,-190.39"/>
</a>
</g>
</g>
<!-- Node15 -->
<g id="Node000015" class="node">
<title>Node15</title>
<g id="a_Node000015"><a xlink:title=" ">
<polygon fill="#e0e0e0" stroke="#999999" points="610.5,-184 564.5,-184 564.5,-165 610.5,-165 610.5,-184"/>
<text text-anchor="middle" x="587.5" y="-172" font-family="Helvetica,sans-Serif" font-size="10.00">cstdio</text>
</a>
</g>
</g>
<!-- Node1&#45;&gt;Node15 -->
<g id="edge17_Node000001_Node000015" class="edge">
<title>Node1&#45;&gt;Node15</title>
<g id="a_edge17_Node000001_Node000015"><a xlink:title=" ">
<path fill="none" stroke="#63b8ff" d="M556.61,-219.75C561.78,-212.34 569.35,-201.5 575.69,-192.41"/>
<polygon fill="#63b8ff" stroke="#63b8ff" points="578.65,-194.29 581.5,-184.09 572.91,-190.29 578.65,-194.29"/>
</a>
</g>
</g>
<!-- Node16 -->
<g id="Node000016" class="node">
<title>Node16</title>
<g id="a_Node000016"><a xlink:title=" ">
<polygon fill="#e0e0e0" stroke="#999999" points="672,-184 629,-184 629,-165 672,-165 672,-184"/>
<text text-anchor="middle" x="650.5" y="-172" font-family="Helvetica,sans-Serif" font-size="10.00">sh2.h</text>
</a>
</g>
</g>
<!-- Node1&#45;&gt;Node16 -->
<g id="edge18_Node000001_Node000016" class="edge">
<title>Node1&#45;&gt;Node16</title>
<g id="a_edge18_Node000001_Node000016"><a xlink:title=" ">
<path fill="none" stroke="#63b8ff" d="M566.57,-219.98C582.36,-211.61 606.72,-198.7 625.13,-188.95"/>
<polygon fill="#63b8ff" stroke="#63b8ff" points="626.94,-191.95 634.14,-184.17 623.67,-185.76 626.94,-191.95"/>
</a>
</g>
</g>
<!-- Node17 -->
<g id="Node000017" class="node">
<title>Node17</title>
<g id="a_Node000017"><a xlink:title=" ">
<polygon fill="#e0e0e0" stroke="#999999" points="798.5,-184 690.5,-184 690.5,-165 798.5,-165 798.5,-184"/>
<text text-anchor="middle" x="744.5" y="-172" font-family="Helvetica,sans-Serif" font-size="10.00">sh2_SensorValue.h</text>
</a>
</g>
</g>
<!-- Node1&#45;&gt;Node17 -->
<g id="edge19_Node000001_Node000017" class="edge">
<title>Node1&#45;&gt;Node17</title>
<g id="a_edge19_Node000001_Node000017"><a xlink:title=" ">
<path fill="none" stroke="#63b8ff" d="M581.67,-219.98C614.66,-210.97 666.9,-196.7 703.27,-186.76"/>
<polygon fill="#63b8ff" stroke="#63b8ff" points="704.36,-190.09 713.09,-184.08 702.52,-183.34 704.36,-190.09"/>
</a>
</g>
</g>
<!-- Node18 -->
<g id="Node000018" class="node">
<title>Node18</title>
<g id="a_Node000018"><a xlink:title=" ">
<polygon fill="#e0e0e0" stroke="#999999" points="878,-184 817,-184 817,-165 878,-165 878,-184"/>
<text text-anchor="middle" x="847.5" y="-172" font-family="Helvetica,sans-Serif" font-size="10.00">sh2_err.h</text>
</a>
</g>
</g>
<!-- Node1&#45;&gt;Node18 -->
<g id="edge20_Node000001_Node000018" class="edge">
<title>Node1&#45;&gt;Node18</title>
<g id="a_edge20_Node000001_Node000018"><a xlink:title=" ">
<path fill="none" stroke="#63b8ff" d="M597.97,-220.84C647.5,-212.71 727.67,-199.22 806.8,-184.07"/>
<polygon fill="#63b8ff" stroke="#63b8ff" points="807.79,-187.44 816.95,-182.12 806.47,-180.57 807.79,-187.44"/>
</a>
</g>
</g>
<!-- Node19 -->
<g id="Node000019" class="node">
<title>Node19</title>
<g id="a_Node000019"><a xlink:href="HalTransport_8hpp.html" target="_top" xlink:title=" ">
<polygon fill="white" stroke="#666666" points="189.5,-184 71.5,-184 71.5,-165 189.5,-165 189.5,-184"/>
<text text-anchor="middle" x="130.5" y="-172" font-family="Helvetica,sans-Serif" font-size="10.00">dfu/HalTransport.hpp</text>
</a>
</g>
</g>
<!-- Node1&#45;&gt;Node19 -->
<g id="edge21_Node000001_Node000019" class="edge">
<title>Node1&#45;&gt;Node19</title>
<g id="a_edge21_Node000001_Node000019"><a xlink:title=" ">
<path fill="none" stroke="#63b8ff" d="M503.14,-222.52C429.13,-213.18 285.68,-195.08 199.97,-184.27"/>
<polygon fill="#63b8ff" stroke="#63b8ff" points="200.17,-180.76 189.81,-182.98 199.29,-187.71 200.17,-180.76"/>
</a>
</g>
</g>
<!-- Node22 -->
<g id="Node000022" class="node">
<title>Node22</title>
<g id="a_Node000022"><a xlink:href="dfu_8h.html" target="_top" xlink:title=" ">
<polygon fill="white" stroke="#666666" points="345.5,-184 285.5,-184 285.5,-165 345.5,-165 345.5,-184"/>
<text text-anchor="middle" x="315.5" y="-172" font-family="Helvetica,sans-Serif" font-size="10.00">dfu/dfu.h</text>
</a>
</g>
</g>
<!-- Node1&#45;&gt;Node22 -->
<g id="edge25_Node000001_Node000022" class="edge">
<title>Node1&#45;&gt;Node22</title>
<g id="a_edge25_Node000001_Node000022"><a xlink:title=" ">
<path fill="none" stroke="#63b8ff" d="M512.74,-219.98C469.65,-210.27 399.47,-194.44 355.47,-184.51"/>
<polygon fill="#63b8ff" stroke="#63b8ff" points="356.22,-181.1 345.69,-182.31 354.68,-187.92 356.22,-181.1"/>
</a>
</g>
</g>
<!-- Node3 -->
<g id="Node000003" class="node">
<title>Node3</title>
<g id="a_Node000003"><a xlink:href="BNO085__Transport_8hpp.html" target="_top" xlink:title="Abstract transport interface for communicating with the BNO085.">
<polygon fill="white" stroke="#666666" points="287.5,-129 159.5,-129 159.5,-110 287.5,-110 287.5,-129"/>
<text text-anchor="middle" x="223.5" y="-117" font-family="Helvetica,sans-Serif" font-size="10.00">BNO085_Transport.hpp</text>
</a>
</g>
</g>
<!-- Node2&#45;&gt;Node3 -->
<g id="edge2_Node000002_Node000003" class="edge">
<title>Node2&#45;&gt;Node3</title>
<g id="a_edge2_Node000002_Node000003"><a xlink:title=" ">
<path fill="none" stroke="#63b8ff" d="M393.05,-164.98C358.54,-155.93 303.84,-141.58 265.94,-131.64"/>
<polygon fill="#63b8ff" stroke="#63b8ff" points="266.77,-128.23 256.21,-129.08 264.99,-135.01 266.77,-128.23"/>
</a>
</g>
</g>
<!-- Node4 -->
<g id="Node000004" class="node">
<title>Node4</title>
<g id="a_Node000004"><a xlink:title=" ">
<polygon fill="#e0e0e0" stroke="#999999" points="159.5,-74 109.5,-74 109.5,-55 159.5,-55 159.5,-74"/>
<text text-anchor="middle" x="134.5" y="-62" font-family="Helvetica,sans-Serif" font-size="10.00">cstdint</text>
</a>
</g>
</g>
<!-- Node2&#45;&gt;Node4 -->
<g id="edge12_Node000002_Node000004" class="edge">
<title>Node2&#45;&gt;Node4</title>
<g id="a_edge12_Node000002_Node000004"><a xlink:title=" ">
<path fill="none" stroke="#63b8ff" d="M386.73,-168.37C313.01,-158.45 159.15,-136.94 150.5,-129 138.34,-117.84 134.82,-98.92 134.06,-84.62"/>
<polygon fill="#63b8ff" stroke="#63b8ff" points="137.56,-84.34 133.93,-74.39 130.56,-84.43 137.56,-84.34"/>
</a>
</g>
</g>
<!-- Node5 -->
<g id="Node000005" class="node">
<title>Node5</title>
<g id="a_Node000005"><a xlink:href="HcBin_8h.html" target="_top" xlink:title="API Definition for HcBin objects (Hillcrest Binary Files).">
<polygon fill="white" stroke="#666666" points="414,-74 341,-74 341,-55 414,-55 414,-74"/>
<text text-anchor="middle" x="377.5" y="-62" font-family="Helvetica,sans-Serif" font-size="10.00">dfu/HcBin.h</text>
</a>
</g>
</g>
<!-- Node2&#45;&gt;Node5 -->
<g id="edge4_Node000002_Node000005" class="edge">
<title>Node2&#45;&gt;Node5</title>
<g id="a_edge4_Node000002_Node000005"><a xlink:title=" ">
<path fill="none" stroke="#63b8ff" d="M408.92,-164.87C396.33,-157.3 379.96,-145.01 372.5,-129 365.93,-114.91 368.09,-97.13 371.37,-83.98"/>
<polygon fill="#63b8ff" stroke="#63b8ff" points="374.78,-84.78 374.22,-74.2 368.06,-82.82 374.78,-84.78"/>
</a>
</g>
</g>
<!-- Node7 -->
<g id="Node000007" class="node">
<title>Node7</title>
<g id="a_Node000007"><a xlink:href="firmware_8h.html" target="_top" xlink:title=" ">
<polygon fill="white" stroke="#666666" points="469.5,-129 381.5,-129 381.5,-110 469.5,-110 469.5,-129"/>
<text text-anchor="middle" x="425.5" y="-117" font-family="Helvetica,sans-Serif" font-size="10.00">dfu/firmware.h</text>
</a>
</g>
</g>
<!-- Node2&#45;&gt;Node7 -->
<g id="edge6_Node000002_Node000007" class="edge">
<title>Node2&#45;&gt;Node7</title>
<g id="a_edge6_Node000002_Node000007"><a xlink:title=" ">
<path fill="none" stroke="#63b8ff" d="M425.5,-164.75C425.5,-157.8 425.5,-147.85 425.5,-139.13"/>
<polygon fill="#63b8ff" stroke="#63b8ff" points="429,-139.09 425.5,-129.09 422,-139.09 429,-139.09"/>
</a>
</g>
</g>
<!-- Node8 -->
<g id="Node000008" class="node">
<title>Node8</title>
<g id="a_Node000008"><a xlink:href="Rvc_8hpp.html" target="_top" xlink:title=" ">
<polygon fill="white" stroke="#666666" points="561.5,-129 487.5,-129 487.5,-110 561.5,-110 561.5,-129"/>
<text text-anchor="middle" x="524.5" y="-117" font-family="Helvetica,sans-Serif" font-size="10.00">rvc/Rvc.hpp</text>
</a>
</g>
</g>
<!-- Node2&#45;&gt;Node8 -->
<g id="edge8_Node000002_Node000008" class="edge">
<title>Node2&#45;&gt;Node8</title>
<g id="a_edge8_Node000002_Node000008"><a xlink:title=" ">
<path fill="none" stroke="#63b8ff" d="M441.41,-164.98C457.05,-156.61 481.16,-143.7 499.38,-133.95"/>
<polygon fill="#63b8ff" stroke="#63b8ff" points="501.14,-136.98 508.3,-129.17 497.84,-130.8 501.14,-136.98"/>
</a>
</g>
</g>
<!-- Node10 -->
<g id="Node000010" class="node">
<title>Node10</title>
<g id="a_Node000010"><a xlink:title=" ">
<polygon fill="#e0e0e0" stroke="#999999" points="621.5,-129 579.5,-129 579.5,-110 621.5,-110 621.5,-129"/>
<text text-anchor="middle" x="600.5" y="-117" font-family="Helvetica,sans-Serif" font-size="10.00">array</text>
</a>
</g>
</g>
<!-- Node2&#45;&gt;Node10 -->
<g id="edge11_Node000002_Node000010" class="edge">
<title>Node2&#45;&gt;Node10</title>
<g id="a_edge11_Node000002_Node000010"><a xlink:title=" ">
<path fill="none" stroke="#63b8ff" d="M453.62,-164.98C485.26,-155.4 536.53,-139.87 569.37,-129.93"/>
<polygon fill="#63b8ff" stroke="#63b8ff" points="570.78,-133.16 579.33,-126.91 568.75,-126.46 570.78,-133.16"/>
</a>
</g>
</g>
<!-- Node11 -->
<g id="Node000011" class="node">
<title>Node11</title>
<g id="a_Node000011"><a xlink:title=" ">
<polygon fill="#e0e0e0" stroke="#999999" points="705,-129 640,-129 640,-110 705,-110 705,-129"/>
<text text-anchor="middle" x="672.5" y="-117" font-family="Helvetica,sans-Serif" font-size="10.00">functional</text>
</a>
</g>
</g>
<!-- Node2&#45;&gt;Node11 -->
<g id="edge13_Node000002_Node000011" class="edge">
<title>Node2&#45;&gt;Node11</title>
<g id="a_edge13_Node000002_Node000011"><a xlink:title=" ">
<path fill="none" stroke="#63b8ff" d="M464.09,-165.22C509.09,-155.56 583.25,-139.65 629.9,-129.64"/>
<polygon fill="#63b8ff" stroke="#63b8ff" points="630.66,-133.06 639.7,-127.54 629.19,-126.21 630.66,-133.06"/>
</a>
</g>
</g>
<!-- Node12 -->
<g id="Node000012" class="node">
<title>Node12</title>
<g id="a_Node000012"><a xlink:title=" ">
<polygon fill="#e0e0e0" stroke="#999999" points="786,-129 723,-129 723,-110 786,-110 786,-129"/>
<text text-anchor="middle" x="754.5" y="-117" font-family="Helvetica,sans-Serif" font-size="10.00">sh2/sh2.h</text>
</a>
</g>
</g>
<!-- Node2&#45;&gt;Node12 -->
<g id="edge14_Node000002_Node000012" class="edge">
<title>Node2&#45;&gt;Node12</title>
<g id="a_edge14_Node000002_Node000012"><a xlink:title=" ">
<path fill="none" stroke="#63b8ff" d="M464.26,-166.54C467.38,-166.01 470.49,-165.49 473.5,-165 577.25,-148.07 606.25,-148.24 712.79,-129.22"/>
<polygon fill="#63b8ff" stroke="#63b8ff" points="713.44,-132.67 722.66,-127.45 712.2,-125.78 713.44,-132.67"/>
</a>
</g>
</g>
<!-- Node13 -->
<g id="Node000013" class="node">
<title>Node13</title>
<g id="a_Node000013"><a xlink:title=" ">
<polygon fill="#e0e0e0" stroke="#999999" points="932.5,-129 804.5,-129 804.5,-110 932.5,-110 932.5,-129"/>
<text text-anchor="middle" x="868.5" y="-117" font-family="Helvetica,sans-Serif" font-size="10.00">sh2/sh2_SensorValue.h</text>
</a>
</g>
</g>
<!-- Node2&#45;&gt;Node13 -->
<g id="edge15_Node000002_Node000013" class="edge">
<title>Node2&#45;&gt;Node13</title>
<g id="a_edge15_Node000002_Node000013"><a xlink:title=" ">
<path fill="none" stroke="#63b8ff" d="M464.24,-166.42C467.37,-165.92 470.48,-165.44 473.5,-165 612.83,-144.9 650.74,-145.3 794.34,-129.12"/>
<polygon fill="#63b8ff" stroke="#63b8ff" points="794.87,-132.58 804.41,-127.98 794.08,-125.63 794.87,-132.58"/>
</a>
</g>
</g>
<!-- Node3&#45;&gt;Node4 -->
<g id="edge3_Node000003_Node000004" class="edge">
<title>Node3&#45;&gt;Node4</title>
<g id="a_edge3_Node000003_Node000004"><a xlink:title=" ">
<path fill="none" stroke="#63b8ff" d="M209.2,-109.98C195.4,-101.77 174.26,-89.18 157.99,-79.49"/>
<polygon fill="#63b8ff" stroke="#63b8ff" points="159.44,-76.28 149.06,-74.17 155.86,-82.29 159.44,-76.28"/>
</a>
</g>
</g>
<!-- Node6 -->
<g id="Node000006" class="node">
<title>Node6</title>
<g id="a_Node000006"><a xlink:title=" ">
<polygon fill="#e0e0e0" stroke="#999999" points="441,-19 388,-19 388,0 441,0 441,-19"/>
<text text-anchor="middle" x="414.5" y="-7" font-family="Helvetica,sans-Serif" font-size="10.00">stdint.h</text>
</a>
</g>
</g>
<!-- Node5&#45;&gt;Node6 -->
<g id="edge5_Node000005_Node000006" class="edge">
<title>Node5&#45;&gt;Node6</title>
<g id="a_edge5_Node000005_Node000006"><a xlink:title=" ">
<path fill="none" stroke="#63b8ff" d="M383.61,-54.75C388.78,-47.34 396.35,-36.5 402.69,-27.41"/>
<polygon fill="#63b8ff" stroke="#63b8ff" points="405.65,-29.29 408.5,-19.09 399.91,-25.29 405.65,-29.29"/>
</a>
</g>
</g>
<!-- Node7&#45;&gt;Node5 -->
<g id="edge7_Node000007_Node000005" class="edge">
<title>Node7&#45;&gt;Node5</title>
<g id="a_edge7_Node000007_Node000005"><a xlink:title=" ">
<path fill="none" stroke="#63b8ff" d="M417.57,-109.75C410.65,-102.11 400.43,-90.82 392.05,-81.56"/>
<polygon fill="#63b8ff" stroke="#63b8ff" points="394.59,-79.15 385.28,-74.09 389.4,-83.85 394.59,-79.15"/>
</a>
</g>
</g>
<!-- Node9 -->
<g id="Node000009" class="node">
<title>Node9</title>
<g id="a_Node000009"><a xlink:href="rvc_8h.html" target="_top" xlink:title=" ">
<polygon fill="white" stroke="#666666" points="521,-74 480,-74 480,-55 521,-55 521,-74"/>
<text text-anchor="middle" x="500.5" y="-62" font-family="Helvetica,sans-Serif" font-size="10.00">rvc.h</text>
</a>
</g>
</g>
<!-- Node8&#45;&gt;Node9 -->
<g id="edge9_Node000008_Node000009" class="edge">
<title>Node8&#45;&gt;Node9</title>
<g id="a_edge9_Node000008_Node000009"><a xlink:title=" ">
<path fill="none" stroke="#63b8ff" d="M520.54,-109.75C517.29,-102.57 512.58,-92.18 508.55,-83.27"/>
<polygon fill="#63b8ff" stroke="#63b8ff" points="511.7,-81.75 504.39,-74.09 505.33,-84.64 511.7,-81.75"/>
</a>
</g>
</g>
<!-- Node9&#45;&gt;Node6 -->
<g id="edge10_Node000009_Node000006" class="edge">
<title>Node9&#45;&gt;Node6</title>
<g id="a_edge10_Node000009_Node000006"><a xlink:title=" ">
<path fill="none" stroke="#63b8ff" d="M486.68,-54.98C473.35,-46.77 452.92,-34.18 437.19,-24.49"/>
<polygon fill="#63b8ff" stroke="#63b8ff" points="438.92,-21.44 428.57,-19.17 435.25,-27.4 438.92,-21.44"/>
</a>
</g>
</g>
<!-- Node20 -->
<g id="Node000020" class="node">
<title>Node20</title>
<g id="a_Node000020"><a xlink:href="IDfuTransport_8hpp.html" target="_top" xlink:title=" ">
<polygon fill="white" stroke="#666666" points="103,-129 0,-129 0,-110 103,-110 103,-129"/>
<text text-anchor="middle" x="51.5" y="-117" font-family="Helvetica,sans-Serif" font-size="10.00">IDfuTransport.hpp</text>
</a>
</g>
</g>
<!-- Node19&#45;&gt;Node20 -->
<g id="edge22_Node000019_Node000020" class="edge">
<title>Node19&#45;&gt;Node20</title>
<g id="a_edge22_Node000019_Node000020"><a xlink:title=" ">
<path fill="none" stroke="#63b8ff" d="M117.81,-164.98C105.67,-156.84 87.14,-144.41 72.75,-134.76"/>
<polygon fill="#63b8ff" stroke="#63b8ff" points="74.68,-131.84 64.42,-129.17 70.78,-137.65 74.68,-131.84"/>
</a>
</g>
</g>
<!-- Node20&#45;&gt;Node4 -->
<g id="edge23_Node000020_Node000004" class="edge">
<title>Node20&#45;&gt;Node4</title>
<g id="a_edge23_Node000020_Node000004"><a xlink:title=" ">
<path fill="none" stroke="#63b8ff" d="M64.84,-109.98C77.59,-101.84 97.05,-89.41 112.17,-79.76"/>
<polygon fill="#63b8ff" stroke="#63b8ff" points="114.38,-82.5 120.92,-74.17 110.61,-76.6 114.38,-82.5"/>
</a>
</g>
</g>
<!-- Node21 -->
<g id="Node000021" class="node">
<title>Node21</title>
<g id="a_Node000021"><a xlink:title=" ">
<polygon fill="#e0e0e0" stroke="#999999" points="91,-74 8,-74 8,-55 91,-55 91,-74"/>
<text text-anchor="middle" x="49.5" y="-62" font-family="Helvetica,sans-Serif" font-size="10.00">sh2/sh2_hal.h</text>
</a>
</g>
</g>
<!-- Node20&#45;&gt;Node21 -->
<g id="edge24_Node000020_Node000021" class="edge">
<title>Node20&#45;&gt;Node21</title>
<g id="a_edge24_Node000020_Node000021"><a xlink:title=" ">
<path fill="none" stroke="#63b8ff" d="M51.17,-109.75C50.91,-102.8 50.53,-92.85 50.2,-84.13"/>
<polygon fill="#63b8ff" stroke="#63b8ff" points="53.7,-83.95 49.82,-74.09 46.7,-84.21 53.7,-83.95"/>
</a>
</g>
</g>
<!-- Node22&#45;&gt;Node5 -->
<g id="edge26_Node000022_Node000005" class="edge">
<title>Node22&#45;&gt;Node5</title>
<g id="a_edge26_Node000022_Node000005"><a xlink:title=" ">
<path fill="none" stroke="#63b8ff" d="M320.57,-164.66C330.8,-146.85 354.04,-106.37 367.45,-83.01"/>
<polygon fill="#63b8ff" stroke="#63b8ff" points="370.59,-84.57 372.53,-74.16 364.52,-81.09 370.59,-84.57"/>
</a>
</g>
</g>
<!-- Node22&#45;&gt;Node20 -->
<g id="edge27_Node000022_Node000020" class="edge">
<title>Node22&#45;&gt;Node20</title>
<g id="a_edge27_Node000022_Node000020"><a xlink:title=" ">
<path fill="none" stroke="#63b8ff" d="M285.47,-167.47C241.42,-158.63 158.61,-142 104.26,-131.09"/>
<polygon fill="#63b8ff" stroke="#63b8ff" points="104.62,-127.59 94.13,-129.06 103.24,-134.46 104.62,-127.59"/>
</a>
</g>
</g>
</g>
</svg>
