<?xml version="1.0" encoding="UTF-8" standalone="no"?>
<!DOCTYPE svg PUBLIC "-//W3C//DTD SVG 1.1//EN"
 "http://www.w3.org/Graphics/SVG/1.1/DTD/svg11.dtd">
<!-- Generated by graphviz version 2.43.0 (0)
 -->
<!-- Title: examples/esp32/main/esp32_bno08x_bus.cpp Pages: 1 -->
<svg width="574pt" height="214pt"
 viewBox="0.00 0.00 574.00 214.00" xmlns="http://www.w3.org/2000/svg" xmlns:xlink="http://www.w3.org/1999/xlink">
<g id="graph0" class="graph" transform="scale(1 1) rotate(0) translate(4 210)">
<title>examples/esp32/main/esp32_bno08x_bus.cpp</title>
<!-- Node1 -->
<g id="Node000001" class="node">
<title>Node1</title>
<g id="a_Node000001"><a xlink:title="ESP32 I2C communication interface implementation for BNO08x driver.">
<polygon fill="#999999" stroke="#666666" points="469.5,-206 336.5,-206 336.5,-176 469.5,-176 469.5,-206"/>
<text text-anchor="start" x="344.5" y="-194" font-family="Helvetica,sans-Serif" font-size="10.00">examples/esp32/main</text>
<text text-anchor="middle" x="403" y="-183" font-family="Helvetica,sans-Serif" font-size="10.00">/esp32_bno08x_bus.cpp</text>
</a>
</g>
</g>
<!-- Node2 -->
<g id="Node000002" class="node">
<title>Node2</title>
<g id="a_Node000002"><a xlink:href="esp32__bno08x__bus_8hpp.html" target="_top" xlink:title="ESP32 I2C communication interface implementation for BNO08x driver.">
<polygon fill="white" stroke="#666666" points="328.5,-140 197.5,-140 197.5,-121 328.5,-121 328.5,-140"/>
<text text-anchor="middle" x="263" y="-128" font-family="Helvetica,sans-Serif" font-size="10.00">esp32_bno08x_bus.hpp</text>
</a>
</g>
</g>
<!-- Node1&#45;&gt;Node2 -->
<g id="edge1_Node000001_Node000002" class="edge">
<title>Node1&#45;&gt;Node2</title>
<g id="a_edge1_Node000001_Node000002"><a xlink:title=" ">
<path fill="none" stroke="#63b8ff" d="M369.47,-175.99C346.21,-166.27 315.51,-153.44 293.05,-144.06"/>
<polygon fill="#63b8ff" stroke="#63b8ff" points="294.25,-140.77 283.68,-140.14 291.55,-147.22 294.25,-140.77"/>
</a>
</g>
</g>
<!-- Node9 -->
<g id="Node000009" class="node">
<title>Node9</title>
<g id="a_Node000009"><a xlink:title=" ">
<polygon fill="#e0e0e0" stroke="#999999" points="459.5,-140 346.5,-140 346.5,-121 459.5,-121 459.5,-140"/>
<text text-anchor="middle" x="403" y="-128" font-family="Helvetica,sans-Serif" font-size="10.00">freertos/FreeRTOS.h</text>
</a>
</g>
</g>
<!-- Node1&#45;&gt;Node9 -->
<g id="edge9_Node000001_Node000009" class="edge">
<title>Node1&#45;&gt;Node9</title>
<g id="a_edge9_Node000001_Node000009"><a xlink:title=" ">
<path fill="none" stroke="#63b8ff" d="M403,-175.84C403,-168.21 403,-158.7 403,-150.45"/>
<polygon fill="#63b8ff" stroke="#63b8ff" points="406.5,-150.27 403,-140.27 399.5,-150.27 406.5,-150.27"/>
</a>
</g>
</g>
<!-- Node10 -->
<g id="Node000010" class="node">
<title>Node10</title>
<g id="a_Node000010"><a xlink:title=" ">
<polygon fill="#e0e0e0" stroke="#999999" points="566,-140 478,-140 478,-121 566,-121 566,-140"/>
<text text-anchor="middle" x="522" y="-128" font-family="Helvetica,sans-Serif" font-size="10.00">freertos/task.h</text>
</a>
</g>
</g>
<!-- Node1&#45;&gt;Node10 -->
<g id="edge10_Node000001_Node000010" class="edge">
<title>Node1&#45;&gt;Node10</title>
<g id="a_edge10_Node000001_Node000010"><a xlink:title=" ">
<path fill="none" stroke="#63b8ff" d="M431.5,-175.99C450.91,-166.45 476.43,-153.9 495.42,-144.57"/>
<polygon fill="#63b8ff" stroke="#63b8ff" points="497,-147.69 504.43,-140.14 493.91,-141.41 497,-147.69"/>
</a>
</g>
</g>
<!-- Node3 -->
<g id="Node000003" class="node">
<title>Node3</title>
<g id="a_Node000003"><a xlink:href="bno08x__comm__interface_8hpp.html" target="_top" xlink:title="CRTP&#45;based communication interface for communicating with the BNO085.">
<polygon fill="white" stroke="#666666" points="122,-85 0,-85 0,-55 122,-55 122,-85"/>
<text text-anchor="start" x="8" y="-73" font-family="Helvetica,sans-Serif" font-size="10.00">../../../inc/bno08x</text>
<text text-anchor="middle" x="61" y="-62" font-family="Helvetica,sans-Serif" font-size="10.00">_comm_interface.hpp</text>
</a>
</g>
</g>
<!-- Node2&#45;&gt;Node3 -->
<g id="edge2_Node000002_Node000003" class="edge">
<title>Node2&#45;&gt;Node3</title>
<g id="a_edge2_Node000002_Node000003"><a xlink:title=" ">
<path fill="none" stroke="#63b8ff" d="M233.63,-120.99C203.79,-112.35 156.79,-98.74 119.35,-87.9"/>
<polygon fill="#63b8ff" stroke="#63b8ff" points="120.14,-84.48 109.56,-85.06 118.2,-91.21 120.14,-84.48"/>
</a>
</g>
</g>
<!-- Node4 -->
<g id="Node000004" class="node">
<title>Node4</title>
<g id="a_Node000004"><a xlink:title=" ">
<polygon fill="#e0e0e0" stroke="#999999" points="130,-19 80,-19 80,0 130,0 130,-19"/>
<text text-anchor="middle" x="105" y="-7" font-family="Helvetica,sans-Serif" font-size="10.00">cstdint</text>
</a>
</g>
</g>
<!-- Node2&#45;&gt;Node4 -->
<g id="edge8_Node000002_Node000004" class="edge">
<title>Node2&#45;&gt;Node4</title>
<g id="a_edge8_Node000002_Node000004"><a xlink:title=" ">
<path fill="none" stroke="#63b8ff" d="M237.87,-120.92C217.97,-113.38 190.1,-101.1 169,-85 147.69,-68.75 128.43,-44.37 116.73,-27.97"/>
<polygon fill="#63b8ff" stroke="#63b8ff" points="119.33,-25.58 110.75,-19.36 113.58,-29.57 119.33,-25.58"/>
</a>
</g>
</g>
<!-- Node5 -->
<g id="Node000005" class="node">
<title>Node5</title>
<g id="a_Node000005"><a xlink:title=" ">
<polygon fill="#e0e0e0" stroke="#999999" points="256,-79.5 178,-79.5 178,-60.5 256,-60.5 256,-79.5"/>
<text text-anchor="middle" x="217" y="-67.5" font-family="Helvetica,sans-Serif" font-size="10.00">driver/gpio.h</text>
</a>
</g>
</g>
<!-- Node2&#45;&gt;Node5 -->
<g id="edge4_Node000002_Node000005" class="edge">
<title>Node2&#45;&gt;Node5</title>
<g id="a_edge4_Node000002_Node000005"><a xlink:title=" ">
<path fill="none" stroke="#63b8ff" d="M256.21,-120.87C249.35,-112.14 238.57,-98.43 230.05,-87.59"/>
<polygon fill="#63b8ff" stroke="#63b8ff" points="232.75,-85.36 223.82,-79.67 227.25,-89.69 232.75,-85.36"/>
</a>
</g>
</g>
<!-- Node6 -->
<g id="Node000006" class="node">
<title>Node6</title>
<g id="a_Node000006"><a xlink:title=" ">
<polygon fill="#e0e0e0" stroke="#999999" points="345.5,-79.5 274.5,-79.5 274.5,-60.5 345.5,-60.5 345.5,-79.5"/>
<text text-anchor="middle" x="310" y="-67.5" font-family="Helvetica,sans-Serif" font-size="10.00">driver/i2c.h</text>
</a>
</g>
</g>
<!-- Node2&#45;&gt;Node6 -->
<g id="edge5_Node000002_Node000006" class="edge">
<title>Node2&#45;&gt;Node6</title>
<g id="a_edge5_Node000002_Node000006"><a xlink:title=" ">
<path fill="none" stroke="#63b8ff" d="M269.94,-120.87C276.95,-112.14 287.96,-98.43 296.67,-87.59"/>
<polygon fill="#63b8ff" stroke="#63b8ff" points="299.5,-89.66 303.04,-79.67 294.04,-85.27 299.5,-89.66"/>
</a>
</g>
</g>
<!-- Node7 -->
<g id="Node000007" class="node">
<title>Node7</title>
<g id="a_Node000007"><a xlink:title=" ">
<polygon fill="#e0e0e0" stroke="#999999" points="426.5,-79.5 363.5,-79.5 363.5,-60.5 426.5,-60.5 426.5,-79.5"/>
<text text-anchor="middle" x="395" y="-67.5" font-family="Helvetica,sans-Serif" font-size="10.00">esp_log.h</text>
</a>
</g>
</g>
<!-- Node2&#45;&gt;Node7 -->
<g id="edge6_Node000002_Node000007" class="edge">
<title>Node2&#45;&gt;Node7</title>
<g id="a_edge6_Node000002_Node000007"><a xlink:title=" ">
<path fill="none" stroke="#63b8ff" d="M282.19,-120.99C304.39,-111.16 341.12,-94.88 366.62,-83.58"/>
<polygon fill="#63b8ff" stroke="#63b8ff" points="368.06,-86.77 375.78,-79.52 365.22,-80.37 368.06,-86.77"/>
</a>
</g>
</g>
<!-- Node8 -->
<g id="Node000008" class="node">
<title>Node8</title>
<g id="a_Node000008"><a xlink:title=" ">
<polygon fill="#e0e0e0" stroke="#999999" points="519,-79.5 445,-79.5 445,-60.5 519,-60.5 519,-79.5"/>
<text text-anchor="middle" x="482" y="-67.5" font-family="Helvetica,sans-Serif" font-size="10.00">esp_timer.h</text>
</a>
</g>
</g>
<!-- Node2&#45;&gt;Node8 -->
<g id="edge7_Node000002_Node000008" class="edge">
<title>Node2&#45;&gt;Node8</title>
<g id="a_edge7_Node000002_Node000008"><a xlink:title=" ">
<path fill="none" stroke="#63b8ff" d="M297.91,-121C332.94,-112.35 388.38,-98.37 436,-85 438.79,-84.22 441.66,-83.39 444.56,-82.54"/>
<polygon fill="#63b8ff" stroke="#63b8ff" points="445.74,-85.84 454.33,-79.64 443.74,-79.13 445.74,-85.84"/>
</a>
</g>
</g>
<!-- Node3&#45;&gt;Node4 -->
<g id="edge3_Node000003_Node000004" class="edge">
<title>Node3&#45;&gt;Node4</title>
<g id="a_edge3_Node000003_Node000004"><a xlink:title=" ">
<path fill="none" stroke="#63b8ff" d="M71.65,-54.84C77.84,-46.61 85.69,-36.18 92.21,-27.51"/>
<polygon fill="#63b8ff" stroke="#63b8ff" points="95.19,-29.36 98.41,-19.27 89.6,-25.15 95.19,-29.36"/>
</a>
</g>
</g>
</g>
</svg>
