<?xml version="1.0" encoding="UTF-8" standalone="no"?>
<!DOCTYPE svg PUBLIC "-//W3C//DTD SVG 1.1//EN"
 "http://www.w3.org/Graphics/SVG/1.1/DTD/svg11.dtd">
<!-- Generated by graphviz version 2.43.0 (0)
 -->
<!-- Title: src/dfu/HcBin.h Pages: 1 -->
<svg width="1295pt" height="203pt"
 viewBox="0.00 0.00 1294.50 203.00" xmlns="http://www.w3.org/2000/svg" xmlns:xlink="http://www.w3.org/1999/xlink">
<g id="graph0" class="graph" transform="scale(1 1) rotate(0) translate(4 199)">
<title>src/dfu/HcBin.h</title>
<!-- Node1 -->
<g id="Node000001" class="node">
<title>Node1</title>
<g id="a_Node000001"><a xlink:title="API Definition for HcBin objects (Hillcrest Binary Files).">
<polygon fill="#999999" stroke="#666666" points="829,-195 739,-195 739,-176 829,-176 829,-195"/>
<text text-anchor="middle" x="784" y="-183" font-family="Helvetica,sans-Serif" font-size="10.00">src/dfu/HcBin.h</text>
</a>
</g>
</g>
<!-- Node2 -->
<g id="Node000002" class="node">
<title>Node2</title>
<g id="a_Node000002"><a xlink:href="BNO085_8hpp.html" target="_top" xlink:title="High level C++ interface for the BNO08x IMU family.">
<polygon fill="white" stroke="#666666" points="574.5,-85 479.5,-85 479.5,-66 574.5,-66 574.5,-85"/>
<text text-anchor="middle" x="527" y="-73" font-family="Helvetica,sans-Serif" font-size="10.00">inc/BNO085.hpp</text>
</a>
</g>
</g>
<!-- Node1&#45;&gt;Node2 -->
<g id="edge1_Node000001_Node000002" class="edge">
<title>Node1&#45;&gt;Node2</title>
<g id="a_edge1_Node000001_Node000002"><a xlink:title=" ">
<path fill="none" stroke="#63b8ff" d="M728.58,-183.37C683.71,-180.09 620.54,-169.91 574,-140 552.54,-126.21 537.45,-98.94 530.81,-85.05"/>
<polygon fill="#63b8ff" stroke="#63b8ff" points="728.51,-186.88 738.72,-184.02 728.96,-179.89 728.51,-186.88"/>
</a>
</g>
</g>
<!-- Node9 -->
<g id="Node000009" class="node">
<title>Node9</title>
<g id="a_Node000009"><a xlink:href="MemoryFirmware_8hpp.html" target="_top" xlink:title=" ">
<polygon fill="white" stroke="#666666" points="1001,-140 841,-140 841,-121 1001,-121 1001,-140"/>
<text text-anchor="middle" x="921" y="-128" font-family="Helvetica,sans-Serif" font-size="10.00">src/dfu/MemoryFirmware.hpp</text>
</a>
</g>
</g>
<!-- Node1&#45;&gt;Node9 -->
<g id="edge8_Node000001_Node000009" class="edge">
<title>Node1&#45;&gt;Node9</title>
<g id="a_edge8_Node000001_Node000009"><a xlink:title=" ">
<path fill="none" stroke="#63b8ff" d="M815.56,-172.29C840.95,-162.47 876,-148.91 898.59,-140.17"/>
<polygon fill="#63b8ff" stroke="#63b8ff" points="814.08,-169.11 806.01,-175.98 816.6,-175.64 814.08,-169.11"/>
</a>
</g>
</g>
<!-- Node10 -->
<g id="Node000010" class="node">
<title>Node10</title>
<g id="a_Node000010"><a xlink:href="dfu_8h.html" target="_top" xlink:title=" ">
<polygon fill="white" stroke="#666666" points="822.5,-140 745.5,-140 745.5,-121 822.5,-121 822.5,-140"/>
<text text-anchor="middle" x="784" y="-128" font-family="Helvetica,sans-Serif" font-size="10.00">src/dfu/dfu.h</text>
</a>
</g>
</g>
<!-- Node1&#45;&gt;Node10 -->
<g id="edge9_Node000001_Node000010" class="edge">
<title>Node1&#45;&gt;Node10</title>
<g id="a_edge9_Node000001_Node000010"><a xlink:title=" ">
<path fill="none" stroke="#63b8ff" d="M784,-165.66C784,-156.93 784,-146.99 784,-140.09"/>
<polygon fill="#63b8ff" stroke="#63b8ff" points="780.5,-165.75 784,-175.75 787.5,-165.75 780.5,-165.75"/>
</a>
</g>
</g>
<!-- Node12 -->
<g id="Node000012" class="node">
<title>Node12</title>
<g id="a_Node000012"><a xlink:href="dfu__fsp200_8cpp.html" target="_top" xlink:title=" ">
<polygon fill="white" stroke="#666666" points="719.5,-85 592.5,-85 592.5,-66 719.5,-66 719.5,-85"/>
<text text-anchor="middle" x="656" y="-73" font-family="Helvetica,sans-Serif" font-size="10.00">src/dfu/dfu_fsp200.cpp</text>
</a>
</g>
</g>
<!-- Node1&#45;&gt;Node12 -->
<g id="edge13_Node000001_Node000012" class="edge">
<title>Node1&#45;&gt;Node12</title>
<g id="a_edge13_Node000001_Node000012"><a xlink:title=" ">
<path fill="none" stroke="#63b8ff" d="M765.87,-169.21C738.61,-146.2 687.93,-103.44 666.26,-85.16"/>
<polygon fill="#63b8ff" stroke="#63b8ff" points="763.63,-171.89 773.53,-175.66 768.14,-166.54 763.63,-171.89"/>
</a>
</g>
</g>
<!-- Node13 -->
<g id="Node000013" class="node">
<title>Node13</title>
<g id="a_Node000013"><a xlink:href="firmware-bno_8c.html" target="_top" xlink:title=" ">
<polygon fill="white" stroke="#666666" points="1145,-140 1019,-140 1019,-121 1145,-121 1145,-140"/>
<text text-anchor="middle" x="1082" y="-128" font-family="Helvetica,sans-Serif" font-size="10.00">src/dfu/firmware&#45;bno.c</text>
</a>
</g>
</g>
<!-- Node1&#45;&gt;Node13 -->
<g id="edge14_Node000001_Node000013" class="edge">
<title>Node1&#45;&gt;Node13</title>
<g id="a_edge14_Node000001_Node000013"><a xlink:title=" ">
<path fill="none" stroke="#63b8ff" d="M839.35,-174.66C895.32,-164.7 980.94,-149.47 1034.09,-140.02"/>
<polygon fill="#63b8ff" stroke="#63b8ff" points="838.49,-171.25 829.26,-176.45 839.72,-178.15 838.49,-171.25"/>
</a>
</g>
</g>
<!-- Node14 -->
<g id="Node000014" class="node">
<title>Node14</title>
<g id="a_Node000014"><a xlink:href="firmware-fsp_8c.html" target="_top" xlink:title=" ">
<polygon fill="white" stroke="#666666" points="1286.5,-140 1163.5,-140 1163.5,-121 1286.5,-121 1286.5,-140"/>
<text text-anchor="middle" x="1225" y="-128" font-family="Helvetica,sans-Serif" font-size="10.00">src/dfu/firmware&#45;fsp.c</text>
</a>
</g>
</g>
<!-- Node1&#45;&gt;Node14 -->
<g id="edge15_Node000001_Node000014" class="edge">
<title>Node1&#45;&gt;Node14</title>
<g id="a_edge15_Node000001_Node000014"><a xlink:title=" ">
<path fill="none" stroke="#63b8ff" d="M839.07,-177.88C921.68,-167.95 1077.18,-149.27 1163.44,-138.9"/>
<polygon fill="#63b8ff" stroke="#63b8ff" points="838.63,-174.41 829.12,-179.08 839.47,-181.36 838.63,-174.41"/>
</a>
</g>
</g>
<!-- Node15 -->
<g id="Node000015" class="node">
<title>Node15</title>
<g id="a_Node000015"><a xlink:href="firmware_8h.html" target="_top" xlink:title=" ">
<polygon fill="white" stroke="#666666" points="688.5,-140 583.5,-140 583.5,-121 688.5,-121 688.5,-140"/>
<text text-anchor="middle" x="636" y="-128" font-family="Helvetica,sans-Serif" font-size="10.00">src/dfu/firmware.h</text>
</a>
</g>
</g>
<!-- Node1&#45;&gt;Node15 -->
<g id="edge16_Node000001_Node000015" class="edge">
<title>Node1&#45;&gt;Node15</title>
<g id="a_edge16_Node000001_Node000015"><a xlink:title=" ">
<path fill="none" stroke="#63b8ff" d="M750.63,-172.55C723.15,-162.71 684.83,-148.98 660.21,-140.17"/>
<polygon fill="#63b8ff" stroke="#63b8ff" points="749.63,-175.91 760.22,-175.98 751.99,-169.32 749.63,-175.91"/>
</a>
</g>
</g>
<!-- Node3 -->
<g id="Node000003" class="node">
<title>Node3</title>
<g id="a_Node000003"><a xlink:href="BasicPollingExample_8cpp.html" target="_top" xlink:title="Basic polling mode example with orientation and linear acceleration.">
<polygon fill="white" stroke="#666666" points="448,-30 306,-30 306,0 448,0 448,-30"/>
<text text-anchor="start" x="314" y="-18" font-family="Helvetica,sans-Serif" font-size="10.00">examples/esp32/main</text>
<text text-anchor="middle" x="377" y="-7" font-family="Helvetica,sans-Serif" font-size="10.00">/BasicPollingExample.cpp</text>
</a>
</g>
</g>
<!-- Node2&#45;&gt;Node3 -->
<g id="edge2_Node000002_Node000003" class="edge">
<title>Node2&#45;&gt;Node3</title>
<g id="a_edge2_Node000002_Node000003"><a xlink:title=" ">
<path fill="none" stroke="#63b8ff" d="M495.8,-62.33C471.7,-52.93 438.31,-39.91 413.06,-30.06"/>
<polygon fill="#63b8ff" stroke="#63b8ff" points="494.6,-65.62 505.19,-65.99 497.14,-59.1 494.6,-65.62"/>
</a>
</g>
</g>
<!-- Node4 -->
<g id="Node000004" class="node">
<title>Node4</title>
<g id="a_Node000004"><a xlink:href="DriverIntegrationTest_8cpp.html" target="_top" xlink:title="Comprehensive Integration Test Suite for BNO08x Driver.">
<polygon fill="white" stroke="#666666" points="609.5,-30 466.5,-30 466.5,0 609.5,0 609.5,-30"/>
<text text-anchor="start" x="474.5" y="-18" font-family="Helvetica,sans-Serif" font-size="10.00">examples/esp32/main</text>
<text text-anchor="middle" x="538" y="-7" font-family="Helvetica,sans-Serif" font-size="10.00">/DriverIntegrationTest.cpp</text>
</a>
</g>
</g>
<!-- Node2&#45;&gt;Node4 -->
<g id="edge3_Node000002_Node000004" class="edge">
<title>Node2&#45;&gt;Node4</title>
<g id="a_edge3_Node000002_Node000004"><a xlink:title=" ">
<path fill="none" stroke="#63b8ff" d="M530.49,-55.93C532.06,-47.58 533.89,-37.87 535.35,-30.11"/>
<polygon fill="#63b8ff" stroke="#63b8ff" points="527.03,-55.39 528.62,-65.87 533.91,-56.69 527.03,-55.39"/>
</a>
</g>
</g>
<!-- Node5 -->
<g id="Node000005" class="node">
<title>Node5</title>
<g id="a_Node000005"><a xlink:href="EventDrivenCallbackExample_8cpp.html" target="_top" xlink:title="Event&#45;driven callback example with step counter and tap detector.">
<polygon fill="white" stroke="#666666" points="812.5,-30 627.5,-30 627.5,0 812.5,0 812.5,-30"/>
<text text-anchor="start" x="635.5" y="-18" font-family="Helvetica,sans-Serif" font-size="10.00">examples/esp32/main</text>
<text text-anchor="middle" x="720" y="-7" font-family="Helvetica,sans-Serif" font-size="10.00">/EventDrivenCallbackExample.cpp</text>
</a>
</g>
</g>
<!-- Node2&#45;&gt;Node5 -->
<g id="edge4_Node000002_Node000005" class="edge">
<title>Node2&#45;&gt;Node5</title>
<g id="a_edge4_Node000002_Node000005"><a xlink:title=" ">
<path fill="none" stroke="#63b8ff" d="M564.69,-63.08C595.85,-53.63 640.25,-40.17 673.6,-30.06"/>
<polygon fill="#63b8ff" stroke="#63b8ff" points="563.62,-59.74 555.06,-65.99 565.65,-66.44 563.62,-59.74"/>
</a>
</g>
</g>
<!-- Node6 -->
<g id="Node000006" class="node">
<title>Node6</title>
<g id="a_Node000006"><a xlink:href="FullFeaturesExample_8cpp.html" target="_top" xlink:title="Comprehensive example demonstrating all BNO08x features.">
<polygon fill="white" stroke="#666666" points="142,-30 0,-30 0,0 142,0 142,-30"/>
<text text-anchor="start" x="8" y="-18" font-family="Helvetica,sans-Serif" font-size="10.00">examples/esp32/main</text>
<text text-anchor="middle" x="71" y="-7" font-family="Helvetica,sans-Serif" font-size="10.00">/FullFeaturesExample.cpp</text>
</a>
</g>
</g>
<!-- Node2&#45;&gt;Node6 -->
<g id="edge5_Node000002_Node000006" class="edge">
<title>Node2&#45;&gt;Node6</title>
<g id="a_edge5_Node000002_Node000006"><a xlink:title=" ">
<path fill="none" stroke="#63b8ff" d="M469.37,-68.68C395.47,-60.99 263.43,-46.48 151,-30 148.07,-29.57 145.08,-29.12 142.07,-28.65"/>
<polygon fill="#63b8ff" stroke="#63b8ff" points="469.1,-72.17 479.4,-69.72 469.82,-65.21 469.1,-72.17"/>
</a>
</g>
</g>
<!-- Node7 -->
<g id="Node000007" class="node">
<title>Node7</title>
<g id="a_Node000007"><a xlink:href="RvcModeExample_8cpp.html" target="_top" xlink:title="RVC (Reduced Vector Computation) mode example.">
<polygon fill="white" stroke="#666666" points="288,-30 160,-30 160,0 288,0 288,-30"/>
<text text-anchor="start" x="168" y="-18" font-family="Helvetica,sans-Serif" font-size="10.00">examples/esp32/main</text>
<text text-anchor="middle" x="224" y="-7" font-family="Helvetica,sans-Serif" font-size="10.00">/RvcModeExample.cpp</text>
</a>
</g>
</g>
<!-- Node2&#45;&gt;Node7 -->
<g id="edge6_Node000002_Node000007" class="edge">
<title>Node2&#45;&gt;Node7</title>
<g id="a_edge6_Node000002_Node000007"><a xlink:title=" ">
<path fill="none" stroke="#63b8ff" d="M472.96,-64.07C421.22,-54.08 343.12,-39 288.22,-28.4"/>
<polygon fill="#63b8ff" stroke="#63b8ff" points="472.46,-67.53 482.94,-65.99 473.79,-60.66 472.46,-67.53"/>
</a>
</g>
</g>
<!-- Node8 -->
<g id="Node000008" class="node">
<title>Node8</title>
<g id="a_Node000008"><a xlink:href="BNO085_8cpp.html" target="_top" xlink:title="Implementation of the BNO085 C++ driver.">
<polygon fill="white" stroke="#666666" points="925,-24.5 831,-24.5 831,-5.5 925,-5.5 925,-24.5"/>
<text text-anchor="middle" x="878" y="-12.5" font-family="Helvetica,sans-Serif" font-size="10.00">src/BNO085.cpp</text>
</a>
</g>
</g>
<!-- Node2&#45;&gt;Node8 -->
<g id="edge7_Node000002_Node000008" class="edge">
<title>Node2&#45;&gt;Node8</title>
<g id="a_edge7_Node000002_Node000008"><a xlink:title=" ">
<path fill="none" stroke="#63b8ff" d="M584.83,-65.74C690.95,-49.99 719.85,-50.41 822,-30 829.86,-28.43 838.28,-26.47 846.14,-24.53"/>
<polygon fill="#63b8ff" stroke="#63b8ff" points="584.03,-62.32 574.66,-67.26 585.07,-69.24 584.03,-62.32"/>
</a>
</g>
</g>
<!-- Node10&#45;&gt;Node8 -->
<g id="edge10_Node000010_Node000008" class="edge">
<title>Node10&#45;&gt;Node8</title>
<g id="a_edge10_Node000010_Node000008"><a xlink:title=" ">
<path fill="none" stroke="#63b8ff" d="M817.32,-116.59C832.04,-109.35 848.37,-98.92 859,-85 873.02,-66.63 876.7,-38.53 877.66,-24.54"/>
<polygon fill="#63b8ff" stroke="#63b8ff" points="815.59,-113.54 807.96,-120.9 818.51,-119.9 815.59,-113.54"/>
</a>
</g>
</g>
<!-- Node11 -->
<g id="Node000011" class="node">
<title>Node11</title>
<g id="a_Node000011"><a xlink:href="dfu__bno_8cpp.html" target="_top" xlink:title=" ">
<polygon fill="white" stroke="#666666" points="850,-85 738,-85 738,-66 850,-66 850,-85"/>
<text text-anchor="middle" x="794" y="-73" font-family="Helvetica,sans-Serif" font-size="10.00">src/dfu/dfu_bno.cpp</text>
</a>
</g>
</g>
<!-- Node10&#45;&gt;Node11 -->
<g id="edge11_Node000010_Node000011" class="edge">
<title>Node10&#45;&gt;Node11</title>
<g id="a_edge11_Node000010_Node000011"><a xlink:title=" ">
<path fill="none" stroke="#63b8ff" d="M787.55,-110.66C789.2,-101.93 791.08,-91.99 792.38,-85.09"/>
<polygon fill="#63b8ff" stroke="#63b8ff" points="784.07,-110.27 785.65,-120.75 790.94,-111.57 784.07,-110.27"/>
</a>
</g>
</g>
<!-- Node10&#45;&gt;Node12 -->
<g id="edge12_Node000010_Node000012" class="edge">
<title>Node10&#45;&gt;Node12</title>
<g id="a_edge12_Node000010_Node000012"><a xlink:title=" ">
<path fill="none" stroke="#63b8ff" d="M753.88,-117.03C730.21,-107.23 697.85,-93.83 676.94,-85.17"/>
<polygon fill="#63b8ff" stroke="#63b8ff" points="752.86,-120.39 763.43,-120.98 755.53,-113.93 752.86,-120.39"/>
</a>
</g>
</g>
<!-- Node15&#45;&gt;Node2 -->
<g id="edge17_Node000015_Node000002" class="edge">
<title>Node15&#45;&gt;Node2</title>
<g id="a_edge17_Node000015_Node000002"><a xlink:title=" ">
<path fill="none" stroke="#63b8ff" d="M609.27,-116.5C589.21,-106.75 562.32,-93.68 544.83,-85.17"/>
<polygon fill="#63b8ff" stroke="#63b8ff" points="607.96,-119.76 618.49,-120.98 611.02,-113.46 607.96,-119.76"/>
</a>
</g>
</g>
<!-- Node15&#45;&gt;Node11 -->
<g id="edge18_Node000015_Node000011" class="edge">
<title>Node15&#45;&gt;Node11</title>
<g id="a_edge18_Node000015_Node000011"><a xlink:title=" ">
<path fill="none" stroke="#63b8ff" d="M670.88,-117.8C700.37,-107.91 741.93,-93.97 768.42,-85.08"/>
<polygon fill="#63b8ff" stroke="#63b8ff" points="669.75,-114.49 661.39,-120.98 671.98,-121.12 669.75,-114.49"/>
</a>
</g>
</g>
<!-- Node15&#45;&gt;Node12 -->
<g id="edge19_Node000015_Node000012" class="edge">
<title>Node15&#45;&gt;Node12</title>
<g id="a_edge19_Node000015_Node000012"><a xlink:title=" ">
<path fill="none" stroke="#63b8ff" d="M642.89,-111.24C646.24,-102.37 650.1,-92.14 652.76,-85.09"/>
<polygon fill="#63b8ff" stroke="#63b8ff" points="639.56,-110.16 639.3,-120.75 646.11,-112.63 639.56,-110.16"/>
</a>
</g>
</g>
</g>
</svg>
