<?xml version="1.0" encoding="UTF-8" standalone="no"?>
<!DOCTYPE svg PUBLIC "-//W3C//DTD SVG 1.1//EN"
 "http://www.w3.org/Graphics/SVG/1.1/DTD/svg11.dtd">
<!-- Generated by graphviz version 2.43.0 (0)
 -->
<!-- Title: src/dfu/MemoryFirmware.hpp Pages: 1 -->
<svg width="1063pt" height="214pt"
 viewBox="0.00 0.00 1062.50 214.00" xmlns="http://www.w3.org/2000/svg" xmlns:xlink="http://www.w3.org/1999/xlink">
<g id="graph0" class="graph" transform="scale(1 1) rotate(0) translate(4 210)">
<title>src/dfu/MemoryFirmware.hpp</title>
<!-- Node1 -->
<g id="Node000001" class="node">
<title>Node1</title>
<g id="a_Node000001"><a xlink:title=" ">
<polygon fill="#999999" stroke="#666666" points="372.5,-206 212.5,-206 212.5,-187 372.5,-187 372.5,-206"/>
<text text-anchor="middle" x="292.5" y="-194" font-family="Helvetica,sans-Serif" font-size="10.00">src/dfu/MemoryFirmware.hpp</text>
</a>
</g>
</g>
<!-- Node2 -->
<g id="Node000002" class="node">
<title>Node2</title>
<g id="a_Node000002"><a xlink:href="dfu__example_8cpp.html" target="_top" xlink:title="Device Firmware Update (DFU) example for BNO08x.">
<polygon fill="white" stroke="#666666" points="125,-35.5 0,-35.5 0,-5.5 125,-5.5 125,-35.5"/>
<text text-anchor="start" x="8" y="-23.5" font-family="Helvetica,sans-Serif" font-size="10.00">examples/esp32/main</text>
<text text-anchor="middle" x="62.5" y="-12.5" font-family="Helvetica,sans-Serif" font-size="10.00">/dfu_example.cpp</text>
</a>
</g>
</g>
<!-- Node1&#45;&gt;Node2 -->
<g id="edge1_Node000001_Node000002" class="edge">
<title>Node1&#45;&gt;Node2</title>
<g id="a_edge1_Node000001_Node000002"><a xlink:title=" ">
<path fill="none" stroke="#63b8ff" d="M272.99,-180.74C229.34,-147.72 124.3,-68.25 81.32,-35.73"/>
<polygon fill="#63b8ff" stroke="#63b8ff" points="271.01,-183.63 281.09,-186.87 275.23,-178.05 271.01,-183.63"/>
</a>
</g>
</g>
<!-- Node3 -->
<g id="Node000003" class="node">
<title>Node3</title>
<g id="a_Node000003"><a xlink:href="bno08x_8cpp.html" target="_top" xlink:title="Template method implementations for the BNO085 driver class.">
<polygon fill="white" stroke="#666666" points="495.5,-151 405.5,-151 405.5,-132 495.5,-132 495.5,-151"/>
<text text-anchor="middle" x="450.5" y="-139" font-family="Helvetica,sans-Serif" font-size="10.00">src/bno08x.cpp</text>
</a>
</g>
</g>
<!-- Node1&#45;&gt;Node3 -->
<g id="edge2_Node000001_Node000003" class="edge">
<title>Node1&#45;&gt;Node3</title>
<g id="a_edge2_Node000001_Node000003"><a xlink:title=" ">
<path fill="none" stroke="#63b8ff" d="M327.38,-183.8C356.87,-173.91 398.43,-159.97 424.92,-151.08"/>
<polygon fill="#63b8ff" stroke="#63b8ff" points="326.25,-180.49 317.89,-186.98 328.48,-187.12 326.25,-180.49"/>
</a>
</g>
</g>
<!-- Node4 -->
<g id="Node000004" class="node">
<title>Node4</title>
<g id="a_Node000004"><a xlink:href="bno08x_8hpp.html" target="_top" xlink:title="High&#45;level C++ driver for the BNO08x 9&#45;axis IMU family.">
<polygon fill="white" stroke="#666666" points="496,-96 405,-96 405,-77 496,-77 496,-96"/>
<text text-anchor="middle" x="450.5" y="-84" font-family="Helvetica,sans-Serif" font-size="10.00">inc/bno08x.hpp</text>
</a>
</g>
</g>
<!-- Node3&#45;&gt;Node4 -->
<g id="edge3_Node000003_Node000004" class="edge">
<title>Node3&#45;&gt;Node4</title>
<g id="a_edge3_Node000003_Node000004"><a xlink:title=" ">
<path fill="none" stroke="#63b8ff" d="M444.01,-121.66C443.41,-112.93 443.86,-102.99 445.37,-96.09"/>
<polygon fill="#63b8ff" stroke="#63b8ff" points="440.56,-122.29 445.33,-131.75 447.5,-121.38 440.56,-122.29"/>
</a>
</g>
</g>
<!-- Node4&#45;&gt;Node2 -->
<g id="edge5_Node000004_Node000002" class="edge">
<title>Node4&#45;&gt;Node2</title>
<g id="a_edge5_Node000004_Node000002"><a xlink:title=" ">
<path fill="none" stroke="#63b8ff" d="M394.75,-79.78C331.33,-72.77 224.86,-59.52 134.5,-41 126.89,-39.44 118.89,-37.54 111.1,-35.54"/>
<polygon fill="#63b8ff" stroke="#63b8ff" points="394.61,-83.28 404.93,-80.89 395.37,-76.32 394.61,-83.28"/>
</a>
</g>
</g>
<!-- Node4&#45;&gt;Node3 -->
<g id="edge11_Node000004_Node000003" class="edge">
<title>Node4&#45;&gt;Node3</title>
<g id="a_edge11_Node000004_Node000003"><a xlink:title=" ">
<path fill="none" stroke="#63b8ff" d="M456.98,-106.13C457.6,-114.85 457.16,-124.8 455.67,-131.75"/>
<polygon fill="#63b8ff" stroke="#63b8ff" points="460.43,-105.53 455.63,-96.09 453.49,-106.47 460.43,-105.53"/>
</a>
</g>
</g>
<!-- Node5 -->
<g id="Node000005" class="node">
<title>Node5</title>
<g id="a_Node000005"><a xlink:href="basic__polling__example_8cpp.html" target="_top" xlink:title="Basic polling mode example with orientation and linear acceleration.">
<polygon fill="white" stroke="#666666" points="295.5,-35.5 143.5,-35.5 143.5,-5.5 295.5,-5.5 295.5,-35.5"/>
<text text-anchor="start" x="151.5" y="-23.5" font-family="Helvetica,sans-Serif" font-size="10.00">examples/esp32/main</text>
<text text-anchor="middle" x="219.5" y="-12.5" font-family="Helvetica,sans-Serif" font-size="10.00">/basic_polling_example.cpp</text>
</a>
</g>
</g>
<!-- Node4&#45;&gt;Node5 -->
<g id="edge4_Node000004_Node000005" class="edge">
<title>Node4&#45;&gt;Node5</title>
<g id="a_edge4_Node000004_Node000005"><a xlink:title=" ">
<path fill="none" stroke="#63b8ff" d="M409.43,-74.12C370.6,-63.36 312.23,-47.19 270.45,-35.62"/>
<polygon fill="#63b8ff" stroke="#63b8ff" points="408.77,-77.57 419.35,-76.87 410.64,-70.83 408.77,-77.57"/>
</a>
</g>
</g>
<!-- Node6 -->
<g id="Node000006" class="node">
<title>Node6</title>
<g id="a_Node000006"><a xlink:href="dfu__workflow__test_8cpp.html" target="_top" xlink:title="DFU workflow integration test for BNO08x on ESP32.">
<polygon fill="white" stroke="#666666" points="443,-35.5 314,-35.5 314,-5.5 443,-5.5 443,-35.5"/>
<text text-anchor="start" x="322" y="-23.5" font-family="Helvetica,sans-Serif" font-size="10.00">examples/esp32/main</text>
<text text-anchor="middle" x="378.5" y="-12.5" font-family="Helvetica,sans-Serif" font-size="10.00">/dfu_workflow_test.cpp</text>
</a>
</g>
</g>
<!-- Node4&#45;&gt;Node6 -->
<g id="edge6_Node000004_Node000006" class="edge">
<title>Node4&#45;&gt;Node6</title>
<g id="a_edge6_Node000004_Node000006"><a xlink:title=" ">
<path fill="none" stroke="#63b8ff" d="M433.3,-70.21C421.48,-59.71 405.91,-45.86 394.38,-35.62"/>
<polygon fill="#63b8ff" stroke="#63b8ff" points="430.99,-72.84 440.79,-76.87 435.64,-67.61 430.99,-72.84"/>
</a>
</g>
</g>
<!-- Node7 -->
<g id="Node000007" class="node">
<title>Node7</title>
<g id="a_Node000007"><a xlink:href="driver__integration__test_8cpp.html" target="_top" xlink:title="Comprehensive Integration Test Suite for BNO08x Driver.">
<polygon fill="white" stroke="#666666" points="586,-41 461,-41 461,0 586,0 586,-41"/>
<text text-anchor="start" x="469" y="-29" font-family="Helvetica,sans-Serif" font-size="10.00">examples/esp32/main</text>
<text text-anchor="start" x="469" y="-18" font-family="Helvetica,sans-Serif" font-size="10.00">/driver_integration</text>
<text text-anchor="middle" x="523.5" y="-7" font-family="Helvetica,sans-Serif" font-size="10.00">_test.cpp</text>
</a>
</g>
</g>
<!-- Node4&#45;&gt;Node7 -->
<g id="edge7_Node000004_Node000007" class="edge">
<title>Node4&#45;&gt;Node7</title>
<g id="a_edge7_Node000004_Node000007"><a xlink:title=" ">
<path fill="none" stroke="#63b8ff" d="M468.01,-70.15C477.98,-61.41 490.58,-50.36 501.25,-41.01"/>
<polygon fill="#63b8ff" stroke="#63b8ff" points="465.56,-67.64 460.35,-76.87 470.17,-72.91 465.56,-67.64"/>
</a>
</g>
</g>
<!-- Node8 -->
<g id="Node000008" class="node">
<title>Node8</title>
<g id="a_Node000008"><a xlink:href="event__driven__callback__example_8cpp.html" target="_top" xlink:title="Event&#45;driven callback example with step counter and tap detector.">
<polygon fill="white" stroke="#666666" points="733,-41 604,-41 604,0 733,0 733,-41"/>
<text text-anchor="start" x="612" y="-29" font-family="Helvetica,sans-Serif" font-size="10.00">examples/esp32/main</text>
<text text-anchor="start" x="612" y="-18" font-family="Helvetica,sans-Serif" font-size="10.00">/event_driven_callback</text>
<text text-anchor="middle" x="668.5" y="-7" font-family="Helvetica,sans-Serif" font-size="10.00">_example.cpp</text>
</a>
</g>
</g>
<!-- Node4&#45;&gt;Node8 -->
<g id="edge8_Node000004_Node000008" class="edge">
<title>Node4&#45;&gt;Node8</title>
<g id="a_edge8_Node000004_Node000008"><a xlink:title=" ">
<path fill="none" stroke="#63b8ff" d="M489.7,-73.99C521.43,-64.68 566.78,-51.36 603.87,-40.47"/>
<polygon fill="#63b8ff" stroke="#63b8ff" points="488.51,-70.69 479.9,-76.87 490.48,-77.41 488.51,-70.69"/>
</a>
</g>
</g>
<!-- Node9 -->
<g id="Node000009" class="node">
<title>Node9</title>
<g id="a_Node000009"><a xlink:href="full__features__example_8cpp.html" target="_top" xlink:title="Comprehensive example demonstrating all BNO08x features.">
<polygon fill="white" stroke="#666666" points="900,-35.5 751,-35.5 751,-5.5 900,-5.5 900,-35.5"/>
<text text-anchor="start" x="759" y="-23.5" font-family="Helvetica,sans-Serif" font-size="10.00">examples/esp32/main</text>
<text text-anchor="middle" x="825.5" y="-12.5" font-family="Helvetica,sans-Serif" font-size="10.00">/full_features_example.cpp</text>
</a>
</g>
</g>
<!-- Node4&#45;&gt;Node9 -->
<g id="edge9_Node000004_Node000009" class="edge">
<title>Node4&#45;&gt;Node9</title>
<g id="a_edge9_Node000004_Node000009"><a xlink:title=" ">
<path fill="none" stroke="#63b8ff" d="M506.42,-78.32C565.37,-70.44 660.81,-56.8 742.5,-41 750.93,-39.37 759.8,-37.48 768.48,-35.53"/>
<polygon fill="#63b8ff" stroke="#63b8ff" points="505.67,-74.89 496.21,-79.68 506.59,-81.83 505.67,-74.89"/>
</a>
</g>
</g>
<!-- Node10 -->
<g id="Node000010" class="node">
<title>Node10</title>
<g id="a_Node000010"><a xlink:href="rvc__mode__example_8cpp.html" target="_top" xlink:title="RVC (Rotation Vector Computation) mode example.">
<polygon fill="white" stroke="#666666" points="1054.5,-35.5 918.5,-35.5 918.5,-5.5 1054.5,-5.5 1054.5,-35.5"/>
<text text-anchor="start" x="926.5" y="-23.5" font-family="Helvetica,sans-Serif" font-size="10.00">examples/esp32/main</text>
<text text-anchor="middle" x="986.5" y="-12.5" font-family="Helvetica,sans-Serif" font-size="10.00">/rvc_mode_example.cpp</text>
</a>
</g>
</g>
<!-- Node4&#45;&gt;Node10 -->
<g id="edge10_Node000004_Node000010" class="edge">
<title>Node4&#45;&gt;Node10</title>
<g id="a_edge10_Node000004_Node000010"><a xlink:title=" ">
<path fill="none" stroke="#63b8ff" d="M506.23,-82.82C592.97,-78.04 765.3,-66.1 909.5,-41 917.92,-39.53 926.78,-37.63 935.37,-35.6"/>
<polygon fill="#63b8ff" stroke="#63b8ff" points="505.88,-79.34 496.08,-83.37 506.26,-86.33 505.88,-79.34"/>
</a>
</g>
</g>
</g>
</svg>
