<?xml version="1.0" encoding="UTF-8" standalone="no"?>
<!DOCTYPE svg PUBLIC "-//W3C//DTD SVG 1.1//EN"
 "http://www.w3.org/Graphics/SVG/1.1/DTD/svg11.dtd">
<!-- Generated by graphviz version 2.43.0 (0)
 -->
<!-- Title: examples/esp32/main/TestFramework.h Pages: 1 -->
<svg width="280pt" height="115pt"
 viewBox="0.00 0.00 280.00 115.00" xmlns="http://www.w3.org/2000/svg" xmlns:xlink="http://www.w3.org/1999/xlink">
<g id="graph0" class="graph" transform="scale(1 1) rotate(0) translate(4 111)">
<title>examples/esp32/main/TestFramework.h</title>
<!-- Node1 -->
<g id="Node000001" class="node">
<title>Node1</title>
<g id="a_Node000001"><a xlink:title="Shared testing framework for ESP32&#45;C6 comprehensive test suites.">
<polygon fill="#999999" stroke="#666666" points="199,-107 74,-107 74,-77 199,-77 199,-107"/>
<text text-anchor="start" x="82" y="-95" font-family="Helvetica,sans-Serif" font-size="10.00">examples/esp32/main</text>
<text text-anchor="middle" x="136.5" y="-84" font-family="Helvetica,sans-Serif" font-size="10.00">/TestFramework.h</text>
</a>
</g>
</g>
<!-- Node2 -->
<g id="Node000002" class="node">
<title>Node2</title>
<g id="a_Node000002"><a xlink:href="dfu__workflow__test_8cpp.html" target="_top" xlink:title="DFU workflow integration test for BNO08x on ESP32.">
<polygon fill="white" stroke="#666666" points="129,-35.5 0,-35.5 0,-5.5 129,-5.5 129,-35.5"/>
<text text-anchor="start" x="8" y="-23.5" font-family="Helvetica,sans-Serif" font-size="10.00">examples/esp32/main</text>
<text text-anchor="middle" x="64.5" y="-12.5" font-family="Helvetica,sans-Serif" font-size="10.00">/dfu_workflow_test.cpp</text>
</a>
</g>
</g>
<!-- Node1&#45;&gt;Node2 -->
<g id="edge1_Node000001_Node000002" class="edge">
<title>Node1&#45;&gt;Node2</title>
<g id="a_edge1_Node000001_Node000002"><a xlink:title=" ">
<path fill="none" stroke="#63b8ff" d="M114.73,-69.99C103.18,-58.84 89.29,-45.43 79.05,-35.54"/>
<polygon fill="#63b8ff" stroke="#63b8ff" points="112.3,-72.51 121.93,-76.94 117.17,-67.47 112.3,-72.51"/>
</a>
</g>
</g>
<!-- Node3 -->
<g id="Node000003" class="node">
<title>Node3</title>
<g id="a_Node000003"><a xlink:href="driver__integration__test_8cpp.html" target="_top" xlink:title="Comprehensive Integration Test Suite for BNO08x Driver.">
<polygon fill="white" stroke="#666666" points="272,-41 147,-41 147,0 272,0 272,-41"/>
<text text-anchor="start" x="155" y="-29" font-family="Helvetica,sans-Serif" font-size="10.00">examples/esp32/main</text>
<text text-anchor="start" x="155" y="-18" font-family="Helvetica,sans-Serif" font-size="10.00">/driver_integration</text>
<text text-anchor="middle" x="209.5" y="-7" font-family="Helvetica,sans-Serif" font-size="10.00">_test.cpp</text>
</a>
</g>
</g>
<!-- Node1&#45;&gt;Node3 -->
<g id="edge2_Node000001_Node000003" class="edge">
<title>Node1&#45;&gt;Node3</title>
<g id="a_edge2_Node000001_Node000003"><a xlink:title=" ">
<path fill="none" stroke="#63b8ff" d="M158.6,-69.96C168.24,-60.78 179.48,-50.08 188.94,-41.07"/>
<polygon fill="#63b8ff" stroke="#63b8ff" points="156.1,-67.51 151.27,-76.94 160.93,-72.58 156.1,-67.51"/>
</a>
</g>
</g>
</g>
</svg>
