<?xml version="1.0" encoding="UTF-8" standalone="no"?>
<!DOCTYPE svg PUBLIC "-//W3C//DTD SVG 1.1//EN"
 "http://www.w3.org/Graphics/SVG/1.1/DTD/svg11.dtd">
<!-- Generated by graphviz version 2.43.0 (0)
 -->
<!-- Title: inc/bno08x.hpp Pages: 1 -->
<svg width="952pt" height="137pt"
 viewBox="0.00 0.00 951.50 137.00" xmlns="http://www.w3.org/2000/svg" xmlns:xlink="http://www.w3.org/1999/xlink">
<g id="graph0" class="graph" transform="scale(1 1) rotate(0) translate(4 133)">
<title>inc/bno08x.hpp</title>
<!-- Node1 -->
<g id="Node000001" class="node">
<title>Node1</title>
<g id="a_Node000001"><a xlink:title="High&#45;level C++ driver for the BNO08x 9&#45;axis IMU family.">
<polygon fill="#999999" stroke="#666666" points="512.5,-129 421.5,-129 421.5,-110 512.5,-110 512.5,-129"/>
<text text-anchor="middle" x="467" y="-117" font-family="Helvetica,sans-Serif" font-size="10.00">inc/bno08x.hpp</text>
</a>
</g>
</g>
<!-- Node2 -->
<g id="Node000002" class="node">
<title>Node2</title>
<g id="a_Node000002"><a xlink:href="bno08x__comm__interface_8hpp.html" target="_top" xlink:title="CRTP&#45;based communication interface for the BNO08x IMU family.">
<polygon fill="white" stroke="#666666" points="158,-74 0,-74 0,-55 158,-55 158,-74"/>
<text text-anchor="middle" x="79" y="-62" font-family="Helvetica,sans-Serif" font-size="10.00">bno08x_comm_interface.hpp</text>
</a>
</g>
</g>
<!-- Node1&#45;&gt;Node2 -->
<g id="edge1_Node000001_Node000002" class="edge">
<title>Node1&#45;&gt;Node2</title>
<g id="a_edge1_Node000001_Node000002"><a xlink:title=" ">
<path fill="none" stroke="#63b8ff" d="M421.35,-112.26C354.92,-103.19 230.93,-86.25 151.81,-75.45"/>
<polygon fill="#63b8ff" stroke="#63b8ff" points="151.81,-71.91 141.43,-74.03 150.86,-78.85 151.81,-71.91"/>
</a>
</g>
</g>
<!-- Node3 -->
<g id="Node000003" class="node">
<title>Node3</title>
<g id="a_Node000003"><a xlink:title=" ">
<polygon fill="#e0e0e0" stroke="#999999" points="155,-19 105,-19 105,0 155,0 155,-19"/>
<text text-anchor="middle" x="130" y="-7" font-family="Helvetica,sans-Serif" font-size="10.00">cstdint</text>
</a>
</g>
</g>
<!-- Node1&#45;&gt;Node3 -->
<g id="edge6_Node000001_Node000003" class="edge">
<title>Node1&#45;&gt;Node3</title>
<g id="a_edge6_Node000001_Node000003"><a xlink:title=" ">
<path fill="none" stroke="#63b8ff" d="M421.28,-117.97C367.23,-115.75 275.7,-106.89 205,-74 180.72,-62.71 158.03,-41.4 144.09,-26.59"/>
<polygon fill="#63b8ff" stroke="#63b8ff" points="146.63,-24.18 137.3,-19.14 141.45,-28.89 146.63,-24.18"/>
</a>
</g>
</g>
<!-- Node4 -->
<g id="Node000004" class="node">
<title>Node4</title>
<g id="a_Node000004"><a xlink:href="HcBin_8h.html" target="_top" xlink:title="API Definition for HcBin objects (Hillcrest Binary Files).">
<polygon fill="white" stroke="#666666" points="287.5,-74 214.5,-74 214.5,-55 287.5,-55 287.5,-74"/>
<text text-anchor="middle" x="251" y="-62" font-family="Helvetica,sans-Serif" font-size="10.00">dfu/HcBin.h</text>
</a>
</g>
</g>
<!-- Node1&#45;&gt;Node4 -->
<g id="edge3_Node000001_Node000004" class="edge">
<title>Node1&#45;&gt;Node4</title>
<g id="a_edge3_Node000001_Node000004"><a xlink:title=" ">
<path fill="none" stroke="#63b8ff" d="M432.3,-109.98C395.25,-100.89 336.41,-86.46 295.87,-76.51"/>
<polygon fill="#63b8ff" stroke="#63b8ff" points="296.52,-73.07 285.98,-74.08 294.85,-79.86 296.52,-73.07"/>
</a>
</g>
</g>
<!-- Node6 -->
<g id="Node000006" class="node">
<title>Node6</title>
<g id="a_Node000006"><a xlink:title=" ">
<polygon fill="#e0e0e0" stroke="#999999" points="348,-74 306,-74 306,-55 348,-55 348,-74"/>
<text text-anchor="middle" x="327" y="-62" font-family="Helvetica,sans-Serif" font-size="10.00">array</text>
</a>
</g>
</g>
<!-- Node1&#45;&gt;Node6 -->
<g id="edge5_Node000001_Node000006" class="edge">
<title>Node1&#45;&gt;Node6</title>
<g id="a_edge5_Node000001_Node000006"><a xlink:title=" ">
<path fill="none" stroke="#63b8ff" d="M444.51,-109.98C420.93,-101.06 383.74,-86.98 357.52,-77.05"/>
<polygon fill="#63b8ff" stroke="#63b8ff" points="358.66,-73.74 348.06,-73.47 356.18,-80.29 358.66,-73.74"/>
</a>
</g>
</g>
<!-- Node7 -->
<g id="Node000007" class="node">
<title>Node7</title>
<g id="a_Node000007"><a xlink:title=" ">
<polygon fill="#e0e0e0" stroke="#999999" points="416,-74 366,-74 366,-55 416,-55 416,-74"/>
<text text-anchor="middle" x="391" y="-62" font-family="Helvetica,sans-Serif" font-size="10.00">cstring</text>
</a>
</g>
</g>
<!-- Node1&#45;&gt;Node7 -->
<g id="edge7_Node000001_Node000007" class="edge">
<title>Node1&#45;&gt;Node7</title>
<g id="a_edge7_Node000001_Node000007"><a xlink:title=" ">
<path fill="none" stroke="#63b8ff" d="M454.79,-109.98C443.22,-101.92 425.62,-89.65 411.84,-80.03"/>
<polygon fill="#63b8ff" stroke="#63b8ff" points="413.64,-77.02 403.43,-74.17 409.63,-82.76 413.64,-77.02"/>
</a>
</g>
</g>
<!-- Node8 -->
<g id="Node000008" class="node">
<title>Node8</title>
<g id="a_Node000008"><a xlink:title=" ">
<polygon fill="#e0e0e0" stroke="#999999" points="499.5,-74 434.5,-74 434.5,-55 499.5,-55 499.5,-74"/>
<text text-anchor="middle" x="467" y="-62" font-family="Helvetica,sans-Serif" font-size="10.00">functional</text>
</a>
</g>
</g>
<!-- Node1&#45;&gt;Node8 -->
<g id="edge8_Node000001_Node000008" class="edge">
<title>Node1&#45;&gt;Node8</title>
<g id="a_edge8_Node000001_Node000008"><a xlink:title=" ">
<path fill="none" stroke="#63b8ff" d="M467,-109.75C467,-102.8 467,-92.85 467,-84.13"/>
<polygon fill="#63b8ff" stroke="#63b8ff" points="470.5,-84.09 467,-74.09 463.5,-84.09 470.5,-84.09"/>
</a>
</g>
</g>
<!-- Node9 -->
<g id="Node000009" class="node">
<title>Node9</title>
<g id="a_Node000009"><a xlink:title=" ">
<polygon fill="#e0e0e0" stroke="#999999" points="580.5,-74 517.5,-74 517.5,-55 580.5,-55 580.5,-74"/>
<text text-anchor="middle" x="549" y="-62" font-family="Helvetica,sans-Serif" font-size="10.00">sh2/sh2.h</text>
</a>
</g>
</g>
<!-- Node1&#45;&gt;Node9 -->
<g id="edge9_Node000001_Node000009" class="edge">
<title>Node1&#45;&gt;Node9</title>
<g id="a_edge9_Node000001_Node000009"><a xlink:title=" ">
<path fill="none" stroke="#63b8ff" d="M480.17,-109.98C492.77,-101.84 512,-89.41 526.94,-79.76"/>
<polygon fill="#63b8ff" stroke="#63b8ff" points="529.09,-82.54 535.59,-74.17 525.29,-76.66 529.09,-82.54"/>
</a>
</g>
</g>
<!-- Node10 -->
<g id="Node000010" class="node">
<title>Node10</title>
<g id="a_Node000010"><a xlink:title=" ">
<polygon fill="#e0e0e0" stroke="#999999" points="727,-74 599,-74 599,-55 727,-55 727,-74"/>
<text text-anchor="middle" x="663" y="-62" font-family="Helvetica,sans-Serif" font-size="10.00">sh2/sh2_SensorValue.h</text>
</a>
</g>
</g>
<!-- Node1&#45;&gt;Node10 -->
<g id="edge10_Node000001_Node000010" class="edge">
<title>Node1&#45;&gt;Node10</title>
<g id="a_edge10_Node000001_Node000010"><a xlink:title=" ">
<path fill="none" stroke="#63b8ff" d="M498.49,-109.98C531.82,-100.97 584.6,-86.7 621.35,-76.76"/>
<polygon fill="#63b8ff" stroke="#63b8ff" points="622.52,-80.07 631.26,-74.08 620.7,-73.31 622.52,-80.07"/>
</a>
</g>
</g>
<!-- Node11 -->
<g id="Node000011" class="node">
<title>Node11</title>
<g id="a_Node000011"><a xlink:title=" ">
<polygon fill="#e0e0e0" stroke="#999999" points="826.5,-74 745.5,-74 745.5,-55 826.5,-55 826.5,-74"/>
<text text-anchor="middle" x="786" y="-62" font-family="Helvetica,sans-Serif" font-size="10.00">sh2/sh2_err.h</text>
</a>
</g>
</g>
<!-- Node1&#45;&gt;Node11 -->
<g id="edge11_Node000001_Node000011" class="edge">
<title>Node1&#45;&gt;Node11</title>
<g id="a_edge11_Node000001_Node000011"><a xlink:title=" ">
<path fill="none" stroke="#63b8ff" d="M512.7,-111C564.19,-102.54 650.67,-88.29 735.3,-74.11"/>
<polygon fill="#63b8ff" stroke="#63b8ff" points="736.06,-77.53 745.34,-72.43 734.9,-70.63 736.06,-77.53"/>
</a>
</g>
</g>
<!-- Node12 -->
<g id="Node000012" class="node">
<title>Node12</title>
<g id="a_Node000012"><a xlink:href="bno08x_8cpp.html" target="_top" xlink:title="Template method implementations for the BNO085 driver class.">
<polygon fill="white" stroke="#666666" points="943.5,-74 844.5,-74 844.5,-55 943.5,-55 943.5,-74"/>
<text text-anchor="middle" x="894" y="-62" font-family="Helvetica,sans-Serif" font-size="10.00">../src/bno08x.cpp</text>
</a>
</g>
</g>
<!-- Node1&#45;&gt;Node12 -->
<g id="edge12_Node000001_Node000012" class="edge">
<title>Node1&#45;&gt;Node12</title>
<g id="a_edge12_Node000001_Node000012"><a xlink:title=" ">
<path fill="none" stroke="#63b8ff" d="M512.65,-112.69C581.11,-104.56 713.95,-89.1 827,-74 829.34,-73.69 831.73,-73.36 834.16,-73.03"/>
<polygon fill="#63b8ff" stroke="#63b8ff" points="834.81,-76.47 844.23,-71.62 833.84,-69.54 834.81,-76.47"/>
</a>
</g>
</g>
<!-- Node2&#45;&gt;Node3 -->
<g id="edge2_Node000002_Node000003" class="edge">
<title>Node2&#45;&gt;Node3</title>
<g id="a_edge2_Node000002_Node000003"><a xlink:title=" ">
<path fill="none" stroke="#63b8ff" d="M87.42,-54.75C94.77,-47.11 105.63,-35.82 114.54,-26.56"/>
<polygon fill="#63b8ff" stroke="#63b8ff" points="117.32,-28.72 121.74,-19.09 112.28,-23.87 117.32,-28.72"/>
</a>
</g>
</g>
<!-- Node5 -->
<g id="Node000005" class="node">
<title>Node5</title>
<g id="a_Node000005"><a xlink:title=" ">
<polygon fill="#e0e0e0" stroke="#999999" points="277.5,-19 224.5,-19 224.5,0 277.5,0 277.5,-19"/>
<text text-anchor="middle" x="251" y="-7" font-family="Helvetica,sans-Serif" font-size="10.00">stdint.h</text>
</a>
</g>
</g>
<!-- Node4&#45;&gt;Node5 -->
<g id="edge4_Node000004_Node000005" class="edge">
<title>Node4&#45;&gt;Node5</title>
<g id="a_edge4_Node000004_Node000005"><a xlink:title=" ">
<path fill="none" stroke="#63b8ff" d="M251,-54.75C251,-47.8 251,-37.85 251,-29.13"/>
<polygon fill="#63b8ff" stroke="#63b8ff" points="254.5,-29.09 251,-19.09 247.5,-29.09 254.5,-29.09"/>
</a>
</g>
</g>
<!-- Node12&#45;&gt;Node1 -->
<g id="edge13_Node000012_Node000001" class="edge">
<title>Node12&#45;&gt;Node1</title>
<g id="a_edge13_Node000012_Node000001"><a xlink:title=" ">
<path fill="none" stroke="#63b8ff" d="M844.65,-74.05C730.64,-89.27 596.6,-104.85 522.7,-112.91"/>
<polygon fill="#63b8ff" stroke="#63b8ff" points="522.25,-109.44 512.68,-113.99 523,-116.4 522.25,-109.44"/>
</a>
</g>
</g>
<!-- Node13 -->
<g id="Node000013" class="node">
<title>Node13</title>
<g id="a_Node000013"><a xlink:title=" ">
<polygon fill="#e0e0e0" stroke="#999999" points="926,-19 862,-19 862,0 926,0 926,-19"/>
<text text-anchor="middle" x="894" y="-7" font-family="Helvetica,sans-Serif" font-size="10.00">algorithm</text>
</a>
</g>
</g>
<!-- Node12&#45;&gt;Node13 -->
<g id="edge14_Node000012_Node000013" class="edge">
<title>Node12&#45;&gt;Node13</title>
<g id="a_edge14_Node000012_Node000013"><a xlink:title=" ">
<path fill="none" stroke="#63b8ff" d="M894,-54.75C894,-47.8 894,-37.85 894,-29.13"/>
<polygon fill="#63b8ff" stroke="#63b8ff" points="897.5,-29.09 894,-19.09 890.5,-29.09 897.5,-29.09"/>
</a>
</g>
</g>
</g>
</svg>
