<?xml version="1.0" encoding="UTF-8" standalone="no"?>
<!DOCTYPE svg PUBLIC "-//W3C//DTD SVG 1.1//EN"
 "http://www.w3.org/Graphics/SVG/1.1/DTD/svg11.dtd">
<!-- Generated by graphviz version 2.43.0 (0)
 -->
<!-- Title: examples/esp32/main/driver_integration_test.cpp Pages: 1 -->
<svg width="1962pt" height="324pt"
 viewBox="0.00 0.00 1962.00 324.00" xmlns="http://www.w3.org/2000/svg" xmlns:xlink="http://www.w3.org/1999/xlink">
<g id="graph0" class="graph" transform="scale(1 1) rotate(0) translate(4 320)">
<title>examples/esp32/main/driver_integration_test.cpp</title>
<!-- Node1 -->
<g id="Node000001" class="node">
<title>Node1</title>
<g id="a_Node000001"><a xlink:title="Comprehensive Integration Test Suite for BNO08x Driver.">
<polygon fill="#999999" stroke="#666666" points="1636.5,-316 1511.5,-316 1511.5,-275 1636.5,-275 1636.5,-316"/>
<text text-anchor="start" x="1519.5" y="-304" font-family="Helvetica,sans-Serif" font-size="10.00">examples/esp32/main</text>
<text text-anchor="start" x="1519.5" y="-293" font-family="Helvetica,sans-Serif" font-size="10.00">/driver_integration</text>
<text text-anchor="middle" x="1574" y="-282" font-family="Helvetica,sans-Serif" font-size="10.00">_test.cpp</text>
</a>
</g>
</g>
<!-- Node2 -->
<g id="Node000002" class="node">
<title>Node2</title>
<g id="a_Node000002"><a xlink:title=" ">
<polygon fill="#e0e0e0" stroke="#999999" points="1387.5,-184 1324.5,-184 1324.5,-165 1387.5,-165 1387.5,-184"/>
<text text-anchor="middle" x="1356" y="-172" font-family="Helvetica,sans-Serif" font-size="10.00">esp_log.h</text>
</a>
</g>
</g>
<!-- Node1&#45;&gt;Node2 -->
<g id="edge1_Node000001_Node000002" class="edge">
<title>Node1&#45;&gt;Node2</title>
<g id="a_edge1_Node000001_Node000002"><a xlink:title=" ">
<path fill="none" stroke="#63b8ff" d="M1515.66,-274.99C1490.68,-265.6 1461.65,-253.27 1437,-239 1413.25,-225.25 1388.85,-205.15 1373.12,-191.26"/>
<polygon fill="#63b8ff" stroke="#63b8ff" points="1375.11,-188.34 1365.34,-184.27 1370.44,-193.55 1375.11,-188.34"/>
</a>
</g>
</g>
<!-- Node3 -->
<g id="Node000003" class="node">
<title>Node3</title>
<g id="a_Node000003"><a xlink:title=" ">
<polygon fill="#e0e0e0" stroke="#999999" points="1724,-239 1640,-239 1640,-220 1724,-220 1724,-239"/>
<text text-anchor="middle" x="1682" y="-227" font-family="Helvetica,sans-Serif" font-size="10.00">esp_system.h</text>
</a>
</g>
</g>
<!-- Node1&#45;&gt;Node3 -->
<g id="edge2_Node000001_Node000003" class="edge">
<title>Node1&#45;&gt;Node3</title>
<g id="a_edge2_Node000001_Node000003"><a xlink:title=" ">
<path fill="none" stroke="#63b8ff" d="M1606.99,-274.95C1623.74,-265.03 1643.68,-253.21 1658.79,-244.25"/>
<polygon fill="#63b8ff" stroke="#63b8ff" points="1660.68,-247.2 1667.5,-239.09 1657.11,-241.18 1660.68,-247.2"/>
</a>
</g>
</g>
<!-- Node4 -->
<g id="Node000004" class="node">
<title>Node4</title>
<g id="a_Node000004"><a xlink:title=" ">
<polygon fill="#e0e0e0" stroke="#999999" points="1847.5,-184 1734.5,-184 1734.5,-165 1847.5,-165 1847.5,-184"/>
<text text-anchor="middle" x="1791" y="-172" font-family="Helvetica,sans-Serif" font-size="10.00">freertos/FreeRTOS.h</text>
</a>
</g>
</g>
<!-- Node1&#45;&gt;Node4 -->
<g id="edge3_Node000001_Node000004" class="edge">
<title>Node1&#45;&gt;Node4</title>
<g id="a_edge3_Node000001_Node000004"><a xlink:title=" ">
<path fill="none" stroke="#63b8ff" d="M1575.09,-274.85C1577.11,-257.93 1582.69,-234.06 1598,-220 1608.05,-210.77 1679.87,-195.87 1732.97,-185.89"/>
<polygon fill="#63b8ff" stroke="#63b8ff" points="1733.8,-189.29 1742.99,-184.02 1732.51,-182.41 1733.8,-189.29"/>
</a>
</g>
</g>
<!-- Node5 -->
<g id="Node000005" class="node">
<title>Node5</title>
<g id="a_Node000005"><a xlink:title=" ">
<polygon fill="#e0e0e0" stroke="#999999" points="1954,-184 1866,-184 1866,-165 1954,-165 1954,-184"/>
<text text-anchor="middle" x="1910" y="-172" font-family="Helvetica,sans-Serif" font-size="10.00">freertos/task.h</text>
</a>
</g>
</g>
<!-- Node1&#45;&gt;Node5 -->
<g id="edge4_Node000001_Node000005" class="edge">
<title>Node1&#45;&gt;Node5</title>
<g id="a_edge4_Node000001_Node000005"><a xlink:title=" ">
<path fill="none" stroke="#63b8ff" d="M1583.49,-274.9C1593,-257.51 1609.32,-232.93 1631,-220 1715.62,-169.52 1754.13,-198.13 1855.72,-184.09"/>
<polygon fill="#63b8ff" stroke="#63b8ff" points="1856.38,-187.54 1865.75,-182.6 1855.35,-180.61 1856.38,-187.54"/>
</a>
</g>
</g>
<!-- Node6 -->
<g id="Node000006" class="node">
<title>Node6</title>
<g id="a_Node000006"><a xlink:title=" ">
<polygon fill="#e0e0e0" stroke="#999999" points="1800,-239 1742,-239 1742,-220 1800,-220 1800,-239"/>
<text text-anchor="middle" x="1771" y="-227" font-family="Helvetica,sans-Serif" font-size="10.00">memory</text>
</a>
</g>
</g>
<!-- Node1&#45;&gt;Node6 -->
<g id="edge5_Node000001_Node000006" class="edge">
<title>Node1&#45;&gt;Node6</title>
<g id="a_edge5_Node000001_Node000006"><a xlink:title=" ">
<path fill="none" stroke="#63b8ff" d="M1634.18,-274.95C1667.13,-264.24 1706.86,-251.34 1735,-242.19"/>
<polygon fill="#63b8ff" stroke="#63b8ff" points="1736.38,-245.43 1744.81,-239.01 1734.22,-238.77 1736.38,-245.43"/>
</a>
</g>
</g>
<!-- Node7 -->
<g id="Node000007" class="node">
<title>Node7</title>
<g id="a_Node000007"><a xlink:title=" ">
<polygon fill="#e0e0e0" stroke="#999999" points="1868,-239 1818,-239 1818,-220 1868,-220 1868,-239"/>
<text text-anchor="middle" x="1843" y="-227" font-family="Helvetica,sans-Serif" font-size="10.00">stdio.h</text>
</a>
</g>
</g>
<!-- Node1&#45;&gt;Node7 -->
<g id="edge6_Node000001_Node000007" class="edge">
<title>Node1&#45;&gt;Node7</title>
<g id="a_edge6_Node000001_Node000007"><a xlink:title=" ">
<path fill="none" stroke="#63b8ff" d="M1636.89,-279.88C1681.94,-269.36 1744.3,-254.68 1807.95,-239.23"/>
<polygon fill="#63b8ff" stroke="#63b8ff" points="1808.87,-242.61 1817.76,-236.85 1807.21,-235.81 1808.87,-242.61"/>
</a>
</g>
</g>
<!-- Node8 -->
<g id="Node000008" class="node">
<title>Node8</title>
<g id="a_Node000008"><a xlink:href="bno08x_8hpp.html" target="_top" xlink:title="High level C++ interface for the BNO08x IMU family.">
<polygon fill="white" stroke="#666666" points="609,-239 491,-239 491,-220 609,-220 609,-239"/>
<text text-anchor="middle" x="550" y="-227" font-family="Helvetica,sans-Serif" font-size="10.00">../../../inc/bno08x.hpp</text>
</a>
</g>
</g>
<!-- Node1&#45;&gt;Node8 -->
<g id="edge7_Node000001_Node000008" class="edge">
<title>Node1&#45;&gt;Node8</title>
<g id="a_edge7_Node000001_Node000008"><a xlink:title=" ">
<path fill="none" stroke="#63b8ff" d="M1511.49,-290.59C1330.7,-279.29 808.16,-246.64 619.22,-234.83"/>
<polygon fill="#63b8ff" stroke="#63b8ff" points="619.33,-231.33 609.13,-234.2 618.89,-238.31 619.33,-231.33"/>
</a>
</g>
</g>
<!-- Node30 -->
<g id="Node000030" class="node">
<title>Node30</title>
<g id="a_Node000030"><a xlink:href="esp32__bno08x__bus_8hpp.html" target="_top" xlink:title="ESP32 I2C communication interface implementation for BNO08x driver.">
<polygon fill="white" stroke="#666666" points="1332.5,-239 1201.5,-239 1201.5,-220 1332.5,-220 1332.5,-239"/>
<text text-anchor="middle" x="1267" y="-227" font-family="Helvetica,sans-Serif" font-size="10.00">esp32_bno08x_bus.hpp</text>
</a>
</g>
</g>
<!-- Node1&#45;&gt;Node30 -->
<g id="edge36_Node000001_Node000030" class="edge">
<title>Node1&#45;&gt;Node30</title>
<g id="a_edge36_Node000001_Node000030"><a xlink:title=" ">
<path fill="none" stroke="#63b8ff" d="M1511.13,-281.39C1454.11,-269.51 1371.09,-252.2 1318.07,-241.15"/>
<polygon fill="#63b8ff" stroke="#63b8ff" points="1318.71,-237.7 1308.21,-239.09 1317.28,-244.56 1318.71,-237.7"/>
</a>
</g>
</g>
<!-- Node34 -->
<g id="Node000034" class="node">
<title>Node34</title>
<g id="a_Node000034"><a xlink:href="TestFramework_8h.html" target="_top" xlink:title="Shared testing framework for ESP32&#45;C6 comprehensive test suites.">
<polygon fill="white" stroke="#666666" points="1546,-239 1446,-239 1446,-220 1546,-220 1546,-239"/>
<text text-anchor="middle" x="1496" y="-227" font-family="Helvetica,sans-Serif" font-size="10.00">TestFramework.h</text>
</a>
</g>
</g>
<!-- Node1&#45;&gt;Node34 -->
<g id="edge43_Node000001_Node000034" class="edge">
<title>Node1&#45;&gt;Node34</title>
<g id="a_edge43_Node000001_Node000034"><a xlink:title=" ">
<path fill="none" stroke="#63b8ff" d="M1550.17,-274.95C1538.72,-265.55 1525.2,-254.46 1514.53,-245.7"/>
<polygon fill="#63b8ff" stroke="#63b8ff" points="1516.63,-242.9 1506.68,-239.26 1512.19,-248.31 1516.63,-242.9"/>
</a>
</g>
</g>
<!-- Node9 -->
<g id="Node000009" class="node">
<title>Node9</title>
<g id="a_Node000009"><a xlink:href="bno08x__comm__interface_8hpp.html" target="_top" xlink:title="CRTP&#45;based communication interface for communicating with the BNO085.">
<polygon fill="white" stroke="#666666" points="1082,-184 924,-184 924,-165 1082,-165 1082,-184"/>
<text text-anchor="middle" x="1003" y="-172" font-family="Helvetica,sans-Serif" font-size="10.00">bno08x_comm_interface.hpp</text>
</a>
</g>
</g>
<!-- Node8&#45;&gt;Node9 -->
<g id="edge8_Node000008_Node000009" class="edge">
<title>Node8&#45;&gt;Node9</title>
<g id="a_edge8_Node000008_Node000009"><a xlink:title=" ">
<path fill="none" stroke="#63b8ff" d="M609.22,-221.57C688.66,-212.28 830.12,-195.73 920.11,-185.2"/>
<polygon fill="#63b8ff" stroke="#63b8ff" points="920.76,-188.65 930.28,-184.01 919.94,-181.69 920.76,-188.65"/>
</a>
</g>
</g>
<!-- Node10 -->
<g id="Node000010" class="node">
<title>Node10</title>
<g id="a_Node000010"><a xlink:title=" ">
<polygon fill="#e0e0e0" stroke="#999999" points="932,-19 882,-19 882,0 932,0 932,-19"/>
<text text-anchor="middle" x="907" y="-7" font-family="Helvetica,sans-Serif" font-size="10.00">cstdint</text>
</a>
</g>
</g>
<!-- Node8&#45;&gt;Node10 -->
<g id="edge18_Node000008_Node000010" class="edge">
<title>Node8&#45;&gt;Node10</title>
<g id="a_edge18_Node000008_Node000010"><a xlink:title=" ">
<path fill="none" stroke="#63b8ff" d="M545.63,-219.87C539.48,-206.36 530.45,-180.21 544,-165 590.28,-113.05 799.04,-170.34 855,-129 887.57,-104.94 900.06,-56.01 904.59,-29.17"/>
<polygon fill="#63b8ff" stroke="#63b8ff" points="908.07,-29.56 906.08,-19.15 901.15,-28.52 908.07,-29.56"/>
</a>
</g>
</g>
<!-- Node11 -->
<g id="Node000011" class="node">
<title>Node11</title>
<g id="a_Node000011"><a xlink:href="HcBin_8h.html" target="_top" xlink:title="API Definition for HcBin objects (Hillcrest Binary Files).">
<polygon fill="white" stroke="#666666" points="193.5,-74 120.5,-74 120.5,-55 193.5,-55 193.5,-74"/>
<text text-anchor="middle" x="157" y="-62" font-family="Helvetica,sans-Serif" font-size="10.00">dfu/HcBin.h</text>
</a>
</g>
</g>
<!-- Node8&#45;&gt;Node11 -->
<g id="edge10_Node000008_Node000011" class="edge">
<title>Node8&#45;&gt;Node11</title>
<g id="a_edge10_Node000008_Node000011"><a xlink:title=" ">
<path fill="none" stroke="#63b8ff" d="M490.89,-223.87C383.97,-214.1 165.4,-187.33 121,-129 109.34,-113.68 124.19,-94.19 138.19,-80.87"/>
<polygon fill="#63b8ff" stroke="#63b8ff" points="140.58,-83.43 145.71,-74.17 135.92,-78.21 140.58,-83.43"/>
</a>
</g>
</g>
<!-- Node13 -->
<g id="Node000013" class="node">
<title>Node13</title>
<g id="a_Node000013"><a xlink:href="firmware_8h.html" target="_top" xlink:title=" ">
<polygon fill="white" stroke="#666666" points="218,-129 130,-129 130,-110 218,-110 218,-129"/>
<text text-anchor="middle" x="174" y="-117" font-family="Helvetica,sans-Serif" font-size="10.00">dfu/firmware.h</text>
</a>
</g>
</g>
<!-- Node8&#45;&gt;Node13 -->
<g id="edge12_Node000008_Node000013" class="edge">
<title>Node8&#45;&gt;Node13</title>
<g id="a_edge12_Node000008_Node000013"><a xlink:title=" ">
<path fill="none" stroke="#63b8ff" d="M518.28,-219.99C485.59,-211.17 433.15,-196.9 388,-184 326.08,-166.31 254.37,-144.83 211.68,-131.93"/>
<polygon fill="#63b8ff" stroke="#63b8ff" points="212.57,-128.55 201.99,-129 210.55,-135.25 212.57,-128.55"/>
</a>
</g>
</g>
<!-- Node14 -->
<g id="Node000014" class="node">
<title>Node14</title>
<g id="a_Node000014"><a xlink:href="Rvc_8hpp.html" target="_top" xlink:title=" ">
<polygon fill="white" stroke="#666666" points="74,-184 0,-184 0,-165 74,-165 74,-184"/>
<text text-anchor="middle" x="37" y="-172" font-family="Helvetica,sans-Serif" font-size="10.00">rvc/Rvc.hpp</text>
</a>
</g>
</g>
<!-- Node8&#45;&gt;Node14 -->
<g id="edge14_Node000008_Node000014" class="edge">
<title>Node8&#45;&gt;Node14</title>
<g id="a_edge14_Node000008_Node000014"><a xlink:title=" ">
<path fill="none" stroke="#63b8ff" d="M490.78,-224.11C402.74,-217.29 232.21,-202.94 88,-184 86.72,-183.83 85.43,-183.66 84.13,-183.47"/>
<polygon fill="#63b8ff" stroke="#63b8ff" points="84.41,-179.98 74,-181.98 83.38,-186.9 84.41,-179.98"/>
</a>
</g>
</g>
<!-- Node16 -->
<g id="Node000016" class="node">
<title>Node16</title>
<g id="a_Node000016"><a xlink:title=" ">
<polygon fill="#e0e0e0" stroke="#999999" points="595,-184 553,-184 553,-165 595,-165 595,-184"/>
<text text-anchor="middle" x="574" y="-172" font-family="Helvetica,sans-Serif" font-size="10.00">array</text>
</a>
</g>
</g>
<!-- Node8&#45;&gt;Node16 -->
<g id="edge17_Node000008_Node000016" class="edge">
<title>Node8&#45;&gt;Node16</title>
<g id="a_edge17_Node000008_Node000016"><a xlink:title=" ">
<path fill="none" stroke="#63b8ff" d="M553.96,-219.75C557.21,-212.57 561.92,-202.18 565.95,-193.27"/>
<polygon fill="#63b8ff" stroke="#63b8ff" points="569.17,-194.64 570.11,-184.09 562.8,-191.75 569.17,-194.64"/>
</a>
</g>
</g>
<!-- Node17 -->
<g id="Node000017" class="node">
<title>Node17</title>
<g id="a_Node000017"><a xlink:title=" ">
<polygon fill="#e0e0e0" stroke="#999999" points="678.5,-184 613.5,-184 613.5,-165 678.5,-165 678.5,-184"/>
<text text-anchor="middle" x="646" y="-172" font-family="Helvetica,sans-Serif" font-size="10.00">functional</text>
</a>
</g>
</g>
<!-- Node8&#45;&gt;Node17 -->
<g id="edge19_Node000008_Node000017" class="edge">
<title>Node8&#45;&gt;Node17</title>
<g id="a_edge19_Node000008_Node000017"><a xlink:title=" ">
<path fill="none" stroke="#63b8ff" d="M565.42,-219.98C580.45,-211.69 603.54,-198.94 621.16,-189.22"/>
<polygon fill="#63b8ff" stroke="#63b8ff" points="623.23,-192.07 630.3,-184.17 619.85,-185.94 623.23,-192.07"/>
</a>
</g>
</g>
<!-- Node18 -->
<g id="Node000018" class="node">
<title>Node18</title>
<g id="a_Node000018"><a xlink:title=" ">
<polygon fill="#e0e0e0" stroke="#999999" points="759.5,-184 696.5,-184 696.5,-165 759.5,-165 759.5,-184"/>
<text text-anchor="middle" x="728" y="-172" font-family="Helvetica,sans-Serif" font-size="10.00">sh2/sh2.h</text>
</a>
</g>
</g>
<!-- Node8&#45;&gt;Node18 -->
<g id="edge20_Node000008_Node000018" class="edge">
<title>Node8&#45;&gt;Node18</title>
<g id="a_edge20_Node000008_Node000018"><a xlink:title=" ">
<path fill="none" stroke="#63b8ff" d="M578.6,-219.98C608.61,-211.05 655.98,-196.94 689.32,-187.02"/>
<polygon fill="#63b8ff" stroke="#63b8ff" points="690.59,-190.29 699.18,-184.08 688.59,-183.58 690.59,-190.29"/>
</a>
</g>
</g>
<!-- Node19 -->
<g id="Node000019" class="node">
<title>Node19</title>
<g id="a_Node000019"><a xlink:title=" ">
<polygon fill="#e0e0e0" stroke="#999999" points="906,-184 778,-184 778,-165 906,-165 906,-184"/>
<text text-anchor="middle" x="842" y="-172" font-family="Helvetica,sans-Serif" font-size="10.00">sh2/sh2_SensorValue.h</text>
</a>
</g>
</g>
<!-- Node8&#45;&gt;Node19 -->
<g id="edge21_Node000008_Node000019" class="edge">
<title>Node8&#45;&gt;Node19</title>
<g id="a_edge21_Node000008_Node000019"><a xlink:title=" ">
<path fill="none" stroke="#63b8ff" d="M596.91,-219.98C648.06,-210.7 729.92,-195.84 784.8,-185.88"/>
<polygon fill="#63b8ff" stroke="#63b8ff" points="785.5,-189.31 794.72,-184.08 784.25,-182.42 785.5,-189.31"/>
</a>
</g>
</g>
<!-- Node20 -->
<g id="Node000020" class="node">
<title>Node20</title>
<g id="a_Node000020"><a xlink:href="bno08x_8cpp.html" target="_top" xlink:title="Template implementation of the BNO08x C++ driver.">
<polygon fill="white" stroke="#666666" points="496.5,-184 397.5,-184 397.5,-165 496.5,-165 496.5,-184"/>
<text text-anchor="middle" x="447" y="-172" font-family="Helvetica,sans-Serif" font-size="10.00">../src/bno08x.cpp</text>
</a>
</g>
</g>
<!-- Node8&#45;&gt;Node20 -->
<g id="edge22_Node000008_Node000020" class="edge">
<title>Node8&#45;&gt;Node20</title>
<g id="a_edge22_Node000008_Node000020"><a xlink:title=" ">
<path fill="none" stroke="#63b8ff" d="M528.34,-219.98C510.38,-211.69 485.32,-198.94 467.66,-189.22"/>
<polygon fill="#63b8ff" stroke="#63b8ff" points="469.13,-186.03 458.7,-184.17 465.7,-192.13 469.13,-186.03"/>
</a>
</g>
</g>
<!-- Node9&#45;&gt;Node10 -->
<g id="edge9_Node000009_Node000010" class="edge">
<title>Node9&#45;&gt;Node10</title>
<g id="a_edge9_Node000009_Node000010"><a xlink:title=" ">
<path fill="none" stroke="#63b8ff" d="M997.84,-164.74C982.67,-138.98 938,-63.13 917.5,-28.33"/>
<polygon fill="#63b8ff" stroke="#63b8ff" points="920.28,-26.15 912.19,-19.31 914.25,-29.7 920.28,-26.15"/>
</a>
</g>
</g>
<!-- Node12 -->
<g id="Node000012" class="node">
<title>Node12</title>
<g id="a_Node000012"><a xlink:title=" ">
<polygon fill="#e0e0e0" stroke="#999999" points="141.5,-19 88.5,-19 88.5,0 141.5,0 141.5,-19"/>
<text text-anchor="middle" x="115" y="-7" font-family="Helvetica,sans-Serif" font-size="10.00">stdint.h</text>
</a>
</g>
</g>
<!-- Node11&#45;&gt;Node12 -->
<g id="edge11_Node000011_Node000012" class="edge">
<title>Node11&#45;&gt;Node12</title>
<g id="a_edge11_Node000011_Node000012"><a xlink:title=" ">
<path fill="none" stroke="#63b8ff" d="M150.06,-54.75C144.13,-47.26 135.43,-36.28 128.18,-27.13"/>
<polygon fill="#63b8ff" stroke="#63b8ff" points="130.76,-24.75 121.81,-19.09 125.27,-29.1 130.76,-24.75"/>
</a>
</g>
</g>
<!-- Node13&#45;&gt;Node11 -->
<g id="edge13_Node000013_Node000011" class="edge">
<title>Node13&#45;&gt;Node11</title>
<g id="a_edge13_Node000013_Node000011"><a xlink:title=" ">
<path fill="none" stroke="#63b8ff" d="M171.19,-109.75C168.94,-102.72 165.7,-92.62 162.88,-83.84"/>
<polygon fill="#63b8ff" stroke="#63b8ff" points="166.14,-82.54 159.75,-74.09 159.48,-84.68 166.14,-82.54"/>
</a>
</g>
</g>
<!-- Node15 -->
<g id="Node000015" class="node">
<title>Node15</title>
<g id="a_Node000015"><a xlink:href="rvc_8h.html" target="_top" xlink:title=" ">
<polygon fill="white" stroke="#666666" points="93.5,-74 52.5,-74 52.5,-55 93.5,-55 93.5,-74"/>
<text text-anchor="middle" x="73" y="-62" font-family="Helvetica,sans-Serif" font-size="10.00">rvc.h</text>
</a>
</g>
</g>
<!-- Node14&#45;&gt;Node15 -->
<g id="edge15_Node000014_Node000015" class="edge">
<title>Node14&#45;&gt;Node15</title>
<g id="a_edge15_Node000014_Node000015"><a xlink:title=" ">
<path fill="none" stroke="#63b8ff" d="M39.95,-164.66C45.8,-147.09 59.02,-107.45 66.85,-83.95"/>
<polygon fill="#63b8ff" stroke="#63b8ff" points="70.27,-84.75 70.11,-74.16 63.63,-82.54 70.27,-84.75"/>
</a>
</g>
</g>
<!-- Node15&#45;&gt;Node12 -->
<g id="edge16_Node000015_Node000012" class="edge">
<title>Node15&#45;&gt;Node12</title>
<g id="a_edge16_Node000015_Node000012"><a xlink:title=" ">
<path fill="none" stroke="#63b8ff" d="M79.94,-54.75C85.87,-47.26 94.57,-36.28 101.82,-27.13"/>
<polygon fill="#63b8ff" stroke="#63b8ff" points="104.73,-29.1 108.19,-19.09 99.24,-24.75 104.73,-29.1"/>
</a>
</g>
</g>
<!-- Node20&#45;&gt;Node8 -->
<g id="edge23_Node000020_Node000008" class="edge">
<title>Node20&#45;&gt;Node8</title>
<g id="a_edge23_Node000020_Node000008"><a xlink:title=" ">
<path fill="none" stroke="#63b8ff" d="M469,-184.17C487.04,-192.52 512.1,-205.28 529.67,-214.97"/>
<polygon fill="#63b8ff" stroke="#63b8ff" points="528.14,-218.12 538.57,-219.98 531.58,-212.02 528.14,-218.12"/>
</a>
</g>
</g>
<!-- Node21 -->
<g id="Node000021" class="node">
<title>Node21</title>
<g id="a_Node000021"><a xlink:title=" ">
<polygon fill="#e0e0e0" stroke="#999999" points="300,-129 236,-129 236,-110 300,-110 300,-129"/>
<text text-anchor="middle" x="268" y="-117" font-family="Helvetica,sans-Serif" font-size="10.00">algorithm</text>
</a>
</g>
</g>
<!-- Node20&#45;&gt;Node21 -->
<g id="edge24_Node000020_Node000021" class="edge">
<title>Node20&#45;&gt;Node21</title>
<g id="a_edge24_Node000020_Node000021"><a xlink:title=" ">
<path fill="none" stroke="#63b8ff" d="M418.24,-164.98C388.06,-156.05 340.43,-141.94 306.9,-132.02"/>
<polygon fill="#63b8ff" stroke="#63b8ff" points="307.57,-128.57 296.98,-129.08 305.58,-135.28 307.57,-128.57"/>
</a>
</g>
</g>
<!-- Node22 -->
<g id="Node000022" class="node">
<title>Node22</title>
<g id="a_Node000022"><a xlink:title=" ">
<polygon fill="#e0e0e0" stroke="#999999" points="364,-129 318,-129 318,-110 364,-110 364,-129"/>
<text text-anchor="middle" x="341" y="-117" font-family="Helvetica,sans-Serif" font-size="10.00">cstdio</text>
</a>
</g>
</g>
<!-- Node20&#45;&gt;Node22 -->
<g id="edge25_Node000020_Node000022" class="edge">
<title>Node20&#45;&gt;Node22</title>
<g id="a_edge25_Node000020_Node000022"><a xlink:title=" ">
<path fill="none" stroke="#63b8ff" d="M429.97,-164.98C413.07,-156.54 386.94,-143.47 367.36,-133.68"/>
<polygon fill="#63b8ff" stroke="#63b8ff" points="368.85,-130.51 358.34,-129.17 365.72,-136.77 368.85,-130.51"/>
</a>
</g>
</g>
<!-- Node23 -->
<g id="Node000023" class="node">
<title>Node23</title>
<g id="a_Node000023"><a xlink:title=" ">
<polygon fill="#e0e0e0" stroke="#999999" points="503.5,-129 460.5,-129 460.5,-110 503.5,-110 503.5,-129"/>
<text text-anchor="middle" x="482" y="-117" font-family="Helvetica,sans-Serif" font-size="10.00">sh2.h</text>
</a>
</g>
</g>
<!-- Node20&#45;&gt;Node23 -->
<g id="edge26_Node000020_Node000023" class="edge">
<title>Node20&#45;&gt;Node23</title>
<g id="a_edge26_Node000020_Node000023"><a xlink:title=" ">
<path fill="none" stroke="#63b8ff" d="M452.78,-164.75C457.62,-157.42 464.68,-146.73 470.64,-137.7"/>
<polygon fill="#63b8ff" stroke="#63b8ff" points="473.74,-139.36 476.33,-129.09 467.9,-135.5 473.74,-139.36"/>
</a>
</g>
</g>
<!-- Node24 -->
<g id="Node000024" class="node">
<title>Node24</title>
<g id="a_Node000024"><a xlink:title=" ">
<polygon fill="#e0e0e0" stroke="#999999" points="630,-129 522,-129 522,-110 630,-110 630,-129"/>
<text text-anchor="middle" x="576" y="-117" font-family="Helvetica,sans-Serif" font-size="10.00">sh2_SensorValue.h</text>
</a>
</g>
</g>
<!-- Node20&#45;&gt;Node24 -->
<g id="edge27_Node000020_Node000024" class="edge">
<title>Node20&#45;&gt;Node24</title>
<g id="a_edge27_Node000020_Node000024"><a xlink:title=" ">
<path fill="none" stroke="#63b8ff" d="M467.73,-164.98C488.76,-156.34 521.55,-142.87 545.54,-133.02"/>
<polygon fill="#63b8ff" stroke="#63b8ff" points="546.98,-136.21 554.9,-129.17 544.32,-129.73 546.98,-136.21"/>
</a>
</g>
</g>
<!-- Node25 -->
<g id="Node000025" class="node">
<title>Node25</title>
<g id="a_Node000025"><a xlink:title=" ">
<polygon fill="#e0e0e0" stroke="#999999" points="709.5,-129 648.5,-129 648.5,-110 709.5,-110 709.5,-129"/>
<text text-anchor="middle" x="679" y="-117" font-family="Helvetica,sans-Serif" font-size="10.00">sh2_err.h</text>
</a>
</g>
</g>
<!-- Node20&#45;&gt;Node25 -->
<g id="edge28_Node000020_Node000025" class="edge">
<title>Node20&#45;&gt;Node25</title>
<g id="a_edge28_Node000020_Node000025"><a xlink:title=" ">
<path fill="none" stroke="#63b8ff" d="M484.27,-164.98C526.49,-155.34 595.04,-139.68 638.53,-129.74"/>
<polygon fill="#63b8ff" stroke="#63b8ff" points="639.51,-133.11 648.48,-127.47 637.96,-126.29 639.51,-133.11"/>
</a>
</g>
</g>
<!-- Node26 -->
<g id="Node000026" class="node">
<title>Node26</title>
<g id="a_Node000026"><a xlink:href="HalTransport_8hpp.html" target="_top" xlink:title=" ">
<polygon fill="white" stroke="#666666" points="846,-129 728,-129 728,-110 846,-110 846,-129"/>
<text text-anchor="middle" x="787" y="-117" font-family="Helvetica,sans-Serif" font-size="10.00">dfu/HalTransport.hpp</text>
</a>
</g>
</g>
<!-- Node20&#45;&gt;Node26 -->
<g id="edge29_Node000020_Node000026" class="edge">
<title>Node20&#45;&gt;Node26</title>
<g id="a_edge29_Node000020_Node000026"><a xlink:title=" ">
<path fill="none" stroke="#63b8ff" d="M496.8,-165.74C556.42,-156.44 656.41,-140.86 722.05,-130.63"/>
<polygon fill="#63b8ff" stroke="#63b8ff" points="722.93,-134.03 732.27,-129.03 721.85,-127.11 722.93,-134.03"/>
</a>
</g>
</g>
<!-- Node29 -->
<g id="Node000029" class="node">
<title>Node29</title>
<g id="a_Node000029"><a xlink:href="dfu_8h.html" target="_top" xlink:title=" ">
<polygon fill="white" stroke="#666666" points="442,-129 382,-129 382,-110 442,-110 442,-129"/>
<text text-anchor="middle" x="412" y="-117" font-family="Helvetica,sans-Serif" font-size="10.00">dfu/dfu.h</text>
</a>
</g>
</g>
<!-- Node20&#45;&gt;Node29 -->
<g id="edge33_Node000020_Node000029" class="edge">
<title>Node20&#45;&gt;Node29</title>
<g id="a_edge33_Node000020_Node000029"><a xlink:title=" ">
<path fill="none" stroke="#63b8ff" d="M441.22,-164.75C436.38,-157.42 429.32,-146.73 423.36,-137.7"/>
<polygon fill="#63b8ff" stroke="#63b8ff" points="426.1,-135.5 417.67,-129.09 420.26,-139.36 426.1,-135.5"/>
</a>
</g>
</g>
<!-- Node27 -->
<g id="Node000027" class="node">
<title>Node27</title>
<g id="a_Node000027"><a xlink:href="IDfuTransport_8hpp.html" target="_top" xlink:title=" ">
<polygon fill="white" stroke="#666666" points="838.5,-74 735.5,-74 735.5,-55 838.5,-55 838.5,-74"/>
<text text-anchor="middle" x="787" y="-62" font-family="Helvetica,sans-Serif" font-size="10.00">IDfuTransport.hpp</text>
</a>
</g>
</g>
<!-- Node26&#45;&gt;Node27 -->
<g id="edge30_Node000026_Node000027" class="edge">
<title>Node26&#45;&gt;Node27</title>
<g id="a_edge30_Node000026_Node000027"><a xlink:title=" ">
<path fill="none" stroke="#63b8ff" d="M787,-109.75C787,-102.8 787,-92.85 787,-84.13"/>
<polygon fill="#63b8ff" stroke="#63b8ff" points="790.5,-84.09 787,-74.09 783.5,-84.09 790.5,-84.09"/>
</a>
</g>
</g>
<!-- Node27&#45;&gt;Node10 -->
<g id="edge31_Node000027_Node000010" class="edge">
<title>Node27&#45;&gt;Node10</title>
<g id="a_edge31_Node000027_Node000010"><a xlink:title=" ">
<path fill="none" stroke="#63b8ff" d="M806.28,-54.98C825.67,-46.42 855.81,-33.11 878.07,-23.28"/>
<polygon fill="#63b8ff" stroke="#63b8ff" points="879.64,-26.41 887.37,-19.17 876.81,-20.01 879.64,-26.41"/>
</a>
</g>
</g>
<!-- Node28 -->
<g id="Node000028" class="node">
<title>Node28</title>
<g id="a_Node000028"><a xlink:title=" ">
<polygon fill="#e0e0e0" stroke="#999999" points="828.5,-19 745.5,-19 745.5,0 828.5,0 828.5,-19"/>
<text text-anchor="middle" x="787" y="-7" font-family="Helvetica,sans-Serif" font-size="10.00">sh2/sh2_hal.h</text>
</a>
</g>
</g>
<!-- Node27&#45;&gt;Node28 -->
<g id="edge32_Node000027_Node000028" class="edge">
<title>Node27&#45;&gt;Node28</title>
<g id="a_edge32_Node000027_Node000028"><a xlink:title=" ">
<path fill="none" stroke="#63b8ff" d="M787,-54.75C787,-47.8 787,-37.85 787,-29.13"/>
<polygon fill="#63b8ff" stroke="#63b8ff" points="790.5,-29.09 787,-19.09 783.5,-29.09 790.5,-29.09"/>
</a>
</g>
</g>
<!-- Node29&#45;&gt;Node11 -->
<g id="edge34_Node000029_Node000011" class="edge">
<title>Node29&#45;&gt;Node11</title>
<g id="a_edge34_Node000029_Node000011"><a xlink:title=" ">
<path fill="none" stroke="#63b8ff" d="M381.77,-111.88C378.81,-111.24 375.85,-110.6 373,-110 314.75,-97.65 247.55,-83.88 203.78,-74.98"/>
<polygon fill="#63b8ff" stroke="#63b8ff" points="204.21,-71.49 193.72,-72.93 202.82,-78.35 204.21,-71.49"/>
</a>
</g>
</g>
<!-- Node29&#45;&gt;Node27 -->
<g id="edge35_Node000029_Node000027" class="edge">
<title>Node29&#45;&gt;Node27</title>
<g id="a_edge35_Node000029_Node000027"><a xlink:title=" ">
<path fill="none" stroke="#63b8ff" d="M442.18,-111.66C445.16,-111.07 448.13,-110.5 451,-110 546.24,-93.34 657.65,-79.74 725.23,-72.13"/>
<polygon fill="#63b8ff" stroke="#63b8ff" points="725.73,-75.59 735.28,-71 724.95,-68.63 725.73,-75.59"/>
</a>
</g>
</g>
<!-- Node30&#45;&gt;Node2 -->
<g id="edge40_Node000030_Node000002" class="edge">
<title>Node30&#45;&gt;Node2</title>
<g id="a_edge40_Node000030_Node000002"><a xlink:title=" ">
<path fill="none" stroke="#63b8ff" d="M1281.3,-219.98C1295.1,-211.77 1316.24,-199.18 1332.51,-189.49"/>
<polygon fill="#63b8ff" stroke="#63b8ff" points="1334.64,-192.29 1341.44,-184.17 1331.06,-186.28 1334.64,-192.29"/>
</a>
</g>
</g>
<!-- Node30&#45;&gt;Node9 -->
<g id="edge37_Node000030_Node000009" class="edge">
<title>Node30&#45;&gt;Node9</title>
<g id="a_edge37_Node000030_Node000009"><a xlink:title=" ">
<path fill="none" stroke="#63b8ff" d="M1224.58,-219.98C1178.63,-210.76 1105.25,-196.03 1055.65,-186.07"/>
<polygon fill="#63b8ff" stroke="#63b8ff" points="1056.24,-182.62 1045.75,-184.08 1054.86,-189.48 1056.24,-182.62"/>
</a>
</g>
</g>
<!-- Node30&#45;&gt;Node10 -->
<g id="edge42_Node000030_Node000010" class="edge">
<title>Node30&#45;&gt;Node10</title>
<g id="a_edge42_Node000030_Node000010"><a xlink:title=" ">
<path fill="none" stroke="#63b8ff" d="M1228.36,-219.93C1199.86,-212.69 1160.69,-200.81 1129,-184 1043.39,-138.59 957.33,-59.55 922.79,-26.13"/>
<polygon fill="#63b8ff" stroke="#63b8ff" points="925.1,-23.5 915.5,-19.02 920.21,-28.51 925.1,-23.5"/>
</a>
</g>
</g>
<!-- Node31 -->
<g id="Node000031" class="node">
<title>Node31</title>
<g id="a_Node000031"><a xlink:title=" ">
<polygon fill="#e0e0e0" stroke="#999999" points="1306,-184 1228,-184 1228,-165 1306,-165 1306,-184"/>
<text text-anchor="middle" x="1267" y="-172" font-family="Helvetica,sans-Serif" font-size="10.00">driver/gpio.h</text>
</a>
</g>
</g>
<!-- Node30&#45;&gt;Node31 -->
<g id="edge38_Node000030_Node000031" class="edge">
<title>Node30&#45;&gt;Node31</title>
<g id="a_edge38_Node000030_Node000031"><a xlink:title=" ">
<path fill="none" stroke="#63b8ff" d="M1267,-219.75C1267,-212.8 1267,-202.85 1267,-194.13"/>
<polygon fill="#63b8ff" stroke="#63b8ff" points="1270.5,-194.09 1267,-184.09 1263.5,-194.09 1270.5,-194.09"/>
</a>
</g>
</g>
<!-- Node32 -->
<g id="Node000032" class="node">
<title>Node32</title>
<g id="a_Node000032"><a xlink:title=" ">
<polygon fill="#e0e0e0" stroke="#999999" points="1209.5,-184 1138.5,-184 1138.5,-165 1209.5,-165 1209.5,-184"/>
<text text-anchor="middle" x="1174" y="-172" font-family="Helvetica,sans-Serif" font-size="10.00">driver/i2c.h</text>
</a>
</g>
</g>
<!-- Node30&#45;&gt;Node32 -->
<g id="edge39_Node000030_Node000032" class="edge">
<title>Node30&#45;&gt;Node32</title>
<g id="a_edge39_Node000030_Node000032"><a xlink:title=" ">
<path fill="none" stroke="#63b8ff" d="M1252.06,-219.98C1237.5,-211.69 1215.13,-198.94 1198.07,-189.22"/>
<polygon fill="#63b8ff" stroke="#63b8ff" points="1199.64,-186.08 1189.21,-184.17 1196.17,-192.16 1199.64,-186.08"/>
</a>
</g>
</g>
<!-- Node33 -->
<g id="Node000033" class="node">
<title>Node33</title>
<g id="a_Node000033"><a xlink:title=" ">
<polygon fill="#e0e0e0" stroke="#999999" points="1480,-184 1406,-184 1406,-165 1480,-165 1480,-184"/>
<text text-anchor="middle" x="1443" y="-172" font-family="Helvetica,sans-Serif" font-size="10.00">esp_timer.h</text>
</a>
</g>
</g>
<!-- Node30&#45;&gt;Node33 -->
<g id="edge41_Node000030_Node000033" class="edge">
<title>Node30&#45;&gt;Node33</title>
<g id="a_edge41_Node000030_Node000033"><a xlink:title=" ">
<path fill="none" stroke="#63b8ff" d="M1295.28,-219.98C1324.95,-211.05 1371.79,-196.94 1404.75,-187.02"/>
<polygon fill="#63b8ff" stroke="#63b8ff" points="1405.93,-190.32 1414.5,-184.08 1403.92,-183.61 1405.93,-190.32"/>
</a>
</g>
</g>
<!-- Node34&#45;&gt;Node2 -->
<g id="edge45_Node000034_Node000002" class="edge">
<title>Node34&#45;&gt;Node2</title>
<g id="a_edge45_Node000034_Node000002"><a xlink:title=" ">
<path fill="none" stroke="#63b8ff" d="M1473.51,-219.98C1450.48,-211.27 1414.46,-197.63 1388.37,-187.75"/>
<polygon fill="#63b8ff" stroke="#63b8ff" points="1389.49,-184.44 1378.9,-184.17 1387.02,-190.98 1389.49,-184.44"/>
</a>
</g>
</g>
<!-- Node34&#45;&gt;Node4 -->
<g id="edge47_Node000034_Node000004" class="edge">
<title>Node34&#45;&gt;Node4</title>
<g id="a_edge47_Node000034_Node000004"><a xlink:title=" ">
<path fill="none" stroke="#63b8ff" d="M1543.4,-219.98C1595.07,-210.7 1677.77,-195.84 1733.21,-185.88"/>
<polygon fill="#63b8ff" stroke="#63b8ff" points="1734.01,-189.3 1743.23,-184.08 1732.77,-182.41 1734.01,-189.3"/>
</a>
</g>
</g>
<!-- Node34&#45;&gt;Node5 -->
<g id="edge50_Node000034_Node000005" class="edge">
<title>Node34&#45;&gt;Node5</title>
<g id="a_edge50_Node000034_Node000005"><a xlink:title=" ">
<path fill="none" stroke="#63b8ff" d="M1546,-222.92C1613.78,-215.22 1738.84,-200.57 1855.59,-184.16"/>
<polygon fill="#63b8ff" stroke="#63b8ff" points="1856.36,-187.58 1865.77,-182.72 1855.38,-180.65 1856.36,-187.58"/>
</a>
</g>
</g>
<!-- Node34&#45;&gt;Node31 -->
<g id="edge44_Node000034_Node000031" class="edge">
<title>Node34&#45;&gt;Node31</title>
<g id="a_edge44_Node000034_Node000031"><a xlink:title=" ">
<path fill="none" stroke="#63b8ff" d="M1459.21,-219.98C1419.76,-210.86 1357.02,-196.33 1314.02,-186.38"/>
<polygon fill="#63b8ff" stroke="#63b8ff" points="1314.61,-182.93 1304.08,-184.08 1313.03,-189.75 1314.61,-182.93"/>
</a>
</g>
</g>
<!-- Node34&#45;&gt;Node33 -->
<g id="edge46_Node000034_Node000033" class="edge">
<title>Node34&#45;&gt;Node33</title>
<g id="a_edge46_Node000034_Node000033"><a xlink:title=" ">
<path fill="none" stroke="#63b8ff" d="M1487.25,-219.75C1479.53,-212.03 1468.1,-200.6 1458.78,-191.28"/>
<polygon fill="#63b8ff" stroke="#63b8ff" points="1461.14,-188.69 1451.59,-184.09 1456.19,-193.64 1461.14,-188.69"/>
</a>
</g>
</g>
<!-- Node35 -->
<g id="Node000035" class="node">
<title>Node35</title>
<g id="a_Node000035"><a xlink:title=" ">
<polygon fill="#e0e0e0" stroke="#999999" points="1716.5,-184 1619.5,-184 1619.5,-165 1716.5,-165 1716.5,-184"/>
<text text-anchor="middle" x="1668" y="-172" font-family="Helvetica,sans-Serif" font-size="10.00">freertos/queue.h</text>
</a>
</g>
</g>
<!-- Node34&#45;&gt;Node35 -->
<g id="edge48_Node000034_Node000035" class="edge">
<title>Node34&#45;&gt;Node35</title>
<g id="a_edge48_Node000034_Node000035"><a xlink:title=" ">
<path fill="none" stroke="#63b8ff" d="M1523.63,-219.98C1552.51,-211.09 1598.01,-197.07 1630.2,-187.15"/>
<polygon fill="#63b8ff" stroke="#63b8ff" points="1631.62,-190.37 1640.15,-184.08 1629.56,-183.68 1631.62,-190.37"/>
</a>
</g>
</g>
<!-- Node36 -->
<g id="Node000036" class="node">
<title>Node36</title>
<g id="a_Node000036"><a xlink:title=" ">
<polygon fill="#e0e0e0" stroke="#999999" points="1601.5,-184 1498.5,-184 1498.5,-165 1601.5,-165 1601.5,-184"/>
<text text-anchor="middle" x="1550" y="-172" font-family="Helvetica,sans-Serif" font-size="10.00">freertos/semphr.h</text>
</a>
</g>
</g>
<!-- Node34&#45;&gt;Node36 -->
<g id="edge49_Node000034_Node000036" class="edge">
<title>Node34&#45;&gt;Node36</title>
<g id="a_edge49_Node000034_Node000036"><a xlink:title=" ">
<path fill="none" stroke="#63b8ff" d="M1504.92,-219.75C1512.78,-212.03 1524.43,-200.6 1533.92,-191.28"/>
<polygon fill="#63b8ff" stroke="#63b8ff" points="1536.56,-193.59 1541.25,-184.09 1531.66,-188.6 1536.56,-193.59"/>
</a>
</g>
</g>
</g>
</svg>
