<?xml version="1.0" encoding="UTF-8" standalone="no"?>
<!DOCTYPE svg PUBLIC "-//W3C//DTD SVG 1.1//EN"
 "http://www.w3.org/Graphics/SVG/1.1/DTD/svg11.dtd">
<!-- Generated by graphviz version 2.43.0 (0)
 -->
<!-- Title: src/rvc/RvcHalEsp32C6.hpp Pages: 1 -->
<svg width="562pt" height="192pt"
 viewBox="0.00 0.00 562.00 192.00" xmlns="http://www.w3.org/2000/svg" xmlns:xlink="http://www.w3.org/1999/xlink">
<g id="graph0" class="graph" transform="scale(1 1) rotate(0) translate(4 188)">
<title>src/rvc/RvcHalEsp32C6.hpp</title>
<!-- Node1 -->
<g id="Node000001" class="node">
<title>Node1</title>
<g id="a_Node000001"><a xlink:title=" ">
<polygon fill="#999999" stroke="#666666" points="369,-184 220,-184 220,-165 369,-165 369,-184"/>
<text text-anchor="middle" x="294.5" y="-172" font-family="Helvetica,sans-Serif" font-size="10.00">src/rvc/RvcHalEsp32C6.hpp</text>
</a>
</g>
</g>
<!-- Node2 -->
<g id="Node000002" class="node">
<title>Node2</title>
<g id="a_Node000002"><a xlink:href="RvcHal_8hpp.html" target="_top" xlink:title=" ">
<polygon fill="white" stroke="#666666" points="94.5,-129 22.5,-129 22.5,-110 94.5,-110 94.5,-129"/>
<text text-anchor="middle" x="58.5" y="-117" font-family="Helvetica,sans-Serif" font-size="10.00">RvcHal.hpp</text>
</a>
</g>
</g>
<!-- Node1&#45;&gt;Node2 -->
<g id="edge1_Node000001_Node000002" class="edge">
<title>Node1&#45;&gt;Node2</title>
<g id="a_edge1_Node000001_Node000002"><a xlink:title=" ">
<path fill="none" stroke="#63b8ff" d="M256.58,-164.98C215.24,-155.7 149.07,-140.84 104.72,-130.88"/>
<polygon fill="#63b8ff" stroke="#63b8ff" points="105.3,-127.42 94.77,-128.65 103.76,-134.25 105.3,-127.42"/>
</a>
</g>
</g>
<!-- Node6 -->
<g id="Node000006" class="node">
<title>Node6</title>
<g id="a_Node000006"><a xlink:title=" ">
<polygon fill="#e0e0e0" stroke="#999999" points="190.5,-129 112.5,-129 112.5,-110 190.5,-110 190.5,-129"/>
<text text-anchor="middle" x="151.5" y="-117" font-family="Helvetica,sans-Serif" font-size="10.00">driver/gpio.h</text>
</a>
</g>
</g>
<!-- Node1&#45;&gt;Node6 -->
<g id="edge5_Node000001_Node000006" class="edge">
<title>Node1&#45;&gt;Node6</title>
<g id="a_edge5_Node000001_Node000006"><a xlink:title=" ">
<path fill="none" stroke="#63b8ff" d="M271.52,-164.98C248,-156.27 211.21,-142.63 184.56,-132.75"/>
<polygon fill="#63b8ff" stroke="#63b8ff" points="185.49,-129.36 174.89,-129.17 183.05,-135.93 185.49,-129.36"/>
</a>
</g>
</g>
<!-- Node7 -->
<g id="Node000007" class="node">
<title>Node7</title>
<g id="a_Node000007"><a xlink:title=" ">
<polygon fill="#e0e0e0" stroke="#999999" points="286,-129 209,-129 209,-110 286,-110 286,-129"/>
<text text-anchor="middle" x="247.5" y="-117" font-family="Helvetica,sans-Serif" font-size="10.00">driver/uart.h</text>
</a>
</g>
</g>
<!-- Node1&#45;&gt;Node7 -->
<g id="edge6_Node000001_Node000007" class="edge">
<title>Node1&#45;&gt;Node7</title>
<g id="a_edge6_Node000001_Node000007"><a xlink:title=" ">
<path fill="none" stroke="#63b8ff" d="M286.74,-164.75C280.03,-157.18 270.16,-146.05 261.99,-136.84"/>
<polygon fill="#63b8ff" stroke="#63b8ff" points="264.37,-134.25 255.12,-129.09 259.13,-138.89 264.37,-134.25"/>
</a>
</g>
</g>
<!-- Node8 -->
<g id="Node000008" class="node">
<title>Node8</title>
<g id="a_Node000008"><a xlink:title=" ">
<polygon fill="#e0e0e0" stroke="#999999" points="378.5,-129 304.5,-129 304.5,-110 378.5,-110 378.5,-129"/>
<text text-anchor="middle" x="341.5" y="-117" font-family="Helvetica,sans-Serif" font-size="10.00">esp_timer.h</text>
</a>
</g>
</g>
<!-- Node1&#45;&gt;Node8 -->
<g id="edge7_Node000001_Node000008" class="edge">
<title>Node1&#45;&gt;Node8</title>
<g id="a_edge7_Node000001_Node000008"><a xlink:title=" ">
<path fill="none" stroke="#63b8ff" d="M302.26,-164.75C308.97,-157.18 318.84,-146.05 327.01,-136.84"/>
<polygon fill="#63b8ff" stroke="#63b8ff" points="329.87,-138.89 333.88,-129.09 324.63,-134.25 329.87,-138.89"/>
</a>
</g>
</g>
<!-- Node9 -->
<g id="Node000009" class="node">
<title>Node9</title>
<g id="a_Node000009"><a xlink:title=" ">
<polygon fill="#e0e0e0" stroke="#999999" points="446.5,-129 396.5,-129 396.5,-110 446.5,-110 446.5,-129"/>
<text text-anchor="middle" x="421.5" y="-117" font-family="Helvetica,sans-Serif" font-size="10.00">cstring</text>
</a>
</g>
</g>
<!-- Node1&#45;&gt;Node9 -->
<g id="edge8_Node000001_Node000009" class="edge">
<title>Node1&#45;&gt;Node9</title>
<g id="a_edge8_Node000001_Node000009"><a xlink:title=" ">
<path fill="none" stroke="#63b8ff" d="M314.9,-164.98C335.52,-156.38 367.61,-142.99 391.19,-133.15"/>
<polygon fill="#63b8ff" stroke="#63b8ff" points="392.84,-136.25 400.72,-129.17 390.15,-129.79 392.84,-136.25"/>
</a>
</g>
</g>
<!-- Node10 -->
<g id="Node000010" class="node">
<title>Node10</title>
<g id="a_Node000010"><a xlink:title=" ">
<polygon fill="#e0e0e0" stroke="#999999" points="554,-129 465,-129 465,-110 554,-110 554,-129"/>
<text text-anchor="middle" x="509.5" y="-117" font-family="Helvetica,sans-Serif" font-size="10.00">esp_rom_sys.h</text>
</a>
</g>
</g>
<!-- Node1&#45;&gt;Node10 -->
<g id="edge9_Node000001_Node000010" class="edge">
<title>Node1&#45;&gt;Node10</title>
<g id="a_edge9_Node000001_Node000010"><a xlink:title=" ">
<path fill="none" stroke="#63b8ff" d="M329.04,-164.98C365.92,-155.89 424.49,-141.46 464.84,-131.51"/>
<polygon fill="#63b8ff" stroke="#63b8ff" points="465.81,-134.87 474.69,-129.08 464.14,-128.08 465.81,-134.87"/>
</a>
</g>
</g>
<!-- Node3 -->
<g id="Node000003" class="node">
<title>Node3</title>
<g id="a_Node000003"><a xlink:href="rvc_8h.html" target="_top" xlink:title=" ">
<polygon fill="white" stroke="#666666" points="47,-74 6,-74 6,-55 47,-55 47,-74"/>
<text text-anchor="middle" x="26.5" y="-62" font-family="Helvetica,sans-Serif" font-size="10.00">rvc.h</text>
</a>
</g>
</g>
<!-- Node2&#45;&gt;Node3 -->
<g id="edge2_Node000002_Node000003" class="edge">
<title>Node2&#45;&gt;Node3</title>
<g id="a_edge2_Node000002_Node000003"><a xlink:title=" ">
<path fill="none" stroke="#63b8ff" d="M53.22,-109.75C48.79,-102.42 42.34,-91.73 36.88,-82.7"/>
<polygon fill="#63b8ff" stroke="#63b8ff" points="39.85,-80.84 31.69,-74.09 33.86,-84.46 39.85,-80.84"/>
</a>
</g>
</g>
<!-- Node5 -->
<g id="Node000005" class="node">
<title>Node5</title>
<g id="a_Node000005"><a xlink:title=" ">
<polygon fill="#e0e0e0" stroke="#999999" points="115.5,-74 65.5,-74 65.5,-55 115.5,-55 115.5,-74"/>
<text text-anchor="middle" x="90.5" y="-62" font-family="Helvetica,sans-Serif" font-size="10.00">cstdint</text>
</a>
</g>
</g>
<!-- Node2&#45;&gt;Node5 -->
<g id="edge4_Node000002_Node000005" class="edge">
<title>Node2&#45;&gt;Node5</title>
<g id="a_edge4_Node000002_Node000005"><a xlink:title=" ">
<path fill="none" stroke="#63b8ff" d="M63.78,-109.75C68.21,-102.42 74.66,-91.73 80.12,-82.7"/>
<polygon fill="#63b8ff" stroke="#63b8ff" points="83.14,-84.46 85.31,-74.09 77.15,-80.84 83.14,-84.46"/>
</a>
</g>
</g>
<!-- Node4 -->
<g id="Node000004" class="node">
<title>Node4</title>
<g id="a_Node000004"><a xlink:title=" ">
<polygon fill="#e0e0e0" stroke="#999999" points="53,-19 0,-19 0,0 53,0 53,-19"/>
<text text-anchor="middle" x="26.5" y="-7" font-family="Helvetica,sans-Serif" font-size="10.00">stdint.h</text>
</a>
</g>
</g>
<!-- Node3&#45;&gt;Node4 -->
<g id="edge3_Node000003_Node000004" class="edge">
<title>Node3&#45;&gt;Node4</title>
<g id="a_edge3_Node000003_Node000004"><a xlink:title=" ">
<path fill="none" stroke="#63b8ff" d="M26.5,-54.75C26.5,-47.8 26.5,-37.85 26.5,-29.13"/>
<polygon fill="#63b8ff" stroke="#63b8ff" points="30,-29.09 26.5,-19.09 23,-29.09 30,-29.09"/>
</a>
</g>
</g>
</g>
</svg>
